<?xml version="1.0" encoding="utf-8"?>
<!-- Generator: Adobe Illustrator 26.0.3, SVG Export Plug-In . SVG Version: 6.00 Build 0)  -->
<svg version="1.0" id="Layer_1" xmlns="http://www.w3.org/2000/svg" xmlns:xlink="http://www.w3.org/1999/xlink" x="0px" y="0px"
	 viewBox="0 0 263.3 202" style="enable-background:new 0 0 263.3 202;" xml:space="preserve">
<style type="text/css">
	.st0{fill:#7E1A24;}
	.st1{fill:#332B2B;}
	.st2{fill:#66232E;}
	.st3{fill:#B39C1C;}
	.st4{fill:#FFFFFF;}
	.st5{fill:#BAA32E;}
	.st6{fill:#FDE8A8;}
	.st7{fill:#EBEBEB;}
	.st8{fill:#FFFDEB;}
	.st9{fill:none;}
</style>
 <g>
  <title>background</title>
  <rect fill="#fff" id="canvas_background" height="58" width="58" y="-1" x="-1"/>
  <g display="none" overflow="visible" y="0" x="0" height="100%" width="100%" id="canvasGrid">
   <rect fill="url(#gridpattern)" stroke-width="0" y="0" x="0" height="100%" width="100%"/>
  </g>
 </g>
<path class="st0" d="M48.4,174.7c1.2,0,2.4-0.1,3.5,0c1.1,2.4,2.6,4.5,3.8,6.9h0.4c0-1.6,0-3.2,0-4.8c0-0.4-0.1-0.9-0.4-1.2
	c-0.2-0.2-0.6-0.2-0.9-0.3l-0.1-0.6c1.1-0.1,2.3,0,3.4,0c0,0.2,0,0.4,0,0.6c-0.4,0.1-0.8,0.2-1,0.5c0,3.1,0,6.1,0,9.2
	c-0.6,0.1-1.1,0.1-1.7,0c-1.3-2.2-2.6-4.4-3.9-6.7c-0.2-0.4-0.5-0.9-0.8-1.2c0,2,0,4,0,6c0,0.3,0.1,0.7,0.2,1l0.9,0.1
	c0,0.3,0,0.5,0,0.8c-1.1,0-2.1,0-3.2,0c0-0.2,0-0.5,0-0.7l0.9-0.2c0.2-0.8,0.2-1.6,0.1-2.3c0-2,0-3.9,0-5.9l-0.5-0.5h-0.6
	c0-0.1-0.2-0.2-0.2-0.3C48.3,175,48.4,174.9,48.4,174.7 M105.5,174.8c2.8,0,5.6,0,8.4,0c0.2,0.9,0.3,1.7,0.3,2.6h-1
	c-0.1-0.6-0.3-1.1-0.5-1.6c-0.6-0.2-1.2-0.2-1.8-0.1c0,2.6,0,5.2,0,7.7c0,0.2,0,0.5,0.2,0.6c0.3,0.1,0.7,0.2,1.1,0.2v0.8
	c-1.6,0-3.3,0-4.9,0v-0.8c0.3,0,0.7-0.1,1-0.2c0.3-0.1,0.3-0.5,0.3-0.8c0-2.6,0-5.1,0-7.7c-0.6-0.1-1.1,0-1.7,0.1
	c-0.5,0.3-0.5,1-0.6,1.6c-0.3,0.1-0.8,0.4-1-0.1c0.1-0.8,0.3-1.6,0.3-2.4 M154.9,174.8c1.5,0,3.1,0,4.6,0c0,0.2,0,0.4,0,0.5
	c-0.4,0.1-0.7,0.2-1,0.5c0,2,0,4,0,5.9c0,0.8,0.2,1.5,0.8,2c0.4,0.3,0.9,0.4,1.4,0.4c0.7,0,1.3-0.5,1.6-1.2c0.2-0.4,0.2-0.9,0.2-1.4
	c0-2,0-3.9,0-5.9c-0.3-0.1-0.7-0.3-1-0.4v-0.5c1.1,0,2.1,0,3.2,0c0,0.2,0,0.3,0,0.5c-0.4,0.1-0.7,0.3-1,0.5c0,1.9,0,3.7,0,5.6
	c0.1,1-0.2,2-0.8,2.8c-0.5,0.5-1.2,0.9-2,0.9c-1.1,0.2-2.3,0-3.4-0.5c-1-0.5-1.3-1.8-1.3-2.9c0-2,0-4,0-5.9
	c-0.3-0.2-0.7-0.4-1.1-0.5c0-0.2,0-0.4,0-0.5 M95.8,177.6c0.8-0.1,1.6-0.2,2.4-0.4c0,2.2,0,4.5,0,6.7c-0.1,0.4,0.3,0.5,0.6,0.7
	c0,0.1,0,0.3,0,0.4c-1,0-2,0-3,0v-0.5l0.6-0.1c0-2.1,0-4.1,0-6.2l-0.6-0.1L95.8,177.6 M201.9,177.5h1c0.2,0.3,0.4,0.5,0.6,0.9
	c-0.1,0.5-0.6,0.9-1.1,1c-0.4-0.1-0.9-0.4-0.8-0.8S201.8,177.9,201.9,177.5 M72.4,177.6c0.3-0.1,0.5-0.1,0.8,0
	c0.5,0.2,0.7,0.8,0.5,1.3c-0.2,0.3-0.5,0.5-0.9,0.5c-0.4-0.1-0.8-0.4-0.8-0.8C71.9,178.2,72.1,177.8,72.4,177.6 M123.4,177.6h1
	c0.3,0.4,0.5,0.9,0.3,1.3c-0.2,0.3-0.6,0.5-1,0.5c-0.3-0.1-0.5-0.3-0.7-0.4C123,178.4,123.1,178,123.4,177.6 M174.1,178l0.5-0.4h0.8
	c0.2,0.3,0.6,0.6,0.5,1c-0.1,0.5-0.6,0.9-1.1,0.8c-0.3-0.1-0.5-0.2-0.7-0.4C174.1,178.7,174.1,178.3,174.1,178 M206.8,178.2h0.4
	c0,0.5,0,1.1,0.1,1.6c0.4,0.1,0.8,0.1,1.2,0.1c0,0.2,0,0.4,0,0.6h-1.1c-0.1,0.6-0.1,1.2-0.1,1.8c-0.1,0.8,0,1.6,0.3,2.3
	c0.3-0.1,0.6-0.2,0.9-0.2c0.1,0.1,0.3,0.2,0.4,0.4c-0.9,0.6-2.5,0.8-3.1-0.3c-0.1-1.3,0-2.6-0.1-3.9H205c0-0.6,0.7-0.6,1-1
	C206.3,179.1,206.5,178.7,206.8,178.2 M68.4,178.3h0.4v1.6H70c0,0.2,0,0.5,0,0.7c-0.4,0-0.8,0-1.2,0c0,0.9,0,1.8,0,2.7
	c0,0.3,0,0.6,0.2,0.9c0.3,0.4,0.8,0.1,1.2,0.1c0.1,0.1,0.2,0.3,0.3,0.4c-0.7,0.4-1.6,0.5-2.5,0.2c-0.5-0.3-0.8-0.8-0.8-1.4
	c0-1,0-2,0-3l-0.6-0.3c0.2-0.5,0.8-0.5,1.1-0.8C67.9,179.1,68.2,178.7,68.4,178.3 M77.3,179.7c1-0.2,2,0,2.8,0.6
	c1,1.1,1.1,2.8,0.2,4c-0.8,0.7-1.9,0.9-2.9,0.7c-0.8-0.1-1.5-0.6-1.8-1.4c-0.4-0.9-0.3-1.9,0.2-2.8
	C76.1,180.2,76.7,179.8,77.3,179.7 M77.8,180.2c-0.3,0.3-0.5,0.6-0.6,1c-0.1,0.8-0.1,1.6,0.1,2.4c0.1,0.5,0.6,1,1.1,0.8
	c0.6-0.3,0.9-0.9,0.8-1.6c0.1-0.8,0-1.6-0.4-2.4C78.6,180.2,78.1,180.2,77.8,180.2 M84.4,180.2c0.5-0.4,1.1-0.7,1.8-0.7
	c0.7,0.2,1.2,0.7,1.2,1.4c0.1,1.1-0.1,2.1,0.1,3.2c0.2,0.2,0.4,0.5,0.7,0.6c-1,0.2-2,0.3-3.1,0.1c0.1-0.3,0.4-0.6,0.7-0.8
	c0-1,0-1.9,0-2.9c0-0.4-0.3-0.8-0.7-0.9c-0.4,0.2-0.8,0.5-1.1,0.9c0,1,0,2,0,2.9l0.5,0.3c0,0.2,0,0.3,0,0.5h-2.6l-0.1-0.4
	c0.2-0.1,0.4-0.2,0.6-0.3c0.1-1,0.1-2,0-3c0-0.5-0.5-0.7-0.8-1c0.7-0.2,1.4-0.4,2.2-0.6c0.1,0.2,0.2,0.4,0.3,0.6 M89.5,180.2
	c0.8-0.5,1.8-0.7,2.7-0.6c0.7,0,1.3,0.5,1.5,1.2c0.2,1.2-0.1,2.4,0.2,3.5l0.7,0.1c-0.1,0.2-0.2,0.4-0.3,0.6c-0.7,0.1-1.4,0-2.1-0.3
	c-0.6,0.3-1.2,0.4-1.8,0.4c-0.8,0-1.4-0.6-1.4-1.4c0-0.5,0.3-1,0.8-1.3c0.8-0.4,1.6-0.6,2.4-0.8v-1c-0.3-0.2-0.7-0.3-1.1-0.3
	c-0.2,0.4-0.5,0.8-0.8,1.1c-0.3,0-0.5,0-0.8,0C89,181,89.2,180.5,89.5,180.2 M90.8,183.1c-0.1,0.4,0,0.9,0.2,1.2
	c0.4,0,0.8-0.1,1.1-0.3c0-0.6,0-1.2,0-1.8C91.7,182.3,91,182.5,90.8,183.1 M135.2,180.9c0.2-0.8,1-1.3,1.8-1.3
	c0.8-0.1,1.5,0,2.2,0.3c0.4,0.3,0.7,0.7,0.7,1.2c0.1,1-0.1,2,0,3c0.1,0.2,0.4,0.2,0.6,0.3v0.5c-0.6,0.1-1.3,0-1.9-0.2
	c-0.5-0.3-1,0.2-1.5,0.2c-0.5,0.1-1.1,0-1.5-0.3c-0.4-0.2-0.6-0.6-0.7-1.1c0-0.5,0.3-0.9,0.7-1.2c0.8-0.4,1.7-0.7,2.6-0.9
	c0-0.5-0.1-1.3-0.7-1.3s-0.9,0.6-1.2,1.1C136,181.4,135.4,181.5,135.2,180.9 M136.7,183.2c0,0.3,0.1,0.5,0.2,0.8
	c0.3,0.3,0.8,0.4,1.2,0.1c0.1-0.1,0.1-0.1,0.2-0.2c0.1-0.5,0.1-1.1,0-1.6C137.6,182.3,137,182.7,136.7,183.2 M143.8,180.4
	c0.6-0.7,1.5-0.9,2.4-0.7c0.4,0.2,0.9,0.5,0.9,1.1c0.1,1,0,2,0,3.1c0.2,0.3,0.5,0.7,0.6,1.1c-0.9,0-1.7,0-2.6,0l-0.2-0.4l0.6-0.4
	c0-1,0-2,0-2.9c0-0.3-0.2-0.6-0.4-0.9c-0.6,0.1-1.1,0.4-1.4,0.9c-0.1,0.9,0,1.9,0,2.9l0.7,0.7c-1,0.2-2,0.3-3,0.1
	c-0.2-0.6,0.8-0.5,0.7-1.1c0-0.9,0-1.9,0-2.8c-0.3-0.3-0.5-0.5-0.8-0.7c0.8-0.2,1.5-0.4,2.3-0.6
	C143.6,179.9,143.7,180.2,143.8,180.4 M61.5,179.7c0.7-0.1,1.5-0.1,2.2,0.2c0.5,0.2,0.8,0.7,0.8,1.3c0,1,0,2.1,0,3.1
	c0.3,0.1,0.7,0.1,0.6,0.5c-0.8,0.3-1.6,0.2-2.3-0.2c-0.4,0.1-0.8,0.3-1.2,0.4c-0.7,0.2-1.5-0.1-1.9-0.8c-0.3-0.5-0.2-1.2,0.3-1.6
	c0.7-0.7,1.8-0.7,2.6-1.1c0.5-0.1,0.1-0.7,0-1c-0.2-0.3-0.6-0.5-0.9-0.3c-0.1,0-0.2,0.1-0.2,0.2c-0.2,0.2-0.4,0.5-0.6,0.8l-0.5,0.1
	l-0.5-0.2c0-0.3-0.1-0.6,0.2-0.9C60.4,180,60.9,179.7,61.5,179.7 M62.1,182.4c-0.3,0.2-0.7,0.4-0.7,0.8c0,0.4-0.1,0.9,0.3,1
	c0.4,0.1,0.8,0,1.1-0.3c0-0.5,0-1,0-1.5S62.3,182.3,62.1,182.4 M70.9,180.1c0.8-0.1,1.5-0.3,2.3-0.4c0,1.5,0,3,0,4.4l0.7,0.4v0.4
	c-1,0.1-2,0-3,0v-0.5l0.6-0.1c0-1.2,0-2.4,0-3.6C71.2,180.6,70.6,180.6,70.9,180.1 M115.9,180.2c0.7-0.5,1.6-0.7,2.5-0.6
	c0.7,0.1,1.6,0.4,1.7,1.1c0.2,1.2-0.1,2.4,0.2,3.5l0.8,0.3c-0.7,0.5-1.7,0.6-2.5,0.1c-0.7,0.4-1.6,0.5-2.4,0.3
	c-0.4-0.2-0.8-0.5-0.8-0.9s-0.1-1,0.3-1.3c0.7-0.7,1.8-0.7,2.6-1.1c0.4-0.2,0.2-0.7,0.1-1.1s-0.7-0.3-1-0.3c-0.2,0.4-0.4,0.7-0.7,1
	c-0.3,0.1-0.7,0.1-1,0.1C115.5,180.9,115.6,180.5,115.9,180.2 M117.5,182.6c-0.2,0.3-0.4,0.6-0.6,0.9c0.2,0.2,0.3,0.7,0.7,0.7
	c0.3,0.1,0.6,0,0.8-0.2c0.1-0.6,0.1-1.2,0-1.8C118.1,182.2,117.8,182.4,117.5,182.6 M125.4,179.7c0.9,0,1.7,0,2.6,0
	c0,0.1,0,0.2,0,0.4s-0.4,0.3-0.3,0.6c0.2,0.9,0.5,1.7,0.8,2.5c0.3-0.7,0.5-1.5,0.8-2.3c0.2-0.4-0.2-0.8-0.4-1.1h2.5
	c-0.2,0.2-0.3,0.5-0.4,0.7c0.3,0.8,0.5,1.5,0.6,2.4h0.4c0.2-0.8,0.5-1.6,0.8-2.4l-0.4-0.7h1.6c-0.8,1.6-1.5,3.3-2,5.1h-1
	c-0.4-1-0.7-2.1-1-3.1h-0.3c-0.2,1-0.5,2-0.9,3l-0.3,0.2l-0.8-0.1c-0.3-0.9-0.7-1.9-1-2.8c-0.3-0.7-0.4-1.5-1.1-2
	C125.5,180,125.5,179.8,125.4,179.7 M165.7,180.1c0.7-0.1,1.4-0.2,2-0.6l0.2,0.7c0.6-0.4,1.3-0.6,2-0.6c0.7-0.1,1.4,0.5,1.4,1.2
	c0.1,1.1,0,2.1,0,3.2l0.6,0.5c0,0.1,0,0.3,0,0.4c-0.9,0-1.9,0-2.8,0c0.1-0.3,0.3-0.5,0.5-0.7c0.1-1,0-2,0-3c0.1-0.4-0.3-0.7-0.5-1
	c-0.4,0.3-0.8,0.6-1.2,0.9c0,1,0,2,0,3c0.2,0.2,0.4,0.5,0.5,0.8c-0.9,0-1.9,0-2.8,0v-0.4c0.2-0.1,0.4-0.2,0.5-0.3
	c0.1-0.3,0.1-0.6,0.1-0.9c0-0.8,0-1.5,0-2.3C166.3,180.6,165.5,180.5,165.7,180.1 M172.8,180.2c0.8-0.3,1.6-0.4,2.4-0.6
	c-0.1,1.5,0,3.1,0.1,4.6l0.7,0.3c-0.1,0.2-0.2,0.4-0.4,0.4c-0.9,0-1.8,0-2.7,0v-0.5l0.6-0.2c0.1-0.8,0.2-1.6,0.1-2.5
	c0-0.3,0-0.6-0.1-0.9C173.3,180.7,173.1,180.4,172.8,180.2 M183.4,180.9c0.7-1.3,2.3-1.8,3.6-1.1c0.3,0.1,0.5,0.3,0.7,0.6
	c0.4,0.5,0.5,1.2,0.4,1.8c-1.1,0.1-2.1,0-3.2,0c-0.1,0.7,0.2,1.5,0.8,1.9c0.3,0.1,0.7,0.1,1.1,0c0.4-0.2,0.6-0.6,1-0.9
	s0.3,0.4,0.4,0.5c-0.5,0.4-1,0.9-1.6,1c-0.9,0.2-1.9,0-2.7-0.6C183.1,183.3,182.9,182,183.4,180.9 M184.9,181.7
	c0.6,0.1,1.2,0,1.7-0.1c0-0.6-0.2-1.6-1-1.5C185,180.4,185,181.1,184.9,181.7 M189.5,180c0.7-0.1,1.4-0.3,2.1-0.4
	c0,0.2,0.1,0.4,0.1,0.6l0.2-0.1c0.4-0.4,0.9-0.8,1.5-0.5s1,0.8,0.6,1.3c-0.2,0.3-0.6,0.2-0.9,0.2c-0.1-0.2-0.2-0.5-0.3-0.7
	c-0.6,0-1,0.4-1.1,0.9c0,0,0,0,0,0.1c0,0.9,0,1.8,0,2.6l0.9,0.4c-0.2,0.2-0.4,0.4-0.6,0.4c-0.8,0-1.6,0-2.4,0
	c-0.1-0.6,0.7-0.7,0.6-1.3c0-0.8,0-1.5,0-2.3C190.1,180.7,189.5,180.5,189.5,180 M200.5,180c0.8-0.1,1.5-0.3,2.3-0.4
	c0,1.4,0,2.7,0,4.1c-0.1,0.4,0.4,0.6,0.6,0.8c0,0.1,0,0.2,0,0.4c-1,0-1.9,0-2.9,0v-0.4c0.2-0.2,0.6-0.2,0.6-0.6c0.1-1.1,0-2.1,0-3.2
	l-0.6-0.2L200.5,180 M121.8,180.1c0.8-0.2,1.6-0.4,2.4-0.6c0,1.5,0,3.1,0,4.6l0.8,0.3c-0.1,0.1-0.2,0.3-0.2,0.4h-2.6l-0.2-0.4
	c0.3-0.2,0.8-0.3,0.8-0.8c0-0.9,0-1.8,0-2.7c-0.2-0.4-0.5-0.6-0.8-0.8 M180.7,179.9c0.6-0.1,1.1-0.1,1.7,0c0,0.4-0.4,0.7-0.6,1.1
	c-0.5,1.2-1,2.4-1.5,3.6c-0.1,0.4-0.6,0.3-0.9,0.3c-0.5-1.2-1.1-2.4-1.6-3.7c-0.3-0.5-0.6-1-1-1.4c1,0,2,0,2.9,0
	c-0.2,0.2-0.4,0.5-0.5,0.7c0.3,0.7,0.6,1.4,0.8,2.2h0.4c0.2-0.8,0.6-1.5,0.8-2.2C180.9,180.3,180.8,180.1,180.7,179.9 M195.4,180.3
	c0.8-0.7,2-0.6,2.9-0.5c0.7,0,0.8,0.9,0.7,1.4l-0.2,0.2c-0.3-0.4-0.6-0.8-0.8-1.1c-0.4,0-0.9,0.1-1.3,0.2c0,0.2,0,0.4,0,0.6
	c0.7,0.5,1.5,0.8,2.1,1.3c0.6,0.5,0.7,1.3,0.2,1.9c-0.1,0.1-0.2,0.2-0.3,0.3c-0.7,0.4-1.5,0.6-2.3,0.4c-0.5,0-0.9-0.1-1.3-0.3
	c-0.2-0.4-0.2-0.9-0.2-1.4c0.4-0.1,0.6,0.4,0.8,0.6c0.3,0.5,1,0.7,1.6,0.4c0,0,0,0,0.1,0c0.3-0.2,0.2-0.6,0.2-0.8
	c-0.8-0.5-1.6-1-2.4-1.7c-0.4-0.4-0.4-1,0-1.4C195.3,180.3,195.4,180.3,195.4,180.3 M208.8,179.8c1,0,2,0,2.9,0.1
	c-0.1,0.3-0.4,0.6-0.3,1c0.2,0.7,0.6,1.3,0.8,1.9l0.3-0.1c0.2-0.7,0.5-1.5,0.8-2.2l-0.6-0.7c0.6,0,1.3-0.1,1.9-0.1
	c-0.4,0.7-0.8,1.4-1,2.2c-0.5,1.2-1,2.3-1.4,3.5c-0.2,0.7-0.6,1.3-1.1,1.8h-1.9l-0.5-0.4v-0.5l0.5-0.5c0.4,0.3,0.7,0.7,1,1.1
	c0.4-0.2,0.7-0.5,0.9-0.9c0.2-0.5,0.6-1.1,0.3-1.7C210.6,182.8,209.8,181.3,208.8,179.8L208.8,179.8z"/>
<path id="path3" class="st1" d="M67.5,154.6c-0.6-2.4-0.7-4.7-1.3-6.9v-1.8c-0.4-1.1-1.2-1.8-1.3-3.4c-0.9-0.4-2.3-1.4-4-0.9
	c-0.6,0.3-1.2,0.7-1.8,1.1c-2.3,1.1-5.2,1.1-6.9,2.7h-0.2c0.5,0.3,1.1,0.4,1.6,0.4v0.2h0.2c0,1.9-0.5,3.7-1.5,5.3
	c-0.7,0.2-1.6,0.9-2.4,0.4h-0.2c0,0.9,0.2,1.2,0.9,1.5c-0.2,1.9-1.5,3.4-2.2,5.1s-0.5,3.6-1.1,5.4c-0.3,1-1.2,2.8-0.4,3.8
	c0.1,0.3,0,0.2,0.2,0.4c0.2-0.7,0.5-0.8,1.1-1.1c0.1-3.2,0.7-6.3,1.8-9.3c0.5-1.2,1.5-2.4,1.8-3.6H53c-0.1,1.5-0.8,2.9,0.4,3.8
	c-0.1,0.3-0.4,0.6-0.7,0.7v0.9h0.2c0.3-0.6,0.7-0.8,1.1-1.3c0.3,0,0.5,0.1,0.7,0.2c0.2,0.9,0.5,1.7,0,2.4c-0.2,0.4,0.1,0.1-0.4,0.4
	c-0.4,0.1-0.8,0.1-1.1-0.2H53c0.4,0.6,0.7,1.3,0.9,2c0.4,0,0.8,0,1.1-0.2c0.8-0.3,0.8-0.8,1.3-1.3c0-1.3-0.3-2.6-0.9-3.8
	c0.2-1.4,1.5-1.2,2.2-2h0.4c0.7,1.5,1,3.1,0.9,4.7c-1.2,1-1.8,2.7-3.1,3.6c-1.3,0.8-2.6,1.6-3.8,2.6c-0.2,0.3-0.3,0.9-0.5,1.3
	c0,0.3,0.1,0.6,0.2,0.9c1.5,0.6,2.3-0.1,3.6-0.4c0.8-0.2,2.4,0.5,3.8,0.2c1.4-0.4,2.9-0.8,4.4-1.3c0.2-0.5,0.3-1.1,0.2-1.6
	c-0.4-0.1-0.7-0.3-1.1-0.6c-0.9-1.1-0.9-2.8-1.6-4c0.1-1.3,0.7-1.5,1.1-2.4c0.2-0.8,0.3-1.7,0.2-2.5l0.5-0.6c-0.1-0.9-0.2-1-0.9-1.3
	c-0.9-0.6-1.9-0.1-3.3,0c0-0.9-0.1-1.7-0.4-2.5c0.2-1,1.8-1.2,2.7-1.5c-0.1-1.2-0.4-1-0.9-1.6h-1.6c0.2,0.1,0,0.1,0.4,0.2
	c-0.1,0.8-0.2,0.8-0.5,1.3h-0.4c0-0.6-0.2-1.1-0.4-1.6c0.1-2.1,2.6-1.8,3.8-2.7c1.5,0.2,1.2,1.2,2.2,1.8v0.2c-0.3-0.1-0.2,0-0.4-0.2
	c-0.8,0-1.4-0.1-1.8,0.4H61c0.8,0.9,1.6,2.3,3.1,1.8c0.5,2.1,1.9,10.4,1.3,12c0.1,0.3,0,0.2,0.2,0.4c0.3,0.2,0.6,0.2,0.9,0.2
	c-0.2,0.4-0.3,1.2-0.5,1.6v0.2c-0.2-0.3-0.2-1.1-0.4-1.4v-0.2h-0.2c0,2.3-0.1,4.5-0.5,6.7c-0.3,0.9-0.1,1.9,0.4,2.7
	c0.7,0.2,0.8-0.5,2-0.4c-0.2-1.7,0.3-3.7,0-4.9c-0.2-1.3-0.4-2.5-0.4-3.8c0.3-1.2,0.4-2.5,0.2-3.8C67.2,157.8,68,156.5,67.5,154.6
	 M48.5,164.2h-0.2v-0.4h0.2V164.2z M48.5,163.3h-0.2V163h0.2V163.3z M60.8,164.6c-0.6,1.2-4,2.6-5.5,1.6h-0.9v-0.4
	c1.8-1,3.4-2.5,4.5-4.2h0.5C60,162.7,60.4,163.6,60.8,164.6 M59,154.6c0.4,0,0.8,0,1.1,0.2h0.4c0,0.9,0.2,2.4-0.2,2.9v0.2
	C59.4,157.5,58.9,155.3,59,154.6 M55.6,149.5c0.4,0.2,0.4,0.3,0.7,0.6c0,0.3,0.1,0.5,0.2,0.7l-1.5,0.5h-0.5
	C54.7,150.6,55.2,150.2,55.6,149.5 M57.6,154.2c-0.2,0.9-1.9,1.8-2.7,2c-0.2,0.1-0.2,0-0.5-0.2h-0.4c-0.1-0.6-0.4-1.5,0-2
	c0.4-0.8,1.5-1.4,2-2.2c0.4-0.1,0.3,0,0.5-0.2h0.4C57,152.6,57.2,153.4,57.6,154.2 M65.2,148.8H65v-0.4h0.2V148.8z M65.7,160.2h0.2
	v0.4h-0.2V160.2z M65.9,161.7v0.2h-0.2v-0.4c0.3,0.1,0.2,0,0.4,0.2H65.9z M65.9,165.1c-0.1-0.2-0.1-0.2-0.2-0.5h0.2V165.1z"/>
<path id="path5" class="st1" d="M176.3,158.6c0-1.4,0.5-1.4,0.7-2.4h0.5v-0.7c1,0,2-0.2,2.9-0.4c0.4-0.2-0.2-0.4,0.7-0.6
	c-0.2-0.5-0.2-0.3-0.4-0.9c-0.3,0-0.6-0.2-0.9-0.4v-0.7c-0.6-0.1-1.3,0-1.8,0.4h-0.9v-0.2c0.1-0.2,0.1-0.4,0.2-0.5l-0.7-1.1
	c-0.7-0.8-2.2-0.7-2.7-1.3h-1.3c0,0.3-0.2,0.5-0.4,0.7c-0.1,0.4,0,0.9,0.2,1.3v0.2c0.4,0.1,0.2-0.1,0.4-0.2c0.8,0.5,0.5,2.1,0.6,3.1
	c-1.2,0.2-4.3,1.8-5.5,0.7h-1.8c0.4,0.8,2.3,2,3.1,2.4l0.4-0.2c0.7,0.9-0.5,0.7,0.9,1.3c-0.2,1.1-0.9,1.1-1.3,2.4
	c-0.4,0.9,0.5,3.2,1.8,3.1c2-0.4,3.1-2.9,4.2-4.4c0.1-0.2,0.6,0.3,1.3,0.4c0.8,1.8,2,2.9,2.4,4.7l2,0.6c0.2-0.4,0.5-0.8,0.9-1.1
	C181.2,161.5,179.5,159.7,176.3,158.6 M175.9,154.1h-0.2v-0.4h0.2V154.1z"/>
<path id="path7" class="st1" d="M88.7,151.9c0.2,0.2,0.2,0.3,0.2,0.7c0.5-0.2,1.1-0.4,1.6-0.5l0.7,0.2c0.3-0.1,0.8-0.7,1.1-0.9
	c0.1-0.6,0.1-1,0.2-1.4c-1.2-1.2-2-2.8-4-3.3c0.5,1.2-0.2,0.5,0,1.4c0.1,0.6,0.8,1.4,0.5,2.2c-0.8,1.4-1.8,2.7-3.1,3.6v0.4
	C87,153.7,88,152.9,88.7,151.9"/>
<path id="path9" class="st1" d="M95.7,163.3l-1.6-0.7c-0.1,0-4.5,0.7-4.7,0.9h-0.9v-0.2c2.2-0.6,2.5-2.4,3.8-3.8
	c0-0.5-0.1-0.9-0.4-1.3c-0.2-0.4-0.5-0.6-0.9-0.7c-0.1-0.2,0,0.1-0.2,0.2h-0.2c-0.3-0.4,0-0.2-0.5-0.4c0.6-1.8,1.9-2,3.3-2.6
	c0.1-0.9-0.4-1.8-1.3-2.2c-2,1.6-5.2,1.9-7.5,1.8c0.2,0.1,0.3,0.1,0.7,0.2c-0.1,0.1-0.4,0.2-0.6,0.4h-0.2v0.4c0.2-0.2,0,0,0.2-0.2
	c1,0,0.6,0.1,0.9,0.4c0.9,0.4,2,0.4,2.9,0l0.2,0.4h-0.2v0.9c-0.2,0.3-1,0.3-1.3,0.6c-0.3,0.7-0.6,1.4-0.9,2.2c0,0.5,0.2,1,0.4,1.4
	c0.4,0,0.5,0,0.7-0.2c1-0.2,1.8-0.8,2.4-1.6h0.4c-0.1,1.2-2.8,4.1-3.8,4.4c-1,0.7-2.8,0-3.3-0.5H83c0,0.1,0.1,0.4,0.1,0.7l0,0v0.2
	l0,0c0.1,0.7,0.3,1.4,0.5,2c0.2,0.6,0.3,0.5,0.6,0.9c1-0.1,0.9-0.5,1.4-0.7l4.4-0.2c1.5-0.5,3.1-1.5,4.7-0.2
	c0.9-0.2,0.6-0.8,0.9-1.5C95.7,164.2,95.7,163.8,95.7,163.3 M88.1,154.2c0.3,0.1,0.2,0,0.4,0.2C88.1,154.3,88.3,154.4,88.1,154.2
	 M87.9,163.5h-0.2v-0.4h0.2V163.5z"/>
<path id="path11" class="st1" d="M216.4,151c-0.1-0.4-0.2-0.7-0.4-1.1h-0.5v-0.6c-4.6-0.4-8.9,2.7-12.4,4c-1.1,0.4-2,0.3-2.9,0.9
	h-0.4c0-1.8,0-3.7,1.1-4.7v-0.4c0.4,0.5,0.1,0.8,0.7,1.1c2.1,0.8,5.7-2.9,6.4-5.3c0.9-0.4,2.5-0.5,2.9-1.4c0.2-0.5,0-0.6-0.7-0.7
	c-0.6-0.3-2,0.6-2.5,0.6c-0.8-0.3-1.5-0.9-2-1.6h-0.5c0.1,0.1,0.2,0.3,0.4,0.4c-0.1,0.4-0.4,0.8-0.7,1.1c0.2,0.5,0.4,1,0.5,1.5
	c-0.5,0.5-0.8,1-1.6,1.3c0,0,0,0.4-0.2,0.2v-0.2c-0.4-0.3-0.7-0.8-0.7-1.3c-0.9-0.3-1.8-0.4-2.7-0.2h-0.4c0.5,0.3,0.9,0.5,1.5,0.7
	c-0.1,1-0.2,1.9-0.2,2.9c-0.9-0.3-3.6-0.4-4.4-0.9h-1.6c0.9,1.2,1.7,1.3,2.4,2.7s0.1,3.3,1.3,4.2c-0.1,0.4,0,0.4-0.2,0.5
	c-0.5,0.4-1.3,0.4-1.8,0.7c-0.3-0.4-0.2-1.1-0.7-1.5c-0.4-0.2-1.1,0.2-1.5,0c-0.7,0-0.8-0.1-1.1,0.4s0.2,1,0.7,1.3
	c0,0.8,0.1,1.5-0.4,1.8c0.3,0.4,0.5,0.8,0.6,1.3c0.3,0,0.6,0,0.9-0.2c0.9-0.4,1.2-1.6,2-2.2c2.2-1.4,5.1-1.3,7.8-2.2
	c1.5-0.5,2.6-1.7,4-2.2c1.3-0.2,2.5-0.2,3.8,0c1,0.4,1,1.4,1.6,2.2c-0.1,0.7-0.2,0.5-0.6,0.9h-0.2c0.3,0.2,0.6,0.3,0.9,0.4
	C215.2,154.3,216.9,151.9,216.4,151 M203.9,147.4c0.1-0.9,0.4-0.7,0.7-1.3h0.6c-0.3,0.9-0.6,1.7-1.1,2.6h-0.2v0.2h-0.2
	C203.8,148.2,203.8,147.4,203.9,147.4"/>
<path id="path13" class="st1" d="M203.3,162.1c0.4-1.8,1.3-3.4,2.5-4.7l-0.2-0.6c-1.5-0.6-2.6,0-4.2,0.4c-1.2,0.3-1.7-0.6-2.7-0.7
	c0.9,1,2.1,1.9,3.4,2.4c0,1.4-0.2,2.7-0.6,4c0.2,0.6,0.6,1.1,1.1,1.5c-0.1,0.3,0,0.2-0.2,0.4c-0.4,0.3-2.6-0.4-3.3,0h-0.4
	c1.1,1.1,2.9,1.4,4.2,2.4c0.7,0.9-0.1,3.2-1.3,3.5l0.2,0.9c3.2-0.5,2.2-1.7,3.4-3.8l0.7-0.4c0.4-0.7,0.6-1.5,0.7-2.4
	c-0.6-0.2-1.2-0.5-1.8-0.7C204.4,163.7,204,162.6,203.3,162.1"/>
<path id="path15" class="st1" d="M148.3,146.2c1.1-0.7,2.9-0.4,4.2-1.1l0.7-0.9c0.5-0.3,1-0.1,1.5-0.4c0.2-0.1,0.3-0.5,0.5-0.7
	c-0.2-0.6-0.2-0.5-0.5-0.9c-2.3,0.1-2.9,1.5-5.1,1.6v-0.7l-1.1-1.3c-0.5,1.1-1.3,3.1-2.5,4l0.2,2.2
	C147.1,147.7,147.5,146.8,148.3,146.2"/>
<path id="path17" class="st1" d="M155.9,146.2c-2,0.2-3.8,1.1-5.3,2.5c-0.7,0-1.3-0.3-1.8-0.7h-0.5c0.3,1,0.8,1.9,1.4,2.7h0.9
	c0.5-2.4,1.9-2.4,3.3-3.3c0.8,0.2,0.6,0.7,1.1,1.3c-0.2,2-1.6,2.2-2.7,3.3h-0.2v0.2c1.8-0.5,3.4-1.3,4.9-2.4
	c-0.2-1.1-0.5-2.1-0.9-3.1C156.1,146.6,156,146.4,155.9,146.2"/>
<path id="path19" class="st1" d="M140.7,146.6h-0.6c-0.3,0.4-0.4,0.4-1.1,0.4c0.9,0.9,1.6,2,2.2,3.1c0.4,0.1,0.7,0.2,1.1,0.4
	C143.8,148.5,141.7,147.9,140.7,146.6"/>
<path id="path21" class="st1" d="M146.3,151.7v0.2h0.2c0.1-0.9,0.2-1.7,0.4-2.6v-0.2c-1,0.2-1,0.6-2,0c0.1,0.9,0.2,1.7,0.4,2.5
	C145.5,151.8,145.9,151.8,146.3,151.7"/>
<path id="path23" class="st1" d="M151.2,156.8c0.4-0.7,0.9-1.3,1.5-1.8c0.1-0.4,0-0.9-0.2-1.3c-0.3-0.6-0.6-0.5-0.9-1.1
	c-1,0.1-2.5,0.3-3.1,0.9c-0.3,0.4-0.4,0.8-0.4,1.3l2.2-0.4c-0.1,0.7-0.5,1.3-1.1,1.6c-0.2,0.1-0.2,0.1-0.5,0.2
	c0,0.4-0.1,0.8-0.4,1.1c0,0.2,0.1,0.5,0.2,0.7h1.4v1.6c0.3,0.3,0.7,0.6,1.1,0.9c0,2.2,0.7,4.9,0.2,6.5c-0.8,2.7-5.9,5.5-8.4,6.7
	c0.1,0.3,0,0.2,0.2,0.4v0.2c0.1-0.2,0.1-0.2,0.2-0.5c0.9,0.3,1.1-0.2,1.6-0.4l1.1,0.2c0.7-0.2,0.7-0.5,1.3-0.7h0.9
	c1.5-0.8,3.1-3.9,4.5-4.5c0.3-1.6,0.2-3.2-0.2-4.7c-0.1-0.9,0-1.7,0.4-2.6c0.3-0.8-0.4-1.6-0.6-2
	C151.9,157.9,152.4,157.3,151.2,156.8"/>
<path id="path25" class="st1" d="M135.9,152.8c-0.1,0.6-0.2,0.9-0.7,1.1c0.3,1.1,0.7,2.6,1.4,3.3l1.6,0.5c0.2-0.2,0.3-0.3,0.5-0.4
	C138.6,155.5,137.5,153.8,135.9,152.8"/>
<path id="path27" class="st1" d="M136.1,160.8c-0.7-0.9-1.2-2.1-2-2.7c0.1,2.9,0,5.2,2,6.5c0.6,0.2,1.3,0,1.8-0.4
	c0.2-0.2,0.4-0.4,0.6-0.5C138.4,161.6,137,161.9,136.1,160.8"/>
<path id="path29" class="st1" d="M112.5,157.7c-0.2-0.4-0.1-0.3-0.5-0.5v-0.6c2.1-0.3,5.6-1.6,6.2-3.4c0.2-0.2,0,0,0.2-0.2
	c-0.5-0.5-0.5-0.9-1.3-1.1c0.5-1.5,2.3-2,3.3-3.1c0.1-0.2,0.1-0.2,0.2-0.6c-0.8-0.2-1.7-0.3-2.5-0.4c0.5-2.1,1.6-3,3.1-4v-0.5
	c-1-0.1-3.1-1.5-3.6-2c-1,0-1.6,0-2,0.6c0.3,0.6,0.7,1.2,1.1,1.8v1.8c-1.1,0.1-2.1,0.4-3.1,0.7h-0.4c0.7,1,1.9,1.5,3.1,1.4
	c0,2.1-5.8,4.1-7.3,2.6c-0.4,0.2-0.1-0.1-0.4,0.4c-0.1,0.3-0.1,0.7,0.2,0.9c0.4,1,1.5,1,2.2,1.6c2,0,3.5-0.6,4-2
	c0.8,0.5,0.1,1.4,0.7,2c-0.1,1.2-2.2,3.1-3.3,2.6c-2.4,0.1-1.1,2.2-2.4,3.3c0.3,0.6,0.5,1.7,1.1,2.2c0.2,0.1,0,0.1,0.4,0.2
	c0.6-0.7,1.2-1.5,1.6-2.3h0.4c0.6,0.8,0.9,2.3,1.6,3.1c-0.2,1.1-1.6,2.1-2.5,2.4h-1.5c-0.5,0.2-0.6,0.7-1.1,0.9
	c0.1,0.3,0,0.2,0.2,0.4c0.6,0.2,1.3,0.3,2,0.2v0.2h0.2c-0.1,0.7-0.5,1.4-1.1,1.8c0,1,0.3,1.9,0.7,2.7c0,0,5.6-0.6,6.3-0.4
	c0.2-0.3,0.7-0.8,0.7-1.1c0.3-1.1-0.5-2.6,0.2-3.6V165h-0.2c-0.3,1.3-0.9,2.5-1.6,3.6c-1.2,0.1-2.8,0.5-3.6-0.2h-0.4
	c0.7-2.7,2.1-3.1,3.8-4.7c0-1.2-0.6-2.3-1.4-3.1c0-0.5,0.2-0.9,0.6-1.3c-0.2-0.9-0.6-0.5-1.3-0.9h-0.2c0.5-1.1,2.4-1.2,3.3-2h0.9
	c-0.3,0.7-0.8,1.3-1.5,1.6v0.4c1.7-0.8,3.4-1.7,5.1-2.8v-0.4c-0.6-0.2-1.4-0.8-1.8-0.9C119.5,153.9,114.1,157.3,112.5,157.7"/>
<path id="path31" class="st1" d="M120.3,163.1c-0.2,0.1-0.2,0.1-0.6,0.2v0.2h-0.2v0.9c0.6-0.3,1.3-0.2,1.8,0.2
	c0.3-0.1,0.6-0.3,0.9-0.5c0-0.3-0.2-0.6-0.4-0.9L120.3,163.1z"/>
<g id="surface1">
	<path id="path2" class="st2" d="M187.4,73.6c0,32.4-26.3,58.7-58.7,58.6c-32.4,0-58.7-26.3-58.6-58.7s26.3-58.7,58.7-58.6
		c0,0,0,0,0,0C161.2,14.9,187.4,41.2,187.4,73.6C187.4,73.6,187.4,73.6,187.4,73.6"/>
	<path id="path4" class="st3" d="M128.8,15.1C96.5,15.5,70.7,42,71.1,74.3C71.4,106,97,131.6,128.7,132v0.2V132
		c32.3-0.4,58.1-26.9,57.7-59.2C185.9,41.1,160.3,15.6,128.8,15.1 M128.7,132.5L128.7,132.5c-32.5-0.1-58.8-26.5-58.8-59
		c0.1-32.5,26.5-58.8,59-58.8c32.5,0.1,58.8,26.4,58.8,58.9c0.2,32.3-25.9,58.7-58.2,58.9C129.2,132.5,128.9,132.5,128.7,132.5"/>
	<path id="path6" class="st4" d="M181.5,73.6c0,29.2-23.6,52.8-52.8,52.8c-29.2,0-52.8-23.6-52.8-52.8c0-29.2,23.6-52.8,52.8-52.8
		c0,0,0,0,0,0C157.9,20.8,181.5,44.4,181.5,73.6"/>
	<path id="path8" class="st3" d="M128.8,21c-29.1,0-52.6,23.6-52.6,52.6s23.6,52.6,52.6,52.6v0.2v-0.2c29.1,0,52.6-23.6,52.6-52.6
		S157.8,21,128.8,21 M128.8,126.6L128.8,126.6c-29.3,0-53-23.7-53-53s23.7-53,53-53s53,23.7,53,53S158,126.6,128.8,126.6"/>
	<path id="path10" class="st5" d="M128.7,33.8c-22,0-39.8,17.8-39.8,39.7c0,22,17.8,39.8,39.7,39.8h0.1c22,0,39.8-17.8,39.8-39.8
		C168.5,51.6,150.7,33.8,128.7,33.8z M128.7,113.6L128.7,113.6c-22.2,0-40.1-17.9-40-40c0-22.1,17.9-40,40-40h0.1
		c22.1,0,40,17.9,40,40S150.9,113.6,128.7,113.6"/>
	<path id="path12" class="st2" d="M167,73.6c0,21.1-17,38.2-38.1,38.2s-38.2-17-38.2-38.1c0-21.1,17-38.2,38.1-38.2
		C149.9,35.5,167,52.5,167,73.6C167,73.6,167,73.6,167,73.6"/>
	<path id="path14" class="st6" d="M164.3,62c-2.7-8.3-11.5-12.8-19.8-10.2c0-8.8-7.1-15.8-15.9-15.8c-8.7,0-15.8,7.1-15.8,15.8
		C104.4,49.2,95.6,54,93,62.4c-2.5,8.1,2,16.8,10,19.6c-4.6,7.4-2.4,17.2,5.1,21.8c6.7,4.2,15.5,2.8,20.6-3.3c5.3,7,15.3,8.3,22.2,3
		c6.8-5.1,8.3-14.7,3.4-21.6C162.5,79,166.9,70.2,164.3,62"/>
	<path id="path16" class="st3" d="M129.4,38.4c0.2,0.6,0,5.6-0.1,7.6c0,0.6,0,3.2,0,4.1s-0.1,4.4-0.1,5.3c0.2-0.7,0.3-1.4,0.2-2.1
		c0.3,0.3,0.5,0.8,0.5,1.2c0.4-1.6,0.4-3.4,0-5c0.3,0.2,0.9,0.3,1,3.2c0.2-0.9,0.6-3.9-0.6-4.4c0.6,0.2,1,0.6,1.2,1.2
		c0.1-0.7,0.3-1.4,0.6-2.1c-0.1,0.9-0.1,1.8,0,2.7c0.2-1.6,0.9-3.1,1.9-4.3c-0.6,1.3-1,2.7-1.1,4.1c0.4-0.8,0.6-1.6,0.6-2.5
		c0,0,0.1,0.8,0.2,1.2c0.3-1.2,0.8-2.3,1.4-3.3c0.1-0.4,0.3-0.8,0.5-1.2c0,0.5-0.1,1-0.4,1.5c-0.2,0.5-0.6,2.2-0.7,2.7
		c0.5-1.2,1.9-3.7,2.9-4.3c-1,1.3-1.7,2.7-2,4.3c-2.4,2.1-4.3,4.7-5.5,7.6c-0.6,1.6-0.8,5.5-0.8,8.4c0,0,0.4-0.8,0.6-1.4
		c0-1.3-0.2-2.5-0.6-3.7c0.7,0.6,1.1,1.4,1.2,2.3c0-1.9-0.3-4.4-0.8-5.1c0.7,1,1,1.4,1.1,2c0.1-0.6,0.1-1.2-0.1-1.7
		c0.5,0.6,0.7,1.3,0.8,2.1c-0.1-1.6-0.2-3,0.7-4.4c-0.3,1.2-0.6,2.8-0.2,3.6c0.2,0.5,0.3,0.5,0.3-0.4c-0.1-1.7,0.4-3.4,1.3-4.8
		c-0.4,1.2-0.6,2.5-0.5,3.8c0.5-1.4,1.8-4.5,2.8-5.2c-0.7,1.4-1.3,2.8-1.8,4.3c0.4-0.4,0.6-0.9,0.9-1.4c0.5-1.5,1.5-2.8,2.7-3.8
		c-0.8,1.2-1.5,2.4-2.1,3.7c1.2-1.6,2.9-2.8,4.9-3.4c-1.5,1.1-2.9,2.3-4.3,3.6c1.4-0.4,2.3-0.8,3.5-0.3c-1.3,0.1-2.5,0.5-3.6,1.1
		c0.8-0.1,1.8-0.3,2.3,0.2c-1.4,0.1-2.8,0.5-4,1.2c0.9-0.2,2.2-0.8,2.8-0.2c-1.2,0.2-2.4,0.6-3.4,1.4c1-0.3,1.7-0.5,2.4-0.7
		c-1.2,0.6-2.3,1.3-3.4,2.2c1-0.6,2.2-1,3.5-1c-1.3,0.4-2.5,1-3.6,1.8c1.1-0.7,2.4-1,3.7-1c-1.1,0.3-3.8,1.4-4.9,2.9
		c0.7-0.5,1.6-0.7,2.5-0.6c-0.7,0.3-4.6,1.3-4.5,6.8c0.8-1.1,1.7-2.1,2.8-2.9c0.1-1.2,0.3-2.9,1-3.5c-0.2,0.9-0.3,1.8-0.2,2.7
		c0,0.3,0.3,0.2,0.3-0.3c0.1-1.5,0.6-2.9,1.4-4.2c-0.4,1.2-0.7,2.4-0.7,3.6c0,0.4,0.3,0.4,0.5-0.2c0,0,0.4-3,1.3-4
		c-0.2,1-0.4,2.1-0.4,3.2c0.1,0.4,0.5,0.1,0.6-0.7c0.3-1.6,1-3.1,2-4.3c-0.6,1.2-1,2.5-1.1,3.8c-0.1,0.4-0.3,0.9,0.4-0.2
		c0.4-2.1,1.7-4,3.4-5.3c-1,1.4-1.8,2.9-2.3,4.5c-0.3,0.9-0.1,0.8,0.6-0.4c0.5-1.2,2.6-4.6,3.7-5.2c-1,1.4-1.8,2.8-2.5,4.4
		c-0.2,0.5,0,0.5,0.6-0.4c0.6-1,1.7-3.8,4-4.8c-1.1,1.2-2,2.5-2.7,4c-0.2,0.6,0.3,0.2,0.3,0.2c0.3-0.4,0.6-0.7,0.9-1.1
		c0.6-0.8,2.3-3,4-3.7c-1.3,1.1-2.5,2.4-3.3,3.9c0.6-0.2,1.1-0.6,1.4-1.1c0.4-0.5,2.1-2.5,3.9-2.9c0,0-2.5,1.7-3.2,3.1
		c-0.6,0.4-0.8,0.8,0,0.3c0.6-0.3,1.1-0.7,1.5-1.2c0.3-0.3,2.2-2.1,4.2-2c-1.4,0.7-2.7,1.6-3.9,2.6c0.3,0,0.4-0.1,1-0.5
		s3-2.1,5.2-1.5c-0.7,0.1-1.3,0.3-2,0.5c-0.4,0.2-1.1,0.7-2,1.2c0,0,4.7-1.5,5.9-0.2c-1-0.3-2.1-0.2-3,0.2c1.2,0.1,5.4,0.5,6.8,2.4
		c-1.8-0.9-3.8-1.5-5.8-1.6c1.1,0.6,1.9,1.5,2.4,2.7c0,0-2.3-2.3-4.1-2.7c0.8,0.4,2.8,1.4,3.3,3.5c-0.5-0.6-2.5-2.9-4.7-3.4
		c1.7,0.9,3,2.4,3.6,4.1c-0.7-0.9-3-3.4-4.8-3.7c1.1,0.8,3,1.7,3.5,3.7c-0.5-0.5-1-1-1.3-1.5c-1.8-1.4-4.5-2.1-4.2-1.7
		c0,0,4.5,2.1,4.5,4.2c-0.4-0.6-0.7-1.2-1.2-1.7c-1.3-0.5-2.1-1.7-4.6-2c1.7,0.8,3.3,2,4.5,3.5c0,0-3.8-3.3-6.2-3
		c0,0,4.4,1.1,4.6,4.4c-0.3-0.6-2.4-3.8-5.6-3.7c2.1,0.6,3.1,1.2,4.1,2.9c0,0.5,0.1,1.8-0.4-0.4c-0.5,0.1-0.9-0.5-1.6-0.9
		c-1.2-0.7-2.5-0.9-3.8-0.7c1.2,0.4,3.8,1.2,4.4,2.8c0.4,0.3,0.8,0.7,0.9,1.3c-0.5-0.5-1-1-1.3-1.3c-0.5-0.3-0.9-0.6-1.3-0.9
		c-0.5-0.2-0.9-0.5-4.2-0.9c1.9,0.2,4.1,0.5,5.5,3.8c-0.6-0.8-3.6-4.1-7.3-2.7c2.2-0.1,4.3,0.9,5.7,2.6c0,0-2-1.8-6.6-1.9
		c0.4,0,0.8,0.2,1.2,0.4c0.6,0.1,3.2,0.2,4.7,2.4c-1.8-1.2-4-1.8-6.2-1.7c-0.4-0.1-0.9,0-1.3,0.2c1.8-0.2,3.6,0.4,5,1.6
		c-1.9-0.6-4-0.9-6-0.8c1.2,0.1,4,0.8,4.6,1.5c-0.7-0.2-1.3-0.4-2-0.6c-0.6-0.1-4.6-0.4-5.9,1.3c-0.8,0.9-1.4,1.9-1.8,3
		c0.8-0.9,1.8-1.6,3-1.8c0.6-0.3,2.4-0.9,1.9-2.2c0.3,0.2,1,1-0.3,2c0.4-0.1,0.8-0.3,1.1-0.5c0.8-0.6,1.8-1,2.7-1.2
		c-0.8,0.5-1.6,1-2.3,1.6c0.3,0,0.6-0.1,0.8-0.2c1.2-0.6,2.4-1,3.8-1.2c-1,0.4-2.2,1-2.8,1.3c-0.2,0.2-0.4,0.5,0.3,0.3
		s2.2-1.7,4.3-1.7c-1.1,0.4-2.1,1-2.9,1.7c-0.3,0.4,0.1,0.5,0.5,0.2c0.3-0.3,0.7-0.6,1.1-0.7c0.3-0.3,1-1.1,4.1-1
		c-1.4,0.4-2.8,0.9-4,1.7c-0.3,0.2-0.6,0.7,0.6,0.3c1.6-1.1,3.5-1.6,5.5-1.3c-1.6,0.2-3.1,0.7-4.4,1.5c-0.4,0.3,0,0.3,0.5,0.1
		c0,0,3.4-1.8,5.8-0.6c-0.7,0-3.6,0.2-4.9,1.1c0.8,0.1,1.5,0,2.2-0.2c1.3-0.4,2.7-0.4,4-0.1c-1.4,0-2.7,0.2-4,0.7
		c-0.3,0.2,0,0.3,0.4,0.2c1.7-0.4,3.5-0.3,5.1,0.3c-1.5-0.2-3-0.1-4.4,0.1c-0.4,0.2-0.1,0.5,0.6,0.4s3.2-0.7,5,0.5
		c-1.4-0.3-2.9-0.3-4.3,0.1c1.3,0.1,2.8,0,3.9,0.9c-1-0.2-1.9-0.3-2.9-0.2c1,0.3,3.1,0.1,4.7,1.8c-1.2-0.5-2.5-0.9-3.8-1.1
		c-0.4,0-0.1,0.4,0.5,0.5c1.5,0.1,2.9,0.7,3.9,1.8c-1-0.6-2.1-0.9-3.3-1.1c1.4,0.6,2.4,1,2.6,1.5c0.4,0.4,1.1,0.8,1.2,1.2
		c-0.8-0.7-1.7-1.2-2.7-1.6c1.4,1.3,2.4,3,2.8,4.8c-0.6-0.7-2.3-3.3-2.6-3.8c0.2,0.7,0.4,1.5,0.7,2.2c-0.5-0.7-1.6-3-2.4-3.7
		c0.3,1.1,0.7,2.2,1.2,3.3c-0.8-1.1-1.5-2.4-2.1-3.7c-0.2-0.3-0.4-0.6-0.7-0.9c0.7,1.2,1.1,2.5,1,3.9c-0.1-0.6-0.4-1.3-0.4-1.3
		c-0.3-0.5-0.6-1.1-0.8-1.7c-0.4-0.6-1-1.3-1.1-1.4c0,0.3,0.1,0.5,0.1,0.8c0.2,0.3,0.4,0.7,0.5,1.1c0.1,0.5,0.4,1.1,0.8,1.5
		c-1.1-1-1.9-2.2-2.4-3.6c-0.2-0.9-0.3-0.6-0.5-0.7c0.3,1.5,0.8,3,1.6,4.4c-1-1.1-1.7-2.4-2-3.8c-0.1-0.6-0.5-1-1-1.3
		c0.6,1,0.9,2.1,1,3.3c0.1,0.5,0.2,1.6,0.2,1.6c-0.4-1-1.5-4.9-2.9-5.5c0.9,0.9,1.1,2,1,5c0,0-0.6-4.9-3.3-5.9
		c1.2,1.2,1.9,2.9,1.7,4.6c-0.2-0.9-1.2-3.6-2.5-4.4c0.8,1,1.2,2.3,1,3.7c-0.1-0.7-0.8-3.4-2.4-3.9c0.9,0.8,1.3,1.9,1.3,3
		c-0.4-0.9-1.6-3.3-2.6-3.3c0.9,0.6,1.4,1.6,1.4,2.6c-0.5-0.8-1.8-2.5-2.7-2.7c0.8,0.5,1.4,1.4,1.6,2.4c-0.7-1.3-2-2.2-3.5-2.5
		c0.6,0.4,1.7,1.1,1.7,2.1c-0.5-0.7-2.7-2.8-4.8-1.8c-1,0.6-1.8,1.4-2.2,2.5c0,0.2,0,0.5,0,0.7c1.2-0.1,2.4,0.2,3.5,0.8
		c0.7,0.3,0.9,0.3,1.2,0c1.2-0.6,2.6-0.9,3.9-0.7c-1.2,0.1-2.3,0.5-3.3,1.2c-0.3,0.3,0,0.4,0.7,0.2c1.7-0.9,3.5-1.3,5.4-1.1
		c-1.1,0.3-4,0.9-4.6,1.6c-0.4,0.5-0.1,0.4,0.3,0.2c0.6-0.2,1.1-0.5,1.6-0.8c-0.4,0.4-0.8,0.9-1.3,1.2c1.2-0.5,3.4-2,5.5-1.4
		c-1.6,0.2-3.2,0.8-4.5,1.8c-0.3,0.3-0.3,0.6,0.6,0.1c0.8-0.5,3.4-1.3,5.4-0.1c-1.7-0.3-3.4-0.1-4.9,0.8c-0.4,0.3,0.1,0.3,0.5,0.2
		c0.6-0.2,3.8-0.8,5.8,0.2c-1-0.1-4.2-0.1-4.9,0.5c-0.4,0.4,0,0.4,0.5,0.3c0.5-0.1,3.5-0.9,5.3,0.7c-1-0.4-3-0.9-4.5-0.1
		c-0.4,0.2,0.1,0.2,0.3,0.2c2.1-0.2,4.2,0.4,5.9,1.7c-1.5-0.7-3.2-1-4.9-0.9c-0.4,0.1-0.2,0.4,0.3,0.4c0.8,0.1,4.3,0.2,5.7,1.7
		c-1.4-0.6-2.8-0.9-4.3-0.9c-0.9,0-0.6,0.2-0.1,0.3c0.7,0,1.3,0.2,1.9,0.4c-0.5,0.1-1,0.1-1.5,0.1c-0.2,0-0.1,0.3,0.3,0.3
		c1.8-0.2,3.6,0.4,5,1.4c-1.3-0.5-2.7-0.8-4.1-0.8c1.5,0.5,3,1.3,4.3,2.3c-1.2-0.6-2.5-1-3.8-1.2c0.3,0.3,0.6,0.5,1,0.7
		c0.5,0.1,3,1.1,3.9,2.8c-0.9-0.8-1.9-1.4-3-1.8c-0.6,0,0,0.2,0.3,0.4c0.9,0.4,1.7,1,2.3,1.8c0.3,0.4,0.6,0.8,1,1.1
		c-0.5-0.3-0.9-0.6-1.2-1c-0.5-0.4-1.1-0.7-1.7-0.9c0.4,0.5,0.9,0.9,1.5,1.2c0.9,0.6,1.6,1.5,2,2.6c-0.6-0.7-1.3-1.4-2.1-1.9
		c0,0.3,0.2,0.5,0.4,0.7c0.7,0.7,1.2,1.6,1.5,2.6c-0.2-0.4-0.4-0.7-0.8-1c-0.3-0.2-0.5-0.7-0.8-0.9c0.5,1.2,0.4,2.5-0.3,3.5
		c0.1-1,0.1-2-0.2-3c0,0.6-0.4,1.2-0.9,1.4c0.5-0.9,0.6-2,0.2-2.9c0,0.9-0.4,1.8-1.1,2.4c0.6-1.2,0.6-2.6,0.1-3.8
		c0,0.5-0.1,1.1-0.4,1.5c0,0.3-0.1,1.1-0.7,1.2c0.7-1.5,0.5-3.4-0.6-4.7c0.1,0.7,0.5,2.8-0.7,3.8c0.2-0.8,0.4-3.6-0.2-4.3
		c0.5,1.6-0.3,3.4-1.8,4.2c1.5-1.7,1.6-4.2,0.2-6c0,0,0,2.4-0.6,3.2c0-1,0.2-3.7-1-4.7c0.2,1.1,0.5,3.6-0.7,5c0.2-1,0.6-4.2-0.6-5.7
		c0.2,1.3,0,2.7-0.4,4c0.1-1,0.2-3.8-1-5.1c0.3,1.1,0.8,3.1-0.2,4.5c0.1-1.9-0.4-3.8-1.4-5.4c0.4,1.4,0.3,3-0.3,4.3
		c0-1.2-0.1-4.9-1.9-5.9c0.5,1.1,1.6,3.2,0.9,5.4c-0.3-2.2-1.1-4.2-2.3-6c0.8,1.5,0.8,3.3,0,4.8c0.2-1.2-0.3-4.5-1.7-5.8
		c0.2,0.7,0.4,1.5,0.4,2.2c0.1,0.5,0.3,1.1,0.5,1.6c-0.7-1.3-1.3-2.7-1.7-4.1c-0.2-0.3-0.5-0.6-0.8-0.8c-0.8-0.5-1.7-0.6-2.6-0.4
		c0,2.3,0.3,4.7,0.8,7c0.7,2.7,0.8,5.6,0.2,8.3c-0.1,1.1-0.1,2.2,0.2,3.2c-0.2,1.1-0.2,2.3,0.1,3.3c-0.2,1.2-0.2,2.4,0.1,3.5
		c0,0-0.1,2.7,0.9,3.9c0,0-0.1,0.1-0.3,0c-0.4-0.4-0.7-0.8-0.9-1.3c-0.6,0.3-1.6-1.2-2.1-1.7c0.6,0,1.2-0.1,1.8-0.3
		c0.2-0.1,0.1-0.4,0-0.3c-1.3,0.4-2.7,0.4-4,0.1c0.1,1.2-0.2,2.4-0.9,3.4c-0.2,0.2-0.6,0.2-0.4,0c0.2-0.3,0.7-1,0.5-3.7
		c0.3-1.2,0.3-2.4,0-3.5c0.3-1.1,0.3-2.2,0.1-3.3c0.3-1.1,0.3-2.2,0.1-3.2c-0.7-2.7-0.7-5.6-0.1-8.3c0.4-1.9,0.7-3.8,0.7-5.7
		c-0.3,0.2-0.5,0.5-0.8,0.8c0.2,1.3-0.2,2.6-1.1,3.6c0.3-1,0.5-2,0.5-3c-0.1-0.3-0.4-0.1-0.6,0.3c-0.3,1.5-0.2,3,0.2,4.4
		c-0.4-0.3-1.1-1.3-1-3.7c-0.1-0.3-0.3,0.1-0.3,0.5c-0.1,1,0,1.9,0.3,2.8c0.3,0.6,0.3,1.2,0.1,1.8c-0.1-0.7-0.4-1.3-0.7-1.9
		c-0.4-0.6-0.5-1.4-0.5-2.1c-0.2,0.8-0.2,1.6,0,2.4c0.4,0.9,0.4,2,0,2.9c0-0.7-0.2-1.4-0.4-2.1c-0.2-0.6-0.4-1.2-0.5-1.9
		c0,1.5,0.2,2.9,0.4,4.3c-0.6-0.8-0.9-1.8-1-2.8c0-0.4-0.1-1.1-0.3-0.5c-0.1,1.7,0.1,3.5,0.6,5.1c-0.4-0.5-1.1-1.4-1.2-3.8
		c-0.1-0.3-0.1-0.2-0.2,0.3c0,1.7,0.1,3.5,0.5,5.2c-0.7-1.4-1.1-2.9-1.1-4.5c0-0.5-0.2,0.1-0.2,0.5c0,1.1,0,2.2-0.1,3.3
		c-0.1,0.4-0.1,0.9,0,1.3c-0.5-1.1-0.7-2.4-0.6-3.6c-0.2,0.4-0.6,1.7-0.1,4.8c-0.6-0.9-0.9-2-0.7-3.1c-0.2,1.4-0.3,2.8-0.3,4.2
		c-0.4-1.8-0.8-2.9,0.2-5.1c2.2-4.3,5.3-8.2,9-11.3c0-0.5,0-1.2-1.4-0.9c-1.2,0.4-2.3,1-3.2,1.8c0,0-0.7,2.2-1.1,3.6
		c0.2-1.1,0.2-2.1,0.2-3.2c-0.4,1.1-0.7,2.2-0.8,3.4c0,0.4-0.1,0.9-0.3,1.3c0-0.5,0-0.9-0.1-1.4c-0.1-0.7-0.1-1.4-0.1-2.2
		c-0.6,1.5-0.9,3.2-0.8,4.8c-0.6-1.3-0.7-2.7-0.3-4.1c-0.4,0.4-1.3,1.2-0.9,6.3c-0.3-0.4-1.2-1.6-0.9-4.8c-0.5,1.8-0.6,3.7-0.6,5.6
		c-0.7-1.6-0.8-3.4-0.4-5.2c-0.3,0.3-0.9,1.2-0.6,4.4c0.1,0.5,0.2,1.1,0.1,1.6c-0.6-1.6-0.9-3.3-0.8-5c-0.7,2.3-0.8,4.7-0.1,7
		c-1-1.7-1.3-3.6-1.1-5.6c-0.2,0-0.2,0.2-0.2,0.6s-0.1,4.3-2.4,5.7c0.1-0.3,1.4-1.3,1.5-5.6c-0.3,0.4-1.7,1.9-0.4,6.4
		c0,0-1.1-0.9-1.2-4.7c-0.2,0.3-0.3,0.6-0.3,0.9c0.1,1.9-0.5,3.7-1.6,5.2c0.7-1.5,1.1-3.2,0.9-4.8c-0.8,1.5-1.4,3-1.7,4.7
		c-0.1,1-0.5,2-1,2.8c0.1-0.9,0.5-3.4,0.6-4.3c-0.5,1.4-1.3,4.5-3,6c0.7-1,1.2-2.1,1.5-3.2c0.1-0.7,0.6-1.9,0.7-2.3
		c-0.8,1-1.6,2-2.4,3.1c0.7-1.7,1.6-3.3,2.8-4.7c-1,0.7-1.9,1.5-2.7,2.4c1-1.4,2.1-2.6,3.3-3.6c-1,0.3-1.9,0.9-2.7,1.7
		c0.7-1,1.6-1.9,2.7-2.5c0.4-0.2,0.7-0.5,1-0.8c-1.6,0.5-3.1,1.3-4.4,2.4c1.2-1.7,3-2.9,5-3.3c-1.5,0.4-3.1-0.1-4.2-1.1
		c1,0.5,3.7,1,5.3-0.1c-1.5,0.3-3,0.9-4.2,1.9c1.4-1.5,3.2-2.6,5.2-3.1c-1.4,0.2-2.8,0.6-4.1,1c1.5-0.7,3.1-1.3,4.8-1.6
		c0.6-0.1,0.3-0.3,0.5-0.4c0,0-3.5,0-4.8,0.9c1.5-1.2,3.5-1.9,5.5-1.8c-1.4-0.2-2.7,0-4,0.5c1.7-1.1,3.6-1.6,5.6-1.5
		c-0.3-0.1-0.6-0.2-0.7-0.3c0.5,0,1-0.2,1.5-0.4c-1.3-0.2-2.7-0.1-4,0.4c1.1-0.8,2.4-1.3,3.7-1.3c-0.5-0.2-0.8-0.7-0.9-1.2
		c1,0.9,2.5,1,3.7,0.4c-0.7,0-2.2,0-2.4,0.1c1-0.4,2-0.7,3-0.9c0.4-0.1,0.7-0.2,0.7-0.3c-0.9,0.1-1.9,0.2-2.8,0.4
		c1.1-0.8,2.5-1.2,3.8-1.1c0.3,0,0.6-0.1,0.8-0.2c0.9-0.6,1.8-1.1,2.7-1.6c0.7-0.3,1.4-0.4,2.1-0.3c-0.7-1.8-2.6-2.9-4.5-2.6
		c0.8-0.9,3.4-0.3,4.4,1.1c-0.1-0.5-0.2-1.1-0.3-1.6c-1-0.7-2.2-1-3.4-0.8c-1,0.2-2,1.8-2.6,3.7c0.1-1.2,0.4-2.3,0.9-3.3
		c-0.9,0.5-2.4,1.8-2.8,5.3c-0.6-1.5-0.4-3.3,0.5-4.6c-0.8,0.8-1.8,1.2-2.7,5.6c-0.2-1.8,0.2-3.5,1-5.1c-0.9,0.5-1.8,1.3-1.8,5.4
		c-0.6-1.4-0.7-3-0.2-4.4c-0.6,0.7-0.9,1.5-1,2.4c-0.2,1.1-0.6,2.2-1,3.2c0.1-1.2,0.3-3,0.3-3.5c0-0.5,0.1-1,0.2-1.4
		c-1.6,1.7-2.3,4.1-1.8,6.4c-0.7-1.4-0.8-2.9-0.4-4.4c-0.5,1.2-1.3,3.8-1.3,3.8c0.1-1.3,0.3-3.7,0.8-4.8c-0.7,0.7-1.6,2.4-1.9,5.8
		c-0.3-0.9-0.5-2,0.3-4.8c-0.7,1-1.6,2.1-1.9,6.7c-0.5-1.5-0.8-2.8,0.4-5.8c-0.6,0.8-1.1,1.8-1.3,2.8c-0.2,1.7-0.5,3.4-1,5
		c-0.1-2,0-4,0.4-6c-0.9,2-1.4,4.2-1.6,6.4c-0.3-1.2-0.7-2.8,0.7-6c-0.8,1.5-1.4,3.1-1.8,4.7c-0.1-0.6-0.2-1.2-0.2-1.8
		c0,0-0.7,1.2-1.2,2.2l-0.3-0.1c0.1-1.1,0.6-2.2,1.3-3.1c-1,0.7-2,1.4-3,2.2l-0.1-0.1c1-1.4,2.3-2.6,3.8-3.5c-1,0.4-2.1,0.7-3.2,0.8
		c0.6-0.3,3.3-1.7,3.7-1.9c-1.2,0.1-2.4,0.5-3.4,1c1.3-1,2.9-1.7,4.6-2c-1.8,0.1-3.5,0.4-5.2,1.1c1.8-1.2,4-2,6.2-2.2
		c0.3,0,0.5-0.1,0-0.1c-0.7,0-1.5,0.1-2.2,0.2c1-0.4,2-0.8,3-1c-1.6-0.1-3.2,0-4.8,0.2c2-0.8,4.1-1.1,6.2-1c0.4-0.1,0.8-0.2,0.2-0.2
		c-0.9,0-1.7,0-2.6-0.1c0.9-0.3,1.9-0.4,2.9-0.4c0.3,0,0.4-0.1-0.1-0.2s-3.5,0.1-4.8,0c1.9-0.5,3.8-0.7,5.7-0.7
		c-1.5-0.3-3.1-0.5-4.7-0.4c1.9-0.6,4-0.6,6-0.1c1,0.1,1.4-0.2,0.3-0.5c-0.4-0.1-4-0.7-4.8-0.7c2-0.3,4.1-0.2,6.1,0.3
		c0.3,0.1,0.8,0.1,0.2-0.2c-1.4-0.6-2.9-1-4.4-1.1c2-0.3,4-0.1,5.8,0.7c0.2,0.2,0.9,0,0.3-0.3c-1.1-0.4-2.1-1.1-2.8-2
		c1.5,1,3.2,1.6,5,1.8c-0.6-0.2-2.1-0.9-2.3-2.1c0.4,0.5,1.6,1.8,4.8,1.6c0.3,0,0.6-0.1,0-0.2c-0.9-0.3-1.9-0.5-2.9-0.6
		c1.5-0.2,3-0.1,4.4,0.4c-0.3-0.3-0.6-0.5-1-0.6c0.9-0.1,1.9,0.2,2.7,0.8c1.1-0.1,2.1,0,3.2,0.3c-0.6-0.8-1.3-1.5-2.2-2
		c-1.5-0.4-3.1,0.2-4,1.5c0.2-1.1,1-1.9,2-2.2c-0.8,0.1,0,0,0,0c-1.6,0.2-3.1,1-4.2,2.2c0.7-1.4,1.9-2.4,3.3-2.9
		c-2,0.2-3.8,1.2-5.2,2.7c0.6-1.5,1.8-2.7,3.4-3.3c-1.2,0.2-2.2,0.9-3,1.8c-0.5,0.9-1.4,1.5-2.4,1.6c0.7-0.5,1.3-1.1,1.7-1.9
		c0.6-0.8,1.3-1.6,2.2-2.1c-0.7,0.2-2.5,0.6-4.5,3.6c0.3-1.7,1.4-3.2,3-4c0,0,0.4-0.3-0.2-0.1c-1.8,0.9-3.2,2.4-3.9,4.3
		c0.1-1.7,0.9-3.4,2.2-4.5c-1.8,0.9-3.2,2.4-4,4.2c0.2-2,1.3-3.7,3.1-4.6c-0.6,0.3-2.4,0.8-4.7,4.4c0.7-1.7,1.8-3.3,3.1-4.5
		c0,0,0.5-0.4-0.2-0.1c-0.4,0.2-2.3,1-4.2,4.7c0.1-0.9,1-4.1,2.9-5.1c-2,0.9-3.5,2.6-4.2,4.7c0.2-1.8,1.1-3.4,2.3-4.6
		c0.2-0.2,0.1-0.3-0.3,0c-1.7,0.9-3,2.4-3.7,4.2c-0.1-0.4-0.1-0.9,0-1.3c0.6-1.2,1.4-2.2,2.3-3.1c0.1,0,0.1-0.1-0.3,0
		c-2,1.2-3.5,3-4.3,5.2c0.3-1.4,0.8-2.7,1.6-3.8c0.1-0.2,0.4-0.5,0.6-0.8c0.3-0.3,0.6-0.6,1-0.8c0-0.1-0.1-0.3-0.7,0.1
		c-1.4,0.9-2.4,2.3-2.9,3.9c0-1.3,0.4-2.5,1.2-3.5c-1.4,1.2-2.6,2.6-3.5,4.1c0.3-1.3,0.9-2.6,1.8-3.6c-2,1-3.7,2.6-4.6,4.7
		c0.4-1.8,1.4-3.5,2.7-4.8c-0.6,0.2-3.3,1.7-3.9,2c1.4-1.5,3.3-2.6,5.3-3.1c-0.7-0.1-2.1-0.1-3.4-0.1c0.5-0.2,1.6-0.5,5.3-0.4
		c0,0-0.6-0.5-3.6-0.6c1.7-0.5,3.4-0.4,5.1,0.2c0.2,0.1,1,0.3,0.5-0.1c-1.3-0.6-2.6-1-4.1-1.3c2.1-0.2,4.2,0.2,6,1.2
		c0.3,0.2,1.5,0.4,0.7,0c-1.5-0.9-3.2-1.6-5-2c2.3-0.1,4.6,0.6,6.4,2c0.3,0.2,0.4,0.1,0.2-0.1c-1.1-1.1-2.3-2-3.8-2.6
		c1.8,0.2,3.5,1.1,4.7,2.4c0.3,0.3,1.8,1.2,1.3,0.4c-1-1.3-2.2-2.4-3.5-3.4c1.9,0.7,3.6,1.9,4.8,3.5c0.3,0.4,0.7,0.6,0.7,0.2
		c-0.7-1.5-2.2-2.5-3.9-2.6c0.4-0.1,3.2-0.8,4.8,2.6c0.2,0.5,0.8,1,0.8,0.3c-0.1-0.4-1-3.2-2.6-4.5c0,0,2.2,0.7,3.3,4
		c0.2,0.7,0.8,1.3,1.5,1.5c-1.2-1.3-2.1-2.9-2.3-4.6c1,1.8,2.3,3.4,3.7,4.8c0.2,0.3,0.3,0.2,0.2-0.1c-0.5-0.8-1.1-1.6-1.7-2.3
		c-0.5-0.4-0.9-0.9-1.2-1.4c0.3,0.3,0.6,0.5,1,0.7c1.3,1.1,2.4,2.3,3.3,3.7c-0.4-1.2-0.4-2.5-0.1-3.8c0,1,0.8,4.1,2,5.1
		c-0.4-1-0.6-2.1-0.4-3.2c0.2,1,0.6,3,1.7,3.9c-0.4-1-0.5-2.1-0.1-3.1c0.1,0.7,0.2,2.8,1.2,3.7c0.7,0.6,1.4,1.2,2.1,1.8
		c-0.7-1-0.9-2.2-0.6-3.3c0,0,0.8,3.1,2.4,4.3c0-0.7,0.1-3.3-0.7-3.4c-0.9-0.2-1.8-0.6-2.6-1.2c0.5,0.1,2.1,0.2,2.3,0.3
		c-0.7-0.5-1.4-0.5-1.9-0.8c-0.5-0.2-1.1-0.4-1.7-0.5c1-0.3,2.1-0.4,3.1-0.1c-1.3-0.8-2.7-1.2-4.2-1.2c1.1-0.4,2.4-0.4,3.5,0.1
		c-0.9-0.5-1.8-0.8-2.8-0.8c-0.9,0-1.8-0.1-2.6-0.5c1.1,0,4.2-0.1,5.2,0.3c-1.1-0.8-2.2-1.3-6.1-0.9c1.4-0.8,3.1-1,4.6-0.5
		c0.3,0.1,0.4-0.1,0-0.3c-1.9-0.6-4-0.7-5.9-0.1c0.5-0.4,1.9-1.4,4.8-1c-1.9-0.5-3.8-0.6-5.7-0.4c1.7-0.8,3.6-0.9,5.5-0.4
		c-2.1-1-4.5-1-6.7-0.1c0,0,2.7-2,5.1-1.2c-1.6-0.5-3.4-0.5-5.1,0c1.2-0.7,2.5-1.1,3.9-1c-1.6-0.3-3.2-0.1-4.7,0.5
		c1-0.8,2.3-1.3,3.6-1.3c-2-0.5-4.1-0.4-6.1,0.3c1-0.8,2.1-1.3,3.4-1.5c-1.6-0.1-3.2,0.1-4.8,0.5c0.9-0.6,1.9-1,2.9-1
		c0,0-0.7,0-1.6,0h-0.3c-0.9,0.1-1.8,0.3-2.7,0.7c0.6-0.4,1.2-0.6,1.9-0.8c0.2,0,0.5,0.1,0.8,0.2h0.3c0-0.1,0-0.3,0-0.4
		c2.4-0.3,4.8,0.3,6.8,1.6c-0.9-1.4-2.1-2.6-3.5-3.5c2,0.7,3.7,2.1,4.8,4c-0.4-1.4-1.2-2.6-2.2-3.6c1.6,1.1,2.8,2.6,3.5,4.4
		c-0.2-1.5-0.9-3-1.9-4.1c0.6,0.4,2.2,1.6,3,5.1c-0.1-1.3-0.4-2.7-1-3.9c1.1,1.3,1.7,2.9,1.8,4.5c0,0.4,0.3,1,0.3,0.2
		s-0.2-3.3-0.8-4.2c1.1,1.5,1.7,3.3,1.7,5.2c0,0,0.2,1.6,0.4,0.4c0.1-1.3,0-2.7-0.5-3.9c0.4,0.5,1.4,1.9,1.3,5.3
		c0,0.3,0.1,0.6,0.2,0.9c0.1,0.2,0.3,0.7,0.3-0.2c0.1-0.9,0-1.9-0.3-2.8c0.3,0.3,1.1,1.3,0.8,3.9c0,0.4,0,1,0.2,0.7
		c0.2-0.3,0.3-0.7,0.3-1c-0.1-0.8-0.5-7.9-4.8-12c-0.5-1.7-1.7-3.2-3.3-4c1.5,0.4,2.8,1.4,3.6,2.7c-0.4-1.1-0.9-2.2-1.6-3.2
		c1.4,1.4,2.4,3.1,2.9,5c0.1,0.5,0.4,1.1,0.3,0.4c-0.2-1.3-0.5-2.5-1-3.7c1,1.7,1.7,3.6,2,5.6c0.1,0.4,0.2,0.5,0.2-0.1
		c0.1-1.1,0-2.2-0.4-3.2c0.4,0.7,1.2,1.1,1,4.8c0,0.5,0.1,1,0.2,0.4c0.2-1,0.3-2.1,0.2-3.1c0.4,1.4,0.6,2.9,0.3,4.3
		c-0.1,0.7,0,1.4,0.2,2c0.2-1.3,0.2-2.7,0-4c0.3,0.5,0.5,1.1,0.6,1.7c0-1,0-12.8,0.9-15.3"/>
	<path id="path18" class="st4" d="M127,89.6c1,0.3,2.1,0.2,3.1-0.2c0.2,0,0.2,0.1,0.1,0.2c-0.6,0.2-1.2,0.4-1.8,0.4
		c0.1,0.7,0.1,1.3,0.1,2c0.6,0,1.2-0.1,1.8-0.3c0.1-0.1,0.2,0.1,0.1,0.2c-1.1,0.5-2.4,0.5-3.5,0.2C127.1,91.3,127.1,90.4,127,89.6"
		/>
	<path id="path20" class="st7" d="M127.6,71.2c0.3,5.9-0.2,7.4-0.8,12.2c-0.2,2.2,0.1,4.5,0.8,4.8s0.9-0.4,0.7-1
		c-0.7-3.2,0-5.1,0-10.2c0.1-6.9,0.5-17.3,0.5-18c0-0.7,0.1-2.5,0.1-2.8c-0.2,0.5-0.4-0.1-0.5-0.6c0,0.9,0,1.2,0.1,2.4
		c-0.1-0.4-0.2-0.8-0.4-1.2c0.3,1.1,0.4,2.3,0.4,3.4c0,0.8-0.1,1.5-0.2,2.2c-0.1,0.1-0.6-0.5-0.8-1.1c-1.7-3.1-4-5.8-6.8-8
		c2.7,2.4,5,5.2,6.7,8.3c0.5,1.3,1,1.4,1.2,6c-0.1,1.6-0.6,1.6-1.3,0.3c-2.6-3.6-13.3-10-25.5-7.4c8.8-1.4,18.4,0.9,24.3,6.5
		C126.9,68.3,127.5,69.7,127.6,71.2"/>
	<path id="path22" class="st7" d="M125.7,67.8c-2.3-1.3-12.4-0.4-22,9.5c8.2-8,18.7-11.1,22.2-9.1C125.8,68.1,125.8,67.9,125.7,67.8
		"/>
	<path id="path24" class="st8" d="M126.7,72.2c-1.5-0.8-3.8,0.7-11.4,6.6c0,0-4.7,3.7-6.9,7.4c3.4-4.7,7.1-7.2,10.8-10
		c1.5-1.1,6.3-5,7.5-3.5C126.7,72.5,126.7,72.3,126.7,72.2"/>
	<path id="path26" class="st8" d="M129.2,65.3c1.2-2.8,3.6-8.8,6.8-11c0,0-3.7,2.5-6.8,12C129.2,65.8,129.2,65.3,129.2,65.3"/>
	<path id="path28" class="st7" d="M129.4,68.6c1.9-3,8.9-7.4,12.9-9.7c3.1-1.7,6.6-2.7,10.1-2.9c-3.2,0.3-6.4,1.2-9.3,2.6
		c-4.1,2.3-12.7,7.5-13.7,10.8"/>
	<path id="path30" class="st7" d="M129.8,70.2c0.6-0.8,2-2.2,5.9-2.1c3,0.2,11.3,1.3,16.7,6.4c-3.6-2.9-7.8-4.8-12.3-5.6
		c-2.5-0.4-8.4-1.7-10.4,1.9C129.8,70.6,129.8,70.4,129.8,70.2"/>
	<path id="path32" class="st7" d="M129.7,72.5c2.8-0.4,9.4,4.1,13,7.1c3.3,2.4,6.2,5.4,8.3,8.9c-2.5-3.6-5.6-6.8-9.2-9.3
		c-1-0.8-9.5-7.3-12.1-6.2C129.8,72.8,129.8,72.7,129.7,72.5"/>
	<path id="path34" class="st7" d="M127,92.6c1.1,0.2,2.2,0.2,3.3-0.2c0.1-0.1,0.2,0.1,0.2,0.2c-0.6,0.2-1.3,0.4-1.9,0.4
		c0.1,0.7,0.1,1.4,0,2.1c0.6,0,1.3-0.1,1.9-0.3c0.1-0.1,0.2,0.1,0.1,0.2c-1.2,0.5-2.5,0.6-3.7,0.3C127.1,94.4,127.1,93.5,127,92.6"
		/>
	<path id="path36" class="st7" d="M126.8,95.8c0.2,1,0.2,2,0,3c1.3,0.2,2.6,0.2,3.8-0.2c0.2-0.1,0.1-0.4-0.1-0.3
		c-0.6,0.2-1.3,0.3-2,0.3c0.1-0.7,0.1-1.5,0-2.2c0.7,0,1.4-0.2,2-0.4c0.2-0.1,0.1-0.3-0.1-0.3C129.3,96,128,96.1,126.8,95.8"/>
	<path id="path38" d="M89.5,58.5c0-0.1,0-0.2-0.1-0.3L88.7,58l-1.6,3.8l-0.8-0.3l1.5-3.8l-0.5-0.2l0.3-0.4l-0.3-0.9l-1.3,3.1
		l-0.8-0.3l1.6-4c0.2-0.1,0.4-0.2,0.6-0.1l0.1,0.1c0.1,0,0.1,0.1,0.1,0.2l0.4,1.7l1.4-3.5l0.8,0.3l-1.4,3.5l0.9,0.4
		c0.3,0.2,0.4,0.4,0.5,0.7l-0.5,1.3h-0.4c-0.1,0-0.2,0-0.3,0c0,0-0.1-0.1-0.1-0.1c0,0,0,0,0,0L89.5,58.5z M85.7,55.5L85,55.9
		l0.2,0.8L85.7,55.5z M82.7,54.4l0.9-0.5l0.3,0.5L83,55l0.3,1.1l-0.5,0.3l-0.3-1.1l-0.7,0.5L81.7,56l-0.4-0.6l0.9-0.7L81.8,54
		l0.6-0.4L82.7,54.4z M85.8,55.4l0.7-1.8L86,53.4l-0.5,1.3l-0.6-0.3l0.5-1.3l-0.5-0.2l-0.5,1.2l-0.7-0.3l0.5-1.3l-0.6-0.2L83,53.7
		l-0.7-0.3l0.9-2.2l3.6,1.5l0.3-0.7l1.9,0.8l-0.4,0.9l-1.2-0.5L84.8,60l1.2,0.5l-0.4,1l-1.9-0.8l0.3-0.8l-3.5-1.4l0.9-2.2l0.7,0.3
		l-0.5,1.3l0.4,0.2l0.6-1.4l0.7,0.3l-0.6,1.4l0.6,0.2l0.6-1.4l0.7,0.3l-0.6,1.4l0.5,0.2l0.7-1.8h-0.4l-0.2-0.9l-0.7,0.5l-0.3-0.5
		l0.7-0.6l-0.3-0.9l0.6-0.2l0.2,0.7l0.7-0.5L85.8,55.4z"/>
	<path id="path40" d="M98.3,36.8l3.1-2.6l0.6,0.7L99,37.4c0.8,0.6,1.6,1,2.5,1.3c1.2,0.3,2.4,0.3,3.5,0h0.1l0,0v0
		c0,0.2,0,0.3-0.1,0.4c0,0.2,0,0.3-0.1,0.5l-0.1,0.1c-0.5,0.1-1,0.1-1.5,0.1c-0.5,0-1,0-1.5-0.1c-0.9-0.2-1.8-0.6-2.6-1.1
		c0.3,1,0.5,2.1,0.4,3.2c-0.1,1-0.4,1.9-0.7,2.8v0.1c0,0,0,0-0.1,0c-0.3-0.1-0.5-0.1-0.8-0.1l0,0v-0.1c0.2-0.5,0.4-1.1,0.5-1.6
		c0.1-0.5,0.2-1,0.2-1.5c0-1.1-0.3-2.3-0.9-3.3l-3,2.5l-0.6-0.7l3.1-2.6l-1.9-2.2l0.8-0.5c0.2-0.1,0.3-0.1,0.3,0s0,0.2,0,0.3
		L98.3,36.8z"/>
	<path id="path42" d="M119.7,28l0.1,0.2l0.4-0.1V28L119.7,28z M118.8,27.6l2-0.4l0.3,1.5l-1.9,0.4L118.8,27.6z M118.8,26.9l1.7-0.4
		l0.1,0.6l-1.7,0.4L118.8,26.9z M118.6,26.1l1.7-0.4l0.1,0.6l-1.7,0.4L118.6,26.1z M118.1,24.4l1.9-0.4l0.2,0.7l-2,0.4L118.1,24.4z
		 M118.2,26l-0.2-0.7l2.2-0.5l0.1,0.4l0.2-0.4l0.2,0.1l0.2-0.7l0.2-0.5l0.7,0.2c0.1,0,0.2,0.1,0.2,0.1s-0.1,0.1-0.2,0.2l-0.4,1
		l0.2,0.1l0.4-0.9l0.7,0.3l0.1,0.1v0.1c0,0.1-0.1,0.1-0.3,0.2c-0.2,0.3-0.3,0.7-0.4,1.1l0.3-0.1l-0.1-0.3l0.6-0.4l0.7,1.2l-0.6,0.3
		l-0.1-0.2l-0.1-0.2l-0.3,0.1l0.1,0.5l0.5-0.2l0.7,1.2l-0.6,0.3l-0.2-0.3l-0.3-0.6l0.2,1l-0.7,0.2l-0.2-0.9c0,0.2,0,0.3,0,0.5
		c0,0.2-0.1,0.3-0.1,0.5l-0.7-0.1c0-0.2,0.1-0.4,0.1-0.6c0-0.2,0-0.4,0.1-0.6l0.6,0.1l-0.1-0.6l-0.5,0.1c0,0.1-0.1,0.2-0.2,0.2
		c-0.1,0-0.1,0-0.2-0.1l-0.3-0.6l0.7-0.2l0.1-0.4l-0.5-0.2l-0.5-0.1L118.2,26z M118.3,32.9h-0.9l0.2-2.3l4.8-1.1v-0.2l-5,1.1
		l-0.2-0.8l5.9-1.3l0.4,1.7l-5,1.1v0.3l4.8-1.1c0.4-0.1,0.7,0,0.7,0.2c0,0.1,0,0.2,0,0.3l-0.2,0.5l-0.2,0.5
		c-0.3,0.5-0.7,0.8-1.2,0.9l-1.2,0.3c-0.1,0-0.2,0-0.2-0.2l-0.3-0.5l0,0v0h0.1h0.1l1.2-0.3l0,0c0.3-0.1,0.5-0.3,0.6-0.6v-0.1
		l0.1-0.2l-4.4,1L118.3,32.9z M117,28.5l0.1,0.1c0,0.1,0,0.1-0.1,0.2l-0.1,0.6c0,0.1,0,0.1,0,0.3s0,0.2-0.1,0.3l-0.7-0.2l0.3-1.4
		L117,28.5z M117.4,24.9c0.1,0,0.1,0.1,0.2,0.2c0,0.1-0.1,0.1-0.2,0.2l0,0l-0.4,0.9l0.2,0.1l0.2-0.4l0.2-0.4l0.6,0.3
		c0,0,0.1,0.1,0.1,0.1c0,0.1,0,0.1-0.2,0.2l-0.3,0.6l-0.2,0.5l0.3-0.2v-0.1l-0.1-0.1l0.5-0.4l0.3,0.5l0.3,0.5l-0.6,0.3l-0.2-0.3
		l-0.3,0.1l0.1,0.5l0.5-0.3c0.2,0.4,0.4,0.7,0.6,1.1l-0.6,0.4l-0.5-1l0.2,1l-0.7,0.1l-0.4-1.6l-0.6,0.2c0,0.1-0.1,0.2-0.2,0.2
		s-0.1,0-0.2-0.2l-0.3-0.6l0.7-0.2l0.1-0.3l0.1-0.3c-0.3-0.2-0.7-0.4-1-0.6l0.4-0.7l0.2,0.1l0.5-1.1L117.4,24.9z M116.4,30.2V31
		c0,0.3,0,0.5,0,0.9c0,0.6-0.1,1.2-0.1,1.7l0.1,0.2c0,0.2,0,0.3-0.1,0.3c-0.1,0-0.3,0-0.4-0.1l-0.6-0.4c0.1-0.5,0.2-1.2,0.3-2
		c0-0.2,0-0.5,0.1-1s0.1-0.8,0.1-1L116.4,30.2z M114.2,27.5l0.5,0.1l0.5,0.2c0.2,0.1,0.5,0.2,0.7,0.3l-0.3,0.8
		c-0.5-0.3-1-0.5-1.6-0.7L114.2,27.5z M114.1,25.2c0.6,0.3,1.1,0.5,1.6,0.7l-0.4,0.7c-0.5-0.3-1-0.6-1.5-0.8L114.1,25.2z"/>
	<path id="path44" d="M140,30.3l-0.4,0.5l2.7,0.7l-0.2-0.6L140,30.3z M143.7,28.6l-4.2-1.2l-0.1,0.2l4.3,1.2V28.6z M144.7,28.2
		l-0.4,1.4l-6-1.6l0.4-1.4L144.7,28.2z M146.4,26.6l-0.2,0.6l-3.7-1l-0.1,0.4l3.3,0.9l-0.2,0.6l-7.4-2l0.2-0.6l3.2,0.9l0.1-0.4
		l-3.8-1l0.2-0.6l3.8,1l0.2-0.6l1,0.4c0.1,0,0.1,0.1,0.1,0.1c0,0-0.1,0.1-0.2,0.1v0.2L146.4,26.6z M137.7,28.9l-0.3,1.1l-0.9-0.2
		l0.5-1.8l8.5,2.3l-0.5,1.8l-0.9-0.2l0.3-1.1L137.7,28.9z M144.2,30.9l-0.1,0.5l-1.1-0.3l0.7,1.6H143l-0.3-0.6l-1.7-0.4l-0.2,0.6
		l2.9,0.8l-0.2,0.6l-2.9-0.8l-0.1,0.4l3.8,1.1l-0.2,0.6l-8.5-2.3l0.2-0.6l3.7,1l0.1-0.4l-2.9-0.8l0.2-0.6l2.8,0.8l0.1-0.5l-2.3-0.4
		c0,0.1-0.1,0.1-0.1,0.1s-0.1-0.1-0.1-0.4v-0.6l1.4,0.3l0.4-0.5l-1.5-0.4l0.1-0.6L144.2,30.9z"/>
	<path id="path46" d="M164.9,41.6l-6-5.7l0.6-0.6l2.6,2.4l1.2-1.2l0.7,0.8c0.1,0.1,0.1,0.2,0,0.2s-0.2,0.1-0.4,0l-0.8,0.8l2.7,2.5
		L164.9,41.6z M157.8,41.7l-0.9-0.5c0.8-1.1,1.4-2.4,1.9-3.7l1,0.4C159.3,39.3,158.6,40.5,157.8,41.7L157.8,41.7z M154,40.4l0.7-0.7
		l3.5,3.3c1.6-0.8,3.1-1.7,4.5-2.8l0.6,0.8c0.1,0.2,0.1,0.3,0.1,0.4s-0.2,0.1-0.4,0c-1.3,0.9-2.6,1.7-4,2.4l2.5,2.3l-0.7,0.7
		L154,40.4z"/>
	<path id="path48" d="M170.5,54.3l0.4,1l0.9-0.3l-0.4-1L170.5,54.3z M169.5,53.8l2.2-0.8l1,2.4l-2.1,0.9L169.5,53.8z M174.4,58
		l-0.7-1.8c-0.4,0.2-0.9,0.4-1.3,0.7c-0.3,0.2-0.7,0.4-1.1,0.8c0.7,0,1.4-0.1,2.2-0.2v0.8c0,0.2-0.1,0.2-0.1,0.3s-0.1,0-0.2-0.2
		c-0.4,0.1-0.9,0.1-1.3,0.1c-0.4,0-0.9,0-1.3-0.1c-0.2,0.1-0.3,0.3-0.3,0.5l0,0c0.1,0.1,0.4,0.2,1,0.1V59l-0.3,0.7l0,0l0,0
		c-0.2,0-0.4,0-0.6,0l-0.6-0.1c-0.2-0.1-0.3-0.2-0.4-0.4c0-0.1-0.1-0.2-0.1-0.2c0-0.4,0.2-0.7,0.4-1c-0.5-0.2-0.9-0.4-1.3-0.7l0,0
		l0,0c0.1-0.2,0.2-0.5,0.3-0.7h0.1c0.2,0.2,0.4,0.3,0.7,0.4c0.3,0.1,0.5,0.3,0.8,0.4c0.5-0.4,1-0.7,1.5-1c0.5-0.3,1.1-0.6,1.7-0.9
		l-1.2-3l0.7-0.3l1.2,3l0.9-0.4l0.2,0.7c0,0.2,0,0.3-0.1,0.3c-0.1,0-0.2,0-0.3,0l-0.4,0.2l0.3,0.8c0.1-0.1,0.1-0.2,0.2-0.3
		c0.1-0.1,0.1-0.2,0.2-0.3l0.5,0.3c-0.1,0.2-0.2,0.4-0.3,0.6c-0.1,0.2-0.2,0.3-0.4,0.4l0.1,0.3L174.4,58z M169.6,56.8l-1.4-2
		c-0.2,0-0.4-0.1-0.4-0.2s0-0.2,0.2-0.3l0.7-0.3l1.6,2.7L169.6,56.8z M167,54.3l2.5,6.2l6.8-2.8l-2.5-6.1L167,54.3z M165.9,54.8
		l-0.4-0.9l8.6-3.5l3.2,7.9l-8.5,3.5l-0.4-0.8l0.3-0.1l-2.5-6.2L165.9,54.8z"/>
	<path id="path50" d="M176,87.4l0.9,0.2c0.4,0.1,0.6,0.5,0.6,0.9l-0.2,0.9v0.1h-0.1l-0.7,0.1c0,0-0.1-0.1-0.1-0.1l0.2-0.8l0,0
		c0,0,0-0.1,0-0.2c0-0.1-0.1-0.1-0.2-0.1l-0.4-0.1l-0.2,1.6c0.1,0.2,0.1,0.2,0.1,0.3s-0.1,0.1-0.2,0.1l-0.8-0.1l0.4-2.1l-0.8-0.2
		l0,0c0-0.1,0-0.1,0-0.2l-0.3-0.7l-0.8,2.7l-0.8-0.2l1-3.7c0.1-0.2,0.4-0.3,0.6-0.2c0.1,0,0.2,0.1,0.2,0.2l0.7,1.6l0.2,0.1l0.2-1.9
		l0.7,0.4L176,87.4z M172.4,81.8L172,83l0.6,0.5l0.1-0.4c1.1,0.2,2.1,0.3,3.2,0.3c-0.7-0.4-1.3-0.7-1.9-1
		C173.5,82.2,172.9,82,172.4,81.8 M171.2,87.6l0.6,0.2l0.5-1.8l-0.6-0.2L171.2,87.6z M170.2,88.3l1-3.6l2.1,0.6l-1,3.6L170.2,88.3z
		 M172.7,80.9c1.5,0.5,2.9,1.2,4.2,2.1c0.3-0.1,0.7-0.3,1-0.5c0.4-0.2,0.7-0.5,1-0.8h0.1l0.5,0.7v0.1c-0.3,0.3-0.7,0.5-1,0.8
		c-0.3,0.2-0.7,0.4-1,0.5c0.4,0.8,0.7,1.6,0.9,2.5v0.1l-0.8,0.4l0,0l0,0c-0.1-0.9-0.5-1.7-0.9-2.5c-1.1,0.1-2.3,0.1-3.4-0.1l0.2,0.2
		l-0.6,0.7c-1-1-2.2-1.8-3.4-2.4l0.5-0.8c0.1-0.1,0.1-0.1,0.2-0.1s0.1,0.1,0.1,0.3l1,0.6L172,80l0.8,0.2L172.7,80.9z M168.5,86.2
		L168.5,86.2l0.3-0.8c0.1-0.1,0.1-0.2,0.2-0.2c0.1,0,0.1,0.1,0.1,0.1c0,0.1,0,0.1,0.1,0.2l0.6,0.2l0.5-1.8l0.7,0.2l-1.3,4.6
		l-0.7-0.2l0.6-2L168.5,86.2z"/>
	<path id="path52" d="M170.4,96.3l-1.1,1.7l1.9,1.2l1.1-1.7L170.4,96.3z M171.8,99.8l0.4,0.3l-0.5,0.8l-3.7-2.4l2.2-3.3l3.7,2.4
		l-0.5,0.8L173,98L171.8,99.8z M167.8,100.4l-1.1,1.7l1.9,1.2l1.1-1.7L167.8,100.4z M169.2,103.8l0.4,0.3l-0.5,0.8l-3.7-2.4l2.1-3.2
		l3.7,2.4l-0.5,0.8l-0.4-0.3L169.2,103.8z M165.7,95.1l-2,3l1.6,1.1l2-3L165.7,95.1z M166,99.7l0.4,0.2l-0.5,0.8l-3.4-2.2l3-4.6
		l3.4,2.2l-0.5,0.8l-0.4-0.2L166,99.7z"/>
	<path id="path54" d="M157.3,109.6l-0.6,0.5l0.4,0.5l0.6-0.5L157.3,109.6z M156.3,104.6l0.7-0.4c0.1,0,0.2-0.1,0.2,0v0.1
		c0,0.1,0,0.1,0,0.2l1.1,1.5l1.2-1l1.4,1.8c0.1,0.2,0.3,0.4,0.5,0.6c0.4,0.6,0.6,0.9,0.8,1s0.4,0.6,1,1.5c0.2,0.4,0.2,0.9,0,1.3
		l-0.5,0.4c-0.1,0.1-0.2,0.1-0.3,0l-0.4-0.3h-0.1c-0.1-0.1,0-0.1,0.1-0.2l0.3-0.2c0.1-0.1,0.1-0.4,0-0.7c-0.5-0.7-0.8-1.2-0.9-1.4
		s-0.3-0.4-0.5-0.7s-0.5-0.7-0.9-1.2s-0.6-0.8-0.6-0.8l-0.6,0.4c0.4,0.5,0.8,1,1.2,1.6c0.1,0.2,0.3,0.4,0.4,0.6s0.3,0.5,0.4,0.9
		c0.4,0.8,0.7,1.6,1,2.5c-0.1,0-0.2,0.1-0.2,0.1c0,0-0.1,0-0.1,0l-0.2,0.1c-0.1,0-0.1,0-0.2-0.1c-0.1-0.1-0.1-0.2-0.1-0.2l-0.1-0.2
		c0,0,0-0.1,0-0.2c-0.4-0.9-0.8-1.8-1.4-2.7l-0.5-0.7l-0.8-1.2l-0.8,0.6L157,107l0.8-0.6L156.3,104.6z M156.6,108.7l-0.6,0.5
		l0.4,0.5l0.6-0.5L156.6,108.7z M156.1,110.6l-0.6,0.4l0.4,0.5l0.6-0.4L156.1,110.6z M155.4,109.7l-0.6,0.4l0.4,0.5l0.6-0.4
		L155.4,109.7z M155.4,108.3l-0.8,0.6l0.3,0.4l0.8-0.6L155.4,108.3z M155,107.8l-0.4-0.4l0.7-0.3c0.1,0,0.1,0,0.2,0v0.2l0.1,0.1
		l0.9-0.7l0.4,0.5l-0.9,0.7l0.3,0.4l0.6-0.5l1.8,2.3l-1.2,1l0.3,0.4l1.6-1.2l1.4,1.7c0.3,0.5,0.3,0.9,0.1,1.1l-0.6,0.4
		c-0.1,0.1-0.2,0.1-0.3,0l-0.4-0.2l-0.1-0.1c0,0,0-0.1,0.1-0.2l0.4-0.3c0.1-0.1,0.1-0.3,0-0.5l-0.8-1l-0.9,0.7l0.4,0.6l0.2-0.3h-0.2
		l0.1-0.6l1,0.5c0,0.2-0.1,0.3-0.2,0.5h-0.1l0,0l-0.3-0.2l-1,1.5c0,0.1,0,0.2,0,0.3s-0.1,0-0.2,0l-0.5-0.3l0.6-0.7l-0.6-0.7
		l-0.9,0.7l1.5,1.9l-0.6,0.5l-1.9-2.4l1.5-1.2l-0.3-0.4l-1.2,0.9l-1.8-2.3l0.6-0.4l-0.3-0.4l-0.8,0.6l-0.4-0.5l0.8-0.6l-0.4-0.4
		l0.6-0.3c0.1,0,0.2,0,0.2,0c0,0.1,0,0.1,0,0.2l0.1,0.1L155,107.8z M152.4,109l2.3,2.9l1.4,2c0.2,0.4,0.4,0.7,0.6,1.1
		c0.1,0.3,0.2,0.7,0.3,1c0,0,0,0.1,0,0.1v0.1l0,0l-0.3-0.1l-0.3-0.1c-0.1,0-0.1-0.1-0.2-0.1v-0.1c-0.1-0.5-0.4-1-0.6-1.5
		c-0.2-0.3-0.4-0.6-0.6-1c-0.2-0.4-0.5-0.7-0.8-1l-2.7-3.4l4.3-3.4l0.4,0.5L152.4,109z"/>
	<path id="path56" d="M144.1,116.8l-0.8-0.3l-0.5,0.7L144.1,116.8z M143,113.8l1,0.3l-0.2,0.6l-1-0.3l-0.6,1l-0.6-0.2l0.6-1
		l-0.8-0.2h-0.2l0.2-0.7l1.1,0.3l0.3-0.8l0.7,0.2L143,113.8z M144.3,121.6c0.1,0,0.2-0.1,0.1-0.2c0,0,0,0,0,0l-0.2-0.6l-3.9,1.3
		l-0.3-0.9l3.9-1.3l-0.2-0.5h0.5l0.5-0.8l-3.1,1l-0.3-0.8l4.1-1.4c0.2,0.1,0.4,0.2,0.5,0.4v0.1c0,0.1,0,0.1,0,0.2l-1,1.4l3.5-1.2
		l0.3,0.9l-3.6,1.2l0.3,0.9c0,0.3,0,0.6-0.2,0.8l-1.3,0.4l-0.2-0.3c-0.1-0.1-0.1-0.2-0.2-0.3c0,0,0-0.1,0-0.1L144.3,121.6z
		 M144.3,116.7l1.9-0.6l-0.2-0.6l-1.3,0.5l-0.2-0.7l1.4-0.5l-0.2-0.6l-1.3,0.4L144,114l1.3-0.4l-0.2-0.6l-1.4,0.5l-0.2-0.7l2.2-0.8
		l1.3,3.7l0.7-0.2l0.7,2l-0.9,0.3l-0.4-1.2l-6.9,2.3l0.4,1.2l-1,0.3l-0.7-1.9l0.8-0.3l-1.2-3.6l2.2-0.8l0.2,0.7l-1.3,0.5l0.1,0.4
		l1.4-0.5l0.2,0.7l-1.4,0.5l0.2,0.6l1.4-0.5l0.2,0.7l-1.4,0.5l0.2,0.5l1.8-0.6l-0.2-0.3l0.6-0.8l-0.8-0.2l0.2-0.6l0.9,0.2l0.4-0.8
		l0.6,0.3l-0.4,0.7l0.8,0.2L144.3,116.7z"/>
	<path id="path58" d="M117.2,117.3c0,0.6,0,1.3,0,1.9h-0.8c0.1-0.6,0.1-1.2,0-1.8L117.2,117.3z M114.5,116.1
		c0.2,0.2,0.3,0.4,0.5,0.6l0.5,0.6l-0.7,0.4l-0.9-1.2L114.5,116.1z M118.5,114.6c0,0.1,0,0.1,0,0.2c0,0,0,0.1,0,0.1
		c0,0.1-0.1,0.1-0.2,0l-0.1-0.1l-0.1-0.1c-1.9-0.3-3.7-0.9-5.5-1.6l-0.1-0.1l0,0l0,0l-0.1-0.8c0,0,0.1-0.1,0.1-0.1l0.7,0.3
		c0.9,0.4,1.8,0.7,2.7,0.9c0.8,0.2,1.6,0.4,2.5,0.5L118.5,114.6z M112.1,119c0.1,0.5,0.3,1,0.6,1.5c0.7,0,1.3-0.2,1.9-0.5L112.1,119
		z M112.4,116.1c0.1,0.1,0.1,0.2,0.1,0.3s-0.1,0.1-0.3,0c-0.3,0.2-0.6,0.3-0.9,0.4c-0.3,0.1-0.6,0.2-0.9,0.3l-0.4-0.8
		c0.7-0.2,1.4-0.5,2-0.9L112.4,116.1z M117.3,118.6l0.5-1.2l-6.6-2.7l-0.6,1.3l-0.8-0.3l0.8-2l1.8,0.7l-0.2-1h0.8
		c0.2,0.5,0.3,0.9,0.4,1.3h-0.3l1.2,0.5c0-0.2,0-0.3,0-0.5c-0.1-0.2-0.1-0.4-0.2-0.6h0.8c0.1,0.2,0.1,0.5,0.2,0.7s0.1,0.4,0.1,0.6
		l-0.2,0.1l1.2,0.5l-0.1-0.2c0.6-0.2,1.2-0.4,1.7-0.8l0.4,0.7c0,0.1,0,0.1,0,0.2c0,0.1-0.1,0.1-0.3,0l-0.5,0.3
		c-0.1,0.1-0.3,0.1-0.5,0.2l1.8,0.7l-0.8,1.9L117.3,118.6z M113.7,116.1c0.1,0.1,0.2,0.2,0.1,0.2s-0.1,0.1-0.3,0.1l-0.3,0.7l0,0
		c-0.1,0.2,0,0.3,0.2,0.4l1.6,0.6c0.2,0.1,0.5-0.1,1-0.4h0.1c0.1,0.2,0.2,0.4,0.3,0.5c0,0,0,0.1,0,0.1v0.1c-0.6,0.4-1.1,0.6-1.4,0.5
		l-1.8-0.8l-0.5,0.2l3,1.2c0.1,0.1,0.2,0.2,0.2,0.3c0,0.1,0,0.2,0,0.3c-0.7,0.4-1.5,0.7-2.3,0.9c0.4,0.3,0.9,0.6,1.3,0.8
		c0.4,0.2,0.8,0.4,1.3,0.6v0.1c-0.1,0.1-0.2,0.2-0.3,0.3l-0.3,0.3c-0.6-0.2-1.1-0.5-1.6-0.8c-0.5-0.3-1-0.7-1.5-1.1
		c-0.5,0-0.9-0.1-1.4-0.2c-0.5-0.1-1.1-0.2-1.6-0.4l-0.1-0.1l-0.2-0.7l0,0v-0.1c0.4,0.2,0.8,0.3,1.2,0.4c0.4,0.1,0.9,0.2,1.5,0.2
		c-0.1-0.2-0.2-0.5-0.3-0.8c-0.1-0.2-0.2-0.5-0.2-0.7c-0.5,0.1-0.9,0.1-1.4,0.1h-0.1l0,0l-0.3-0.8l0,0l0,0c1,0,1.9-0.2,2.8-0.5
		c-0.1-0.2-0.1-0.3,0-0.5l0.7-1.6L113.7,116.1z"/>
	<path id="path60" d="M98,108.8l0.8,0.7l0.6-0.7l-0.8-0.7L98,108.8z M103.2,110.3l-1.5-1.3c-0.3,0.4-0.6,0.8-0.8,1.2
		c-0.2,0.4-0.4,0.8-0.6,1.2c0.6-0.3,1.2-0.7,1.9-1.2l0.4,0.7c0.1,0.2,0.1,0.2,0,0.3s-0.1,0-0.3,0c-0.4,0.3-0.8,0.5-1.1,0.7
		c-0.4,0.2-0.8,0.4-1.2,0.6c-0.1,0.2-0.1,0.4-0.1,0.6v0c0.1,0.1,0.4,0,1-0.3h0.1v0.8l0,0l0,0l-0.5,0.3c-0.2,0.1-0.4,0.2-0.6,0.2
		c-0.2,0-0.4,0-0.5-0.1c-0.1-0.1-0.1-0.1-0.2-0.2c-0.1-0.3-0.2-0.7-0.1-1.1c-0.5,0.1-1,0.1-1.5,0l0,0l0,0c0-0.3,0-0.5-0.1-0.8h0.1
		c0.3,0,0.5,0.1,0.8,0.1c0.3,0,0.6,0,0.9,0c0.3-0.6,0.6-1.2,0.8-1.7c0.3-0.6,0.7-1.1,1.1-1.6l-2.5-2.1l0.5-0.6l2.5,2.1l0.6-0.7
		l0.5,0.5c0.1,0.2,0.1,0.3,0.1,0.3c-0.1,0-0.2,0.1-0.3,0.1l-0.3,0.3l0.7,0.6c0-0.1,0-0.2,0-0.4c0-0.1,0-0.3,0-0.4l0.6,0.1
		c0,0.2,0,0.4,0,0.7c0,0.2-0.1,0.4-0.1,0.5l0.2,0.2L103.2,110.3z M96.9,108.8l1.4-1.7l2,1.7l-1.4,1.7L96.9,108.8z M98.4,111.4
		l-2.2-1.1c-0.2,0.1-0.4,0.1-0.4,0s0-0.2,0-0.4l0.4-0.6l2.7,1.6L98.4,111.4z M94.9,110.4l5.1,4.3l4.7-5.6l-5-4.2L94.9,110.4z
		 M94.2,111.3l-0.7-0.6l6-7.1l6.5,5.5l-5.9,7.1l-0.7-0.6l0.2-0.3l-5.1-4.3L94.2,111.3z"/>
	<path id="path62" d="M94.5,98.3l-0.1,0.1c0,0-0.1,0.1-0.1,0.1c-0.1,0-0.1,0-0.2-0.1c0,0,0-0.1,0-0.1c0,0,0-0.1,0-0.1
		c-1.3-1.4-2.5-3-3.5-4.6v-0.1l0,0v-0.1l0.4-0.7c0,0,0.1,0,0.1,0l0.4,0.7c0.5,0.8,1,1.6,1.6,2.3c0.5,0.7,1.1,1.3,1.7,1.9L94.5,98.3z
		 M91.9,99.7c-0.4,0.6-0.8,1.2-1.1,1.6l-0.6-0.6c0.4-0.5,0.8-1,1.1-1.5L91.9,99.7z M90.5,97.1c0,0.2,0,0.5,0,0.8v0.8l-0.8-0.1V97
		L90.5,97.1z M91.2,100.8l1.2-0.7L88.7,94l-1.2,0.7l-0.5-0.8l1.9-1.1l0.9,1.6l0.4-0.9l0.6,0.5c-0.2,0.5-0.3,0.9-0.5,1.2l-0.2-0.2
		l0.7,1.2c0.1-0.1,0.2-0.3,0.3-0.4c0.1-0.2,0.2-0.3,0.2-0.5l0.6,0.4c-0.1,0.2-0.2,0.5-0.3,0.7c-0.1,0.2-0.2,0.4-0.3,0.6h-0.2
		l0.7,1.2l0.1-0.2c0.6,0.2,1.2,0.4,1.8,0.4l-0.1,0.8c0,0.1,0,0.1-0.1,0.2c-0.1,0-0.2,0-0.3-0.2L92.9,99c-0.2,0-0.3-0.1-0.5-0.1
		l1,1.7l-1.8,1.1L91.2,100.8z M88.8,95.8c0,0.1-0.1,0.2-0.1,0.3s-0.1,0-0.2-0.1c-0.3,0-0.7-0.1-1-0.2c-0.3-0.1-0.6-0.2-0.9-0.3
		l0.2-0.9c0.7,0.3,1.4,0.5,2.1,0.5L88.8,95.8z M86.8,97.9c-0.2,0.5-0.4,1-0.4,1.5c0.5,0.4,1.1,0.7,1.7,0.8L86.8,97.9z M89.8,96.5
		c0,0.1,0,0.2,0,0.2s-0.2,0-0.3-0.1l-0.7,0.4l0,0c-0.2,0.1-0.2,0.2-0.1,0.5l0.7,1.5c0.1,0.2,0.4,0.2,1,0.3v0.1
		c-0.1,0.2-0.1,0.4-0.1,0.6c0,0,0,0.1,0,0.1c0,0,0,0-0.1,0.1c-0.8,0-1.2-0.2-1.4-0.4l-1-1.6l-0.5-0.2l1.6,2.8c0,0.1,0,0.3,0,0.4
		c0,0.1-0.1,0.2-0.2,0.2c-0.8-0.1-1.6-0.3-2.3-0.7c0.2,0.5,0.3,1,0.6,1.4c0.2,0.4,0.4,0.8,0.6,1.2v0.1h-0.5H87
		c-0.3-0.5-0.6-1.1-0.8-1.7c-0.2-0.6-0.4-1.2-0.5-1.8c-0.4-0.3-0.7-0.6-1-1c-0.3-0.4-0.7-0.8-1.1-1.3v-0.1l0.3-0.7l0,0H84
		c0.2,0.4,0.5,0.7,0.7,1c0.3,0.3,0.6,0.7,1,1.1c0.1-0.3,0.1-0.5,0.2-0.8c0.1-0.3,0.2-0.5,0.3-0.7c-0.4-0.2-0.8-0.5-1.1-0.8l0,0l0,0
		l0.2-0.8l0,0h0.1c0.8,0.5,1.6,0.9,2.4,1.3c0-0.2,0.1-0.3,0.3-0.4l1.5-0.9L89.8,96.5z"/>
	<path id="path64" d="M88.5,84.1c0,0.2,0,0.3-0.1,0.3s-0.2,0-0.3-0.2l-0.3,0.1c-1.4,0.3-2.8,1-3.9,1.9c-1.1,1.1-2,2.5-2.4,4h-0.1
		h-0.1c0,0,0,0-0.1,0c-0.2-0.2-0.5-0.4-0.8-0.6h-0.1v-0.1c0,0,0-0.1,0-0.1c0.5-1.2,1.3-2.3,2.2-3.3c0.5-0.5,1-0.9,1.6-1.3
		c-1,0-1.9-0.3-2.8-0.7c-1-0.5-1.8-1.2-2.6-2v-0.2c0.2-0.3,0.3-0.6,0.4-1h0.1h0.1c0.4,0.6,0.9,1,1.4,1.4c0.6,0.4,1.3,0.8,2,1.1
		c0.8,0.2,1.6,0.2,2.5,0.2c1.1-0.1,2.2-0.3,3.3-0.6L88.5,84.1z"/>
	<path id="path66" d="M176.4,73.5c0,0.7-0.6,1.3-1.3,1.3s-1.3-0.6-1.3-1.3c0-0.7,0.6-1.3,1.3-1.3c0,0,0,0,0,0
		C175.8,72.2,176.4,72.8,176.4,73.5"/>
	<path id="path68" d="M83.9,73.6c0,0.7-0.6,1.3-1.3,1.3c-0.7,0-1.3-0.6-1.3-1.3c0-0.7,0.6-1.3,1.3-1.3c0,0,0,0,0,0
		C83.3,72.2,83.9,72.8,83.9,73.6"/>
	<path id="path70" d="M130.1,119.9c0,0.7-0.6,1.3-1.3,1.3c-0.7,0-1.3-0.6-1.3-1.3c0-0.7,0.6-1.3,1.3-1.3c0,0,0,0,0,0
		C129.5,118.6,130.1,119.2,130.1,119.9"/>
	<path id="path72" class="st3" d="M128.4,17.5c-0.2,0.1-0.1,0.2-0.2,0.4c-0.1,0.1-0.3,0.1-0.5,0c0,0,0,0,0,0
		c-0.2-0.3-0.1-0.6,0.1-0.8c0.3-0.4,0.8-0.5,1.2-0.2c0.5,0.4,0.7,1.1,0.4,1.6c-0.4,0.6-1.2,0.9-1.9,0.7c-0.8-0.2-1.3-1.1-1-1.9
		c0-0.1,0.1-0.3,0.2-0.4c0.5-0.8,1.4-1.3,2.3-1.4c0.8-0.1,1.7,0.1,2.3,0.6c0.5-0.4,1.2-0.6,1.8-0.4c0.2,0,0.1,0.2,0,0.2
		c-0.3,0.1-1.2,0.2-1.3,1.7c0,1.3-0.6,2.4-1.5,3.2h-1.6c1.3-0.4,2.2-1.5,2.3-2.8c0-0.6-0.2-1.2-0.7-1.6c0.7,1,0.6,2.3-0.2,3.1
		c-0.8,0.8-2.3,1.4-4.5,0.2c-0.5,0.5-1.1,0.6-1.8,0.4c-0.1,0-0.2-0.2,0-0.3c0.8-0.2,1.3-0.9,1.3-1.7c-0.1-1.3,0.5-2.5,1.6-3.3h1.6
		c-1.3,0.3-2.2,1.5-2.2,2.8c0,0.9,0.7,1.7,1.6,1.8c2.1,0.3,2.9-1.4,2.3-2.6c-0.3-0.5-1-0.8-1.6-0.6c-0.6,0.1-1,0.6-1.1,1.2
		c0,0.4,0.3,0.8,0.7,0.9c0.6,0,0.9-0.2,1-0.7C129,17.3,128.7,17.3,128.4,17.5"/>
	<path id="path74" class="st3" d="M136.4,18.8c0.2-0.1,0.1-0.2,0.3-0.4c0.2-0.1,0.4-0.1,0.5,0c0.1,0.3,0,0.6-0.2,0.8
		c-0.3,0.3-0.9,0.4-1.2,0.1c-0.5-0.4-0.5-1.2-0.1-1.6c0.5-0.6,1.3-0.8,2-0.4c0.8,0.4,1.1,1.3,0.7,2.1c-0.1,0.1-0.1,0.2-0.2,0.4
		c-0.6,0.7-1.5,1.1-2.5,1.1c-0.8,0-1.7-0.3-2.2-0.9c-0.6,0.4-1.2,0.4-1.9,0.2c-0.2-0.1-0.1-0.2,0-0.3c0.3,0,1.2-0.1,1.5-1.5
		c0.1-1.2,0.9-2.4,1.9-3l1.5,0.2c-1.3,0.2-2.3,1.2-2.6,2.4c-0.1,0.6,0.1,1.2,0.5,1.7c-0.6-1-0.3-2.3,0.6-3.1
		c0.9-0.7,2.5-1.1,4.5,0.3c0.5-0.4,1.2-0.5,1.8-0.2c0.1,0.1,0.2,0.2,0,0.3c-0.8,0.1-1.4,0.7-1.5,1.5c-0.1,1.3-0.8,2.4-1.9,3
		l-1.5-0.2c1.3-0.2,2.3-1.2,2.6-2.5c0.2-0.9-0.4-1.8-1.3-2c-2.1-0.6-3,1-2.6,2.3c0.3,0.6,0.9,0.9,1.5,0.8c0.6,0,1.1-0.4,1.2-1
		c0.1-0.4-0.2-0.8-0.6-0.9c-0.6-0.1-1,0.1-1.1,0.5S136.2,18.9,136.4,18.8"/>
	<path id="path76" class="st3" d="M144.2,19.6c-0.2,0.1-0.1,0.2-0.3,0.4c-0.2,0.1-0.4,0.1-0.5-0.1c0,0,0,0,0,0
		c-0.1-0.3,0.1-0.6,0.3-0.8c0.4-0.3,0.9-0.2,1.2,0.1c0.4,0.5,0.4,1.2-0.1,1.6c-0.6,0.5-1.4,0.5-2,0.1c-0.7-0.5-0.9-1.4-0.4-2.1
		c0.1-0.1,0.2-0.2,0.3-0.3c0.7-0.7,1.7-0.9,2.6-0.7c0.8,0.1,1.6,0.6,2.1,1.3c0.6-0.3,1.3-0.3,1.9,0.1c0.2,0.1,0.1,0.3,0,0.3
		c-0.3,0-1.2-0.1-1.7,1.2c-0.3,1.2-1.2,2.2-2.4,2.7l-1.5-0.5c1.3,0,2.4-0.8,2.9-2c0.2-0.6,0.1-1.2-0.2-1.8c0.4,1.1-0.1,2.3-1.1,2.9
		c-1,0.6-2.6,0.7-4.4-1c-0.6,0.3-1.3,0.3-1.8-0.1c-0.1-0.1-0.1-0.2,0.1-0.2c0.8,0,1.5-0.5,1.7-1.2c0.3-1.2,1.2-2.2,2.4-2.7l1.5,0.5
		c-1.3,0-2.5,0.8-2.9,2.1c-0.3,0.9,0.2,1.8,1,2.1c2,0.9,3.2-0.5,2.9-1.9c-0.2-0.6-0.7-1-1.3-1c-0.6-0.1-1.2,0.3-1.3,0.9
		c-0.1,0.4,0.1,0.9,0.5,1c0,0,0,0,0,0c0.6,0.2,1,0,1.1-0.4C144.7,19.7,144.5,19.5,144.2,19.6"/>
	<path id="path78" class="st3" d="M151.5,23.2c0.2-0.1,0.2-0.2,0.4-0.3c0.2-0.1,0.4,0,0.5,0.2c0,0,0,0,0,0c0,0.3-0.1,0.6-0.4,0.7
		c-0.4,0.2-0.9,0.1-1.2-0.3c-0.4-0.5-0.2-1.3,0.3-1.6c0.6-0.4,1.4-0.3,2,0.1c0.6,0.6,0.7,1.6,0.1,2.2c-0.1,0.1-0.2,0.2-0.3,0.3
		c-0.8,0.6-1.8,0.7-2.7,0.3c-0.8-0.2-1.5-0.8-1.9-1.5c-0.6,0.2-1.3,0.1-1.8-0.3c-0.2-0.1,0-0.3,0-0.3c0.8,0.2,1.6-0.2,1.9-1
		c0.5-1.2,1.5-2,2.7-2.4l1.4,0.7c-1.3-0.1-2.5,0.5-3.1,1.6c-0.3,0.6-0.3,1.2,0,1.8c-0.2-1.2,0.4-2.3,1.5-2.8
		c1.1-0.4,2.7-0.4,4.2,1.6c0.6-0.2,1.3-0.1,1.8,0.3c0.1,0.1,0.1,0.3-0.1,0.2c-0.8-0.2-1.6,0.3-1.9,1c-0.5,1.2-1.5,2-2.7,2.3
		l-1.4-0.7c1.3,0.2,2.6-0.5,3.2-1.7c0.4-0.8,0.1-1.8-0.8-2.2c-1.9-1.1-3.2,0.1-3.1,1.5c0.1,0.6,0.6,1.1,1.2,1.1
		c0.6,0.1,1.2-0.1,1.5-0.7c0.2-0.4,0.1-0.9-0.3-1.1c-0.6-0.3-1-0.1-1.2,0.2C150.9,23,151.1,23.2,151.5,23.2"/>
	<path id="path80" class="st3" d="M158.8,26.2c-0.2,0-0.2,0.2-0.4,0.2c-0.2,0.1-0.4-0.1-0.4-0.2c0,0,0,0,0,0c0-0.3,0.2-0.6,0.5-0.6
		c0.5-0.1,0.9,0,1.2,0.5c0.3,0.6,0,1.3-0.6,1.6c-0.7,0.3-1.5,0.1-2-0.5c-0.6-0.7-0.5-1.6,0.2-2.2c0.1-0.1,0.2-0.2,0.4-0.2
		c0.9-0.4,1.9-0.4,2.7,0.1c0.8,0.4,1.4,1,1.6,1.8c0.7-0.1,1.3,0.1,1.8,0.6c0.1,0.2,0,0.3-0.1,0.2c-0.7-0.3-1.6,0-2,0.7
		c-0.7,1.1-1.8,1.8-3,1.9l-1.3-0.9c1.2,0.3,2.5-0.1,3.3-1.1c0.4-0.5,0.5-1.2,0.3-1.8c0.1,1.2-0.7,2.2-1.9,2.5
		c-1.1,0.2-2.8,0-3.9-2.2c-0.6,0.1-1.3-0.1-1.7-0.6c-0.1-0.1,0-0.3,0.1-0.2c0.7,0.3,1.6,0,2-0.7c0.6-1.1,1.8-1.8,3-1.9l1.3,0.9
		c-1.3-0.4-2.6,0.1-3.4,1.2c-0.5,0.8-0.4,1.8,0.4,2.3c1.6,1.4,3.2,0.4,3.3-1c0-0.6-0.4-1.2-1-1.3c-0.6-0.2-1.2,0-1.5,0.5
		c-0.3,0.3-0.2,0.8,0.2,1.1c0.5,0.4,0.9,0.3,1.2,0S159,26.3,158.8,26.2"/>
	<path id="path82" class="st3" d="M164.7,31.7c0.2,0,0.2-0.1,0.4-0.2c0.2,0,0.4,0.1,0.4,0.3c0,0,0,0,0,0c0,0.2-0.2,0.5-0.6,0.6
		c-0.5,0.1-0.9-0.2-1.1-0.6c-0.2-0.6,0.2-1.3,0.8-1.5c0.7-0.2,1.5,0.1,1.9,0.7c0.5,0.7,0.2,1.7-0.5,2.1c-0.1,0.1-0.2,0.1-0.4,0.2
		c-0.9,0.3-1.9,0.1-2.7-0.4c-0.7-0.4-1.2-1.2-1.4-2c-0.7,0-1.3-0.3-1.7-0.9c-0.1-0.2,0-0.3,0.1-0.2c0.7,0.4,1.6,0.2,2.1-0.4
		c0.8-1,2-1.5,3.2-1.5l1.1,1c-1.2-0.5-2.6-0.2-3.5,0.7c-0.4,0.5-0.6,1.1-0.5,1.7c0.1-1.2,1-2.1,2.2-2.2c1.2-0.1,2.7,0.4,3.6,2.7
		c0.7,0,1.3,0.3,1.6,0.8c0.1,0.1,0,0.3-0.2,0.2c-0.7-0.4-1.6-0.2-2.1,0.4c-0.8,1-2,1.5-3.2,1.5l-1.1-1c1.2,0.6,2.6,0.3,3.5-0.7
		c0.6-0.7,0.6-1.7-0.1-2.4c-1.5-1.6-3.1-0.8-3.4,0.5c-0.1,0.6,0.3,1.2,0.8,1.4c0.5,0.3,1.2,0.2,1.6-0.2c0.3-0.3,0.3-0.8,0-1.1
		c-0.5-0.4-0.9-0.4-1.2-0.1S164.4,31.6,164.7,31.7"/>
	<path id="path84" class="st3" d="M170.9,36.6c-0.2,0-0.2,0.1-0.5,0.1c-0.2,0-0.4-0.2-0.4-0.3v0c0.1-0.3,0.4-0.5,0.7-0.5
		c0.5,0,0.9,0.3,1,0.8c0.1,0.6-0.4,1.2-1,1.3c-0.7,0.1-1.5-0.3-1.8-1c-0.3-0.8,0-1.7,0.8-2c0.1-0.1,0.3-0.1,0.4-0.1
		c0.9-0.2,1.9,0.1,2.6,0.8c0.6,0.5,1,1.3,1.1,2.2c0.7,0.1,1.2,0.5,1.5,1.1c0.1,0.2-0.1,0.3-0.2,0.2c-0.6-0.5-1.6-0.5-2.1,0.1
		c-0.9,0.8-2.2,1.2-3.4,1l-1-1.2c1.1,0.7,2.5,0.6,3.6-0.2c0.5-0.4,0.7-1,0.7-1.6c-0.3,1.1-1.3,1.9-2.5,1.9c-1.2-0.1-2.6-0.8-3.2-3.2
		c-0.7-0.1-1.2-0.5-1.5-1.1c-0.1-0.1,0-0.3,0.2-0.2c0.6,0.5,1.5,0.4,2.1-0.1c0.9-0.9,2.2-1.3,3.4-1l1,1.2c-1.1-0.7-2.5-0.6-3.6,0.2
		c-0.7,0.6-0.9,1.6-0.3,2.4c1.2,1.8,2.9,1.2,3.5,0c0.2-0.6-0.1-1.2-0.6-1.5c-0.5-0.4-1.1-0.4-1.6,0c-0.3,0.3-0.4,0.8-0.1,1.1
		c0.4,0.5,0.8,0.5,1.2,0.3S171.1,36.7,170.9,36.6"/>
	<path id="path86" class="st3" d="M175.1,43.5c0.2,0.1,0.2-0.1,0.5-0.1c0.2,0,0.3,0.2,0.3,0.4c-0.1,0.3-0.5,0.4-0.8,0.4
		c-0.5,0-0.8-0.4-0.9-0.9c0-0.6,0.5-1.2,1.1-1.2c0.8,0,1.4,0.5,1.6,1.2c0.3,0.9-0.3,1.8-1.5,2c-0.9,0.1-1.9-0.4-2.4-1.1
		c-0.6-0.6-0.9-1.5-0.8-2.3c-0.7-0.2-1.2-0.6-1.4-1.3c-0.1-0.2,0.1-0.2,0.2-0.2c0.6,0.6,1.5,0.7,2.1,0.2c1-0.7,2.3-0.9,3.5-0.5
		l0.8,1.3c-1-0.8-2.4-0.9-3.6-0.3c-0.5,0.3-0.9,0.9-0.9,1.5c0.4-1.1,1.6-1.8,2.7-1.5c1.2,0.2,2.5,1.1,2.7,3.6
		c0.6,0.1,1.2,0.6,1.3,1.2c0,0.1-0.1,0.3-0.2,0.2c-0.6-0.5-1.4-0.6-2.1-0.2c-1,0.7-2.3,0.9-3.5,0.5c-0.1-0.2-0.8-1.3-0.8-1.3
		c1,0.8,2.4,0.9,3.6,0.3c0.8-0.5,1-1.5,0.6-2.3c-1-1.9-2.8-1.6-3.4-0.5c-0.2,0.6-0.1,1.2,0.4,1.6c0.4,0.4,1.1,0.5,1.6,0.2
		c0.4-0.2,0.5-0.7,0.3-1.1c0,0,0,0,0,0c-0.3-0.5-0.7-0.6-1.1-0.4S174.8,43.4,175.1,43.5"/>
	<path id="path88" class="st3" d="M179.7,50c-0.2-0.1-0.2,0-0.5,0c-0.2,0-0.3-0.2-0.2-0.4c0,0,0,0,0,0c0.2-0.3,0.5-0.4,0.8-0.2
		c0.4,0.1,0.7,0.5,0.7,1c-0.1,0.6-0.7,1.1-1.3,1c-0.7-0.1-1.3-0.7-1.4-1.5c-0.2-0.9,0.6-1.8,1.8-1.7c0.9,0.1,1.8,0.7,2.2,1.5
		c0.5,0.7,0.6,1.6,0.4,2.4c0.6,0.3,1,0.8,1.1,1.5c0,0.2-0.1,0.2-0.2,0.1c-0.5-0.7-1.4-0.9-2.1-0.5c-1.1,0.5-2.5,0.5-3.6-0.1
		l-0.6-1.4c0.9,1,2.2,1.3,3.4,0.9c0.6-0.2,1-0.7,1.2-1.3c-0.6,1-1.8,1.5-2.9,1.1c-1.1-0.4-2.3-1.5-2.1-4c-0.6-0.2-1-0.8-1.1-1.4
		c0-0.1,0.1-0.2,0.2-0.1c0.5,0.6,1.3,0.8,2,0.5c1.1-0.6,2.5-0.5,3.6,0.1l0.6,1.4c-0.8-1-2.2-1.4-3.5-0.9c-0.8,0.4-1.3,1.3-0.9,2.2
		c0.6,2.1,2.5,2,3.3,1c0.3-0.5,0.3-1.2-0.1-1.6c-0.3-0.5-1-0.7-1.5-0.5c-0.4,0.1-0.6,0.6-0.5,1c0,0,0,0,0,0c0.2,0.6,0.6,0.8,1,0.6
		S179.8,50.1,179.7,50"/>
	<path id="path90" class="st3" d="M181.7,57.7c0.2,0.1,0.2,0,0.5,0.1c0.2,0.1,0.3,0.3,0.2,0.5c0,0,0,0,0,0c-0.2,0.2-0.6,0.3-0.8,0.2
		c-0.4-0.2-0.7-0.6-0.6-1.1c0.2-0.6,0.8-1,1.4-0.8c0.7,0.2,1.2,0.9,1.2,1.6c0,0.9-0.7,1.6-1.6,1.5c-0.1,0-0.3,0-0.4-0.1
		c-0.9-0.2-1.7-0.9-2-1.8c-0.4-0.8-0.4-1.6-0.1-2.4c-0.6-0.3-0.9-1-0.9-1.6c0-0.2,0.2-0.2,0.2-0.1c0.4,0.7,1.2,1.1,2,0.8
		c1.2-0.4,2.5-0.2,3.5,0.5l0.4,1.5c-0.7-1.1-2-1.6-3.3-1.3c-0.6,0.2-1.1,0.6-1.3,1.2c0.7-0.9,2-1.2,3.1-0.7c1,0.6,2.1,1.8,1.6,4.2
		c0.6,0.3,0.9,0.9,0.9,1.6c0,0.1-0.1,0.2-0.3,0.1c-0.4-0.7-1.2-1-2-0.8c-1.2,0.4-2.5,0.2-3.5-0.5c-0.1-0.2-0.4-1.5-0.4-1.5
		c0.7,1.1,2.1,1.6,3.4,1.3c0.9-0.2,1.4-1.1,1.2-2c-0.4-2.1-2.2-2.3-3.2-1.4c-0.4,0.5-0.4,1.1-0.1,1.7c0.3,0.5,0.9,0.8,1.5,0.7
		c0.4-0.1,0.7-0.5,0.6-0.9c0,0,0,0,0,0c-0.2-0.6-0.5-0.8-0.9-0.8S181.5,57.6,181.7,57.7"/>
	<path id="path92" class="st3" d="M184.2,65.2c-0.2-0.2-0.3,0-0.5-0.1c-0.2-0.1-0.2-0.3-0.1-0.5c0,0,0,0,0,0c0.2-0.2,0.6-0.2,0.8,0
		c0.4,0.2,0.6,0.7,0.4,1.2c-0.3,0.6-1,0.8-1.5,0.6c-0.7-0.3-1.1-1-0.9-1.8c0.1-0.8,0.9-1.4,1.7-1.3c0.2,0,0.3,0.1,0.5,0.2
		c0.9,0.4,1.5,1.1,1.7,2.1c0.2,0.8,0.1,1.7-0.3,2.4c0.5,0.4,0.8,1.1,0.7,1.7c0,0.2-0.2,0.2-0.2,0.1c-0.2-0.8-1.1-1.3-1.9-1.1
		c-1.2,0.2-2.5-0.2-3.4-1.1c0,0-0.1-0.7-0.2-1.5c0.6,1.2,1.8,1.9,3.1,1.8c0.6-0.1,1.2-0.5,1.5-1c-0.8,0.8-2.2,0.9-3.1,0.2
		c-0.9-0.7-1.8-2.1-0.9-4.4c-0.5-0.4-0.8-1-0.7-1.7c0-0.1,0.2-0.2,0.3,0c0.3,0.7,1.1,1.1,1.8,1c1.2-0.2,2.5,0.1,3.4,1
		c0,0.2,0.2,1.5,0.2,1.5c-0.5-1.2-1.8-1.9-3.1-1.8c-0.9,0.1-1.6,0.9-1.5,1.8c0,2.2,1.8,2.6,2.9,1.9c0.5-0.4,0.6-1.1,0.3-1.6
		c-0.2-0.6-0.8-0.9-1.4-0.9c-0.4,0-0.8,0.4-0.7,0.8c0,0,0,0,0,0c0.1,0.6,0.4,0.9,0.8,0.9s0.4-0.3,0.3-0.5"/>
	<path id="path94" class="st3" d="M184,73.3c0.2,0.2,0.2,0.1,0.4,0.2c0.1,0.1,0.1,0.4,0,0.5c0,0,0,0,0,0c-0.3,0.2-0.6,0.1-0.8-0.1
		c-0.4-0.3-0.5-0.8-0.3-1.2c0.3-0.5,1.1-0.7,1.6-0.4c0.6,0.4,0.9,1.2,0.7,1.9c-0.2,0.8-1.1,1.3-1.9,1.1c-0.1,0-0.3-0.1-0.4-0.2
		c-0.8-0.5-1.4-1.3-1.4-2.3c-0.1-0.8,0.1-1.7,0.6-2.4c-0.5-0.5-0.6-1.2-0.5-1.8c0.1-0.2,0.2-0.2,0.3,0c0,0.3,0.3,1.2,1.7,1.3
		c1.3,0,2.5,0.5,3.2,1.5c0,0,0,0.8,0,1.6c-0.4-1.2-1.5-2.1-2.8-2.2c-0.6,0-1.2,0.3-1.6,0.8c0.9-0.7,2.3-0.6,3.1,0.2
		c0.8,0.8,1.5,2.3,0.3,4.5c0.5,0.5,0.6,1.1,0.4,1.8c0,0.1-0.2,0.2-0.2,0c-0.2-0.8-0.9-1.3-1.7-1.3c-1.3,0.1-2.5-0.5-3.2-1.5
		c0-0.2,0-1.5,0-1.5c0.4,1.3,1.5,2.1,2.8,2.2c0.9,0,1.7-0.7,1.7-1.6c0.2-2.2-1.4-2.8-2.6-2.2c-0.5,0.3-0.7,1-0.5,1.6
		c0.1,0.6,0.6,1,1.2,1c0.4,0,0.8-0.3,0.8-0.7c0,0,0,0,0,0c0-0.6-0.2-0.9-0.7-1S183.8,73,184,73.3"/>
	<path id="path96" class="st3" d="M184.3,81.2c-0.1-0.2-0.2-0.1-0.4-0.3c-0.1-0.1-0.1-0.4,0-0.5c0,0,0,0,0,0c0.3-0.1,0.6,0,0.8,0.2
		c0.3,0.3,0.3,0.9,0.1,1.2c-0.4,0.5-1.2,0.5-1.6,0.1c-0.6-0.5-0.7-1.3-0.4-2c0.4-0.8,1.3-1.1,2.1-0.7c0.1,0.1,0.2,0.1,0.3,0.2
		c0.7,0.6,1.1,1.5,1,2.5c0,0.8-0.4,1.7-1,2.2c0.4,0.6,0.4,1.3,0.2,1.9c-0.1,0.2-0.2,0.1-0.3,0c0-0.3-0.1-1.2-1.5-1.6
		c-1.3-0.2-2.4-0.9-3-2c0,0,0.1-0.7,0.3-1.5c0.2,1.3,1.2,2.3,2.4,2.6c0.6,0.1,1.2-0.1,1.7-0.5c-1,0.5-2.3,0.3-3.1-0.7
		c-0.7-1-1.1-2.5,0.4-4.5c-0.4-0.5-0.5-1.2-0.2-1.8c0.1-0.1,0.2-0.2,0.3,0c0.1,0.8,0.7,1.4,1.5,1.5c1.3,0.1,2.4,0.9,3,2
		c0,0.2-0.3,1.5-0.3,1.5c-0.2-1.3-1.2-2.4-2.4-2.6c-0.9-0.2-1.8,0.4-2,1.3c0,0,0,0,0,0c-0.6,2.1,1,3,2.2,2.6
		c0.6-0.3,0.9-0.9,0.8-1.5c-0.1-0.5-0.4-1-0.9-1.1c-0.4-0.1-0.8,0.2-0.9,0.6c-0.1,0.6,0.1,1,0.5,1.1S184.4,81.5,184.3,81.2"/>
	<path id="path98" class="st3" d="M181.8,88.9c0.1,0.2,0.2,0.1,0.4,0.3c0.1,0.2,0.1,0.4-0.1,0.5c0,0,0,0,0,0c-0.2,0.1-0.5,0-0.8-0.3
		c-0.3-0.4-0.2-0.9,0.1-1.2c0.5-0.4,1.2-0.4,1.6,0.1c0.5,0.6,0.5,1.4,0.1,2c-0.5,0.7-1.4,0.9-2.2,0.4c-0.1-0.1-0.2-0.2-0.3-0.3
		c-0.7-0.7-0.9-1.7-0.7-2.6c0.1-0.8,0.6-1.6,1.2-2.1c-0.3-0.6-0.3-1.3,0.1-1.9c0.1-0.2,0.3-0.1,0.3,0c0,0.3-0.1,1.2,1.2,1.7
		c1.2,0.3,2.2,1.3,2.7,2.5l-0.5,1.5c0-1.3-0.8-2.4-2-2.9c-0.6-0.2-1.2-0.1-1.8,0.2c1.1-0.4,2.3,0.1,2.9,1.1c0.6,1,0.8,2.6-1,4.4
		c0.3,0.6,0.3,1.3-0.1,1.8c-0.1,0.1-0.2,0.1-0.3-0.1c0.1-0.8-0.5-1.6-1.2-1.8c-1.2-0.3-2.2-1.1-2.7-2.3l0.5-1.5
		c0,1.3,0.8,2.5,2.1,2.9c0.9,0.3,1.8-0.2,2.1-1c0.9-2-0.6-3.2-1.9-2.9c-0.6,0.2-1,0.7-1,1.3c-0.1,0.6,0.3,1.2,0.9,1.4
		c0.4,0.1,0.8-0.1,1-0.5c0.2-0.6,0-1-0.4-1.1S181.7,88.7,181.8,88.9"/>
	<path id="path100" class="st3" d="M179.9,96.6c-0.1-0.2-0.2-0.2-0.3-0.4c-0.1-0.2,0-0.4,0.2-0.5c0,0,0,0,0,0c0.3,0,0.6,0.1,0.7,0.4
		c0.2,0.4,0.1,0.9-0.3,1.2c-0.5,0.4-1.3,0.2-1.6-0.3c0,0,0,0,0,0c-0.4-0.6-0.3-1.4,0.2-2c0.6-0.6,1.6-0.7,2.2-0.1
		c0.1,0.1,0.2,0.2,0.3,0.3c0.5,0.8,0.7,1.8,0.3,2.7c-0.2,0.8-0.8,1.5-1.6,1.9c0.2,0.6,0.1,1.3-0.4,1.8c-0.1,0.2-0.3,0-0.2-0.1
		c0.2-0.8-0.2-1.6-1-1.9c-1.2-0.5-2-1.5-2.3-2.7c0,0,0.3-0.7,0.7-1.4c-0.2,1.3,0.5,2.5,1.6,3.2c0.6,0.3,1.2,0.3,1.8,0
		c-1.2,0.2-2.3-0.4-2.8-1.5c-0.4-1.1-0.4-2.7,1.6-4.2c-0.2-0.6-0.1-1.3,0.4-1.8c0.1-0.1,0.3-0.1,0.2,0.1c-0.2,0.8,0.3,1.6,1,1.9
		c1.2,0.5,2,1.5,2.3,2.7l-0.7,1.4c0.2-1.3-0.5-2.6-1.6-3.2c-0.8-0.4-1.8-0.1-2.2,0.7c-1.1,1.8,0.1,3.2,1.4,3.2
		c0.6-0.1,1.1-0.6,1.2-1.2c0.1-0.6-0.1-1.2-0.7-1.5c-0.4-0.2-0.9-0.1-1.1,0.3c-0.3,0.6-0.2,1,0.2,1.2S179.9,96.9,179.9,96.6"/>
	<path id="path102" class="st3" d="M175.4,103.2c0,0.2,0.2,0.2,0.2,0.4c0.1,0.2,0,0.4-0.2,0.4c0,0,0,0,0,0c-0.3,0-0.6-0.2-0.7-0.5
		c-0.1-0.4,0-0.9,0.4-1.2c0.6-0.3,1.3,0,1.6,0.6c0.3,0.7,0.1,1.5-0.4,2c-0.7,0.6-1.6,0.5-2.2-0.2c-0.1-0.1-0.2-0.2-0.2-0.3
		c-0.4-0.8-0.4-1.9,0.1-2.7c0.3-0.8,1-1.4,1.8-1.7c-0.1-0.7,0.1-1.3,0.6-1.8c0.2-0.1,0.3,0,0.2,0.1c-0.3,0.8,0,1.6,0.7,2
		c1.1,0.6,1.8,1.8,1.9,3l-0.9,1.3c0.3-1.3-0.1-2.6-1.2-3.4c-0.5-0.4-1.2-0.5-1.8-0.2c1.2-0.1,2.2,0.7,2.5,1.9c0.2,1.2,0,2.8-2.2,4
		c0.1,0.6-0.1,1.3-0.6,1.7c-0.1,0.1-0.3,0-0.2-0.1c0.3-0.8,0-1.6-0.7-2c-1.1-0.6-1.8-1.7-1.9-3c0.1-0.2,0.9-1.3,0.9-1.3
		c-0.4,1.3,0.1,2.6,1.2,3.4c0.8,0.5,1.8,0.3,2.3-0.4c1.4-1.7,0.4-3.2-1-3.3c-0.6,0-1.1,0.4-1.3,1c-0.2,0.6,0,1.2,0.5,1.5
		c0.3,0.3,0.8,0.2,1.1-0.2c0.4-0.5,0.3-0.9-0.1-1.2S175.3,103,175.4,103.2"/>
	<path id="path104" class="st3" d="M171.3,110.1c0-0.2-0.1-0.2-0.2-0.4c0-0.2,0.1-0.4,0.3-0.4c0,0,0,0,0,0c0.2,0,0.5,0.2,0.6,0.6
		c0.1,0.5-0.2,0.9-0.6,1.1c-0.6,0.2-1.3-0.2-1.4-0.8c-0.2-0.7,0.1-1.5,0.8-1.9c0.7-0.4,1.7-0.2,2.2,0.5c0.1,0.1,0.1,0.2,0.2,0.4
		c0.3,0.9,0.1,1.9-0.5,2.7c-0.5,0.7-1.2,1.2-2,1.4c0,0.7-0.3,1.3-0.9,1.7c-0.2,0.1-0.3,0-0.2-0.1c0.4-0.7,0.3-1.6-0.4-2.1
		c-1-0.8-1.5-2-1.4-3.3l1-1.1c-0.5,1.2-0.3,2.6,0.6,3.5c0.5,0.4,1.1,0.6,1.7,0.5c-1.2-0.1-2.1-1-2.2-2.2c-0.1-1.2,0.4-2.7,2.8-3.6
		c0-0.7,0.3-1.3,0.9-1.6c0.1-0.1,0.3,0,0.2,0.2c-0.4,0.7-0.2,1.6,0.4,2.1c1,0.8,1.5,2,1.4,3.3l-1,1.2c0.6-1.2,0.3-2.6-0.7-3.5
		c-0.7-0.6-1.7-0.6-2.4,0c-1.6,1.4-0.8,3.1,0.5,3.4c0.6,0.1,1.2-0.2,1.4-0.8c0.3-0.5,0.2-1.2-0.2-1.6c-0.3-0.3-0.8-0.3-1.1,0
		c-0.4,0.5-0.4,0.9-0.1,1.2S171.3,110.3,171.3,110.1"/>
	<path id="path106" class="st3" d="M165.1,115.2c0,0.2,0.1,0.2,0.1,0.5c0,0.2-0.2,0.4-0.4,0.3c-0.3-0.1-0.5-0.4-0.5-0.7
		c0-0.5,0.3-0.9,0.8-1c0.6-0.1,1.2,0.3,1.3,1c0,0,0,0,0,0c0.1,0.8-0.3,1.5-1,1.8c-0.8,0.3-1.7,0-2.1-0.8c-0.1-0.1-0.1-0.3-0.1-0.4
		c-0.2-0.9,0.1-1.9,0.8-2.6c0.5-0.7,1.3-1,2.2-1.1c0.1-0.7,0.5-1.2,1.1-1.5c0.2-0.1,0.3,0.1,0.2,0.2c-0.5,0.6-0.5,1.6,0.1,2.1
		c0.9,0.9,1.2,2.2,1,3.4l-1.2,1c0.7-1.1,0.6-2.5-0.2-3.6c-0.4-0.5-1-0.8-1.6-0.7c1.1,0.3,1.9,1.3,1.9,2.5c-0.1,1.2-0.8,2.6-3.2,3.2
		c0,0.6-0.4,1.2-1,1.5c-0.1,0.1-0.3,0-0.2-0.2c0.5-0.6,0.4-1.5-0.1-2.1c-0.9-0.9-1.3-2.2-1-3.4l1.2-1c-0.7,1.1-0.6,2.5,0.2,3.6
		c0.6,0.7,1.6,0.8,2.4,0.3c1.8-1.2,1.2-3,0-3.5c-0.6-0.2-1.2,0.1-1.5,0.6c-0.4,0.5-0.4,1.1,0,1.6c0.3,0.3,0.8,0.4,1.1,0.2
		c0.5-0.4,0.5-0.8,0.3-1.2S165.2,114.9,165.1,115.2"/>
	<path id="path108" class="st3" d="M159.3,120.6c0.1-0.2-0.1-0.2-0.1-0.5c0-0.2,0.2-0.3,0.4-0.3c0.3,0.1,0.4,0.5,0.4,0.8
		c-0.1,0.5-0.4,0.8-0.9,0.9c-0.6,0-1.2-0.5-1.2-1.2c0-0.8,0.5-1.4,1.2-1.6c0.8-0.2,1.7,0.2,1.9,1c0,0.1,0.1,0.3,0.1,0.5
		c0,1-0.4,1.9-1.2,2.4c-0.6,0.6-1.5,0.8-2.3,0.8c-0.2,0.6-0.7,1.2-1.3,1.3c-0.2,0.1-0.3-0.1-0.2-0.2c0.6-0.6,0.7-1.5,0.2-2.1
		c-0.7-1-0.9-2.4-0.5-3.6l1.3-0.8c-0.8,1-1,2.4-0.3,3.5c0.3,0.6,0.8,0.9,1.5,1c-1.1-0.4-1.7-1.6-1.5-2.7c0.3-1.2,1.2-2.5,3.7-2.7
		c0.1-0.6,0.6-1.1,1.3-1.3c0.1,0,0.3,0.1,0.1,0.2c-0.6,0.6-0.6,1.4-0.2,2.1c0.7,1,0.9,2.3,0.5,3.5l-1.3,0.8c0.9-1,1-2.4,0.3-3.6
		c-0.5-0.8-1.5-1.1-2.3-0.6c-1.9,0.9-1.7,2.8-0.5,3.4c0.6,0.3,1.2,0.1,1.6-0.4c0.4-0.4,0.5-1.1,0.2-1.6c-0.2-0.4-0.7-0.5-1.1-0.3
		c0,0,0,0,0,0c-0.6,0.3-0.7,0.7-0.5,1.1C159,121,159.2,120.8,159.3,120.6"/>
	<path id="path110" class="st3" d="M151.9,123.7c-0.1,0.2,0,0.2,0,0.5c-0.1,0.2-0.3,0.3-0.4,0.2c0,0,0,0,0,0
		c-0.3-0.2-0.4-0.5-0.3-0.8c0.1-0.5,0.5-0.8,1-0.8c0.6,0.1,1.1,0.7,1,1.3c-0.1,0.7-0.7,1.3-1.4,1.4c-0.9,0.2-1.8-0.5-1.8-1.7
		c0.1-0.9,0.6-1.8,1.5-2.2c0.7-0.5,1.6-0.6,2.4-0.4c0.3-0.6,0.8-1.1,1.4-1.2c0.2,0,0.2,0.1,0.2,0.2c-0.7,0.5-0.9,1.4-0.5,2.1
		c0.6,1.1,0.6,2.4,0,3.6l-1.4,0.6c1-0.9,1.3-2.2,0.8-3.4c-0.2-0.6-0.7-1-1.4-1.2c1,0.6,1.5,1.8,1.1,2.9c-0.4,1.1-1.5,2.3-4,2.2
		c-0.2,0.6-0.8,1-1.4,1.1c-0.1,0-0.3-0.1-0.1-0.2c0.6-0.5,0.8-1.3,0.5-2c-0.6-1.1-0.6-2.4,0-3.6l1.4-0.6c-1,0.9-1.3,2.3-0.8,3.5
		c0.4,0.8,1.3,1.2,2.2,0.9c2.1-0.7,2-2.5,0.9-3.3c-0.5-0.3-1.2-0.3-1.6,0.2c-0.5,0.4-0.7,1-0.4,1.6c0.2,0.4,0.6,0.6,1,0.5
		c0.6-0.3,0.7-0.6,0.6-1.1S152,123.6,151.9,123.7"/>
	<path id="path112" class="st3" d="M144.8,127.3c0.1-0.2,0-0.3,0.1-0.5c0.1-0.2,0.3-0.2,0.5-0.2c0,0,0,0,0,0
		c0.2,0.2,0.3,0.6,0.1,0.8c-0.2,0.4-0.6,0.7-1.1,0.6c-0.6-0.2-1-0.8-0.8-1.4c0.2-0.7,0.9-1.2,1.7-1.2c0.9,0,1.5,0.7,1.5,1.6
		c0,0.1,0,0.3-0.1,0.4c-0.2,0.9-0.9,1.7-1.8,2c-0.8,0.3-1.7,0.3-2.4,0c-0.3,0.6-1,0.9-1.6,0.9c-0.2,0-0.2-0.2-0.1-0.2
		c0.8-0.3,1.1-1.2,0.8-2c-0.4-1.2-0.2-2.5,0.6-3.5l1.5-0.4c-1.1,0.7-1.6,2-1.3,3.3c0.2,0.6,0.6,1.1,1.2,1.3c-0.9-0.7-1.2-2-0.7-3.1
		c0.6-1,1.8-2,4.3-1.5c0.3-0.6,0.9-0.9,1.6-0.9c0.1,0,0.2,0.2,0.1,0.3c-0.7,0.4-1,1.2-0.8,2c0.4,1.2,0.2,2.5-0.6,3.5
		c-0.2,0.1-1.5,0.4-1.5,0.4c1.1-0.7,1.7-2,1.3-3.3c-0.2-0.9-1.1-1.4-2-1.2c-2.1,0.4-2.4,2.2-1.5,3.2c0.5,0.4,1.1,0.4,1.6,0.1
		c0.5-0.3,0.8-0.9,0.7-1.5c-0.1-0.4-0.5-0.7-0.9-0.6c0,0,0,0,0,0c-0.6,0.2-0.8,0.5-0.8,0.9S144.7,127.5,144.8,127.3"/>
	<path id="path114" class="st3" d="M136.8,128.2c-0.1,0.2,0,0.3-0.1,0.5c-0.1,0.2-0.3,0.2-0.5,0.1c0,0,0,0,0,0
		c-0.2-0.2-0.2-0.6,0-0.8c0.2-0.4,0.7-0.6,1.2-0.4c0.6,0.3,0.9,0.9,0.6,1.5c-0.3,0.7-1,1.1-1.8,1c-0.9-0.1-1.4-0.9-1.3-1.8
		c0-0.1,0.1-0.3,0.1-0.4c0.4-0.9,1.1-1.5,2.1-1.7c0.8-0.3,1.7-0.2,2.4,0.3c0.4-0.5,1.1-0.8,1.7-0.7c0.2,0,0.2,0.2,0.1,0.2
		c-0.3,0.1-1.2,0.4-1,1.9c0.2,1.2-0.1,2.5-1,3.4l-1.5,0.2c1.2-0.6,1.9-1.8,1.8-3.1c-0.1-0.6-0.4-1.2-1-1.5c0.8,0.8,0.9,2.2,0.3,3.1
		c-0.7,0.9-2.1,1.8-4.4,0.9c-0.4,0.5-1,0.8-1.7,0.7c-0.1,0-0.2-0.2,0-0.3c0.7-0.3,1.1-1.1,1-1.8c-0.2-1.2,0.1-2.5,1-3.4l1.5-0.2
		c-1.2,0.6-1.9,1.8-1.8,3.1c0.1,0.9,0.9,1.6,1.8,1.5c2.2-0.1,2.6-1.8,1.9-2.9c-0.4-0.4-1.1-0.6-1.6-0.3c-0.6,0.2-0.9,0.8-0.9,1.4
		c0,0.4,0.4,0.8,0.8,0.7c0.6-0.1,0.9-0.4,0.9-0.8C137.4,128.1,137.1,128.1,136.8,128.2"/>
	<path id="path116" class="st3" d="M129.1,129.6c0.2-0.1,0.1-0.2,0.2-0.4c0.1-0.1,0.3-0.1,0.5,0c0,0,0,0,0,0
		c0.2,0.3,0.1,0.6-0.1,0.9c-0.3,0.4-0.8,0.5-1.2,0.3c-0.5-0.4-0.7-1.1-0.4-1.6c0.4-0.6,1.2-0.9,1.9-0.7c0.8,0.3,1.3,1.1,1,2
		c0,0.1-0.1,0.2-0.2,0.3c-0.5,0.8-1.3,1.4-2.3,1.4c-0.8,0.1-1.7-0.1-2.3-0.6c-0.5,0.4-1.2,0.6-1.8,0.4c-0.2-0.1-0.2-0.2-0.1-0.2
		c0.8-0.1,1.4-0.9,1.3-1.7c0-1.3,0.5-2.5,1.5-3.2h1.5c-1.2,0.4-2.1,1.5-2.2,2.8c0,0.6,0.2,1.2,0.7,1.6c-0.7-1-0.6-2.3,0.2-3.1
		c0.8-0.8,2.3-1.5,4.5-0.3c0.5-0.5,1.2-0.6,1.8-0.4c0.1,0,0.2,0.2,0,0.3c-0.8,0.2-1.3,0.9-1.3,1.7c0.1,1.3-0.5,2.5-1.5,3.2h-1.5
		c1.3-0.4,2.1-1.5,2.2-2.8c0-0.9-0.7-1.7-1.6-1.8c-2.2-0.2-2.9,1.4-2.3,2.6c0.3,0.5,1,0.7,1.6,0.5c0.6-0.1,1-0.6,1.1-1.2
		c0-0.4-0.3-0.8-0.7-0.8c-0.6,0-0.9,0.2-1,0.7C128.5,129.8,128.8,129.8,129.1,129.6"/>
	<path id="path118" class="st3" d="M121.1,128.3c-0.2,0.1-0.1,0.2-0.3,0.4c-0.1,0.1-0.4,0.1-0.5,0c0,0,0,0,0,0
		c-0.1-0.3,0-0.6,0.2-0.8c0.3-0.3,0.9-0.4,1.2-0.1c0.5,0.4,0.6,1.1,0.2,1.6c-0.5,0.6-1.3,0.8-2,0.4c-0.8-0.4-1.1-1.3-0.8-2.1
		c0.1-0.1,0.1-0.2,0.2-0.4c0.6-0.8,1.5-1.2,2.4-1.1c0.8,0,1.7,0.3,2.3,0.9c0.5-0.4,1.2-0.5,1.9-0.2c0.2,0.1,0.1,0.2,0,0.2
		c-0.3,0-1.2,0.1-1.5,1.5c-0.1,1.2-0.8,2.4-1.9,3l-1.5-0.2c1.3-0.2,2.3-1.2,2.6-2.5c0.1-0.6-0.1-1.2-0.5-1.7c0.6,1,0.3,2.3-0.6,3.1
		c-0.9,0.7-2.5,1.2-4.5-0.3c-0.5,0.4-1.2,0.5-1.8,0.2c-0.1-0.1-0.2-0.2,0-0.3c0.8-0.1,1.4-0.7,1.5-1.5c0.1-1.3,0.8-2.4,1.9-3
		l1.5,0.2c-1.3,0.2-2.3,1.2-2.5,2.5c-0.1,0.9,0.4,1.8,1.3,1.9c2.1,0.5,3-1,2.6-2.3c-0.3-0.5-0.9-0.8-1.5-0.8c-0.6,0-1.1,0.5-1.2,1.1
		c-0.1,0.4,0.2,0.8,0.6,0.9c0.6,0.1,1-0.1,1.1-0.6S121.4,128.2,121.1,128.3"/>
	<path id="path120" class="st3" d="M113.2,127.5c0.2-0.1,0.1-0.2,0.3-0.3c0.2-0.1,0.4,0,0.5,0.1c0.1,0.3-0.1,0.6-0.4,0.7
		c-0.4,0.3-0.9,0.2-1.2-0.1c-0.4-0.5-0.4-1.2,0.1-1.7c0.6-0.5,1.4-0.5,2-0.1c0.7,0.5,0.9,1.4,0.4,2.2c-0.1,0.1-0.2,0.2-0.3,0.3
		c-0.7,0.7-1.7,0.9-2.6,0.7c-0.8-0.1-1.6-0.6-2.1-1.3c-0.6,0.3-1.3,0.3-1.9-0.1c-0.2-0.1-0.1-0.3,0-0.3c0.8,0.1,1.6-0.4,1.8-1.2
		c0.3-1.2,1.2-2.2,2.4-2.7l1.5,0.5c-1.3,0-2.4,0.8-2.9,2c-0.2,0.6-0.1,1.2,0.2,1.8c-0.4-1.1,0.1-2.3,1.1-2.9c1-0.6,2.7-0.7,4.4,1
		c0.6-0.3,1.3-0.3,1.8,0.1c0.1,0.1,0.1,0.2-0.1,0.2c-0.8,0-1.5,0.5-1.6,1.3c-0.3,1.2-1.2,2.2-2.4,2.7l-1.5-0.5
		c1.3,0,2.5-0.8,2.9-2.1c0.3-0.9-0.2-1.8-1-2.1c-2-0.9-3.2,0.5-2.9,1.8c0.2,0.6,0.7,1,1.3,1c0.6,0.1,1.2-0.3,1.4-0.9
		c0.1-0.4-0.1-0.8-0.4-1c-0.6-0.2-1,0-1.1,0.4S113,127.6,113.2,127.5"/>
	<path id="path122" class="st3" d="M106,124c-0.2,0.1-0.2,0.2-0.4,0.3c-0.2,0.1-0.4,0-0.5-0.2c0,0,0,0,0,0c0-0.3,0.1-0.6,0.4-0.7
		c0.4-0.2,0.9-0.1,1.2,0.3c0.4,0.5,0.2,1.3-0.3,1.6c-0.6,0.4-1.4,0.3-2-0.2c-0.6-0.6-0.7-1.6-0.1-2.2c0.1-0.1,0.2-0.2,0.3-0.3
		c0.8-0.6,1.8-0.7,2.7-0.3c0.8,0.2,1.5,0.8,1.9,1.5c0.6-0.2,1.3-0.1,1.8,0.3c0.2,0.1,0.1,0.3,0,0.2c-0.8-0.2-1.6,0.2-1.9,1
		c-0.5,1.2-1.5,2-2.7,2.3l-1.4-0.7c1.3,0.2,2.5-0.5,3.2-1.6c0.3-0.6,0.3-1.2,0-1.8c0.2,1.2-0.4,2.3-1.5,2.8
		c-1.1,0.4-2.7,0.4-4.2-1.6c-0.6,0.2-1.3,0.1-1.8-0.3c-0.1-0.1-0.1-0.3,0.1-0.2c0.8,0.2,1.6-0.3,1.9-1c0.5-1.2,1.5-2,2.7-2.3
		l1.4,0.7c-1.3-0.2-2.6,0.5-3.2,1.7c-0.4,0.8-0.1,1.8,0.7,2.3c1.8,1.1,3.2-0.1,3.2-1.5c-0.1-0.6-0.6-1.1-1.2-1.1
		c-0.6-0.1-1.2,0.1-1.5,0.7c-0.2,0.4-0.1,0.9,0.3,1.1c0.6,0.3,1,0.2,1.2-0.2S106.4,124,106,124"/>
	<path id="path124" class="st3" d="M98.7,121c0.2,0,0.2-0.2,0.4-0.2c0.2-0.1,0.4,0,0.4,0.2c0,0,0,0,0,0c0,0.3-0.2,0.6-0.5,0.7
		c-0.4,0.1-0.9,0-1.2-0.4c-0.3-0.6,0-1.3,0.6-1.6c0.7-0.3,1.5-0.1,2,0.5c0.5,0.7,0.5,1.6-0.2,2.2c-0.1,0.1-0.2,0.2-0.3,0.2
		c-0.8,0.4-1.9,0.4-2.7-0.1c-0.8-0.3-1.4-1-1.6-1.8c-0.7,0.1-1.3-0.1-1.8-0.6c-0.1-0.1,0-0.3,0.1-0.2c0.7,0.3,1.6,0,2-0.7
		c0.6-1.1,1.8-1.8,3-1.9l1.3,0.9c-1.2-0.3-2.6,0.1-3.4,1.1c-0.4,0.5-0.5,1.2-0.3,1.8c-0.1-1.2,0.7-2.2,1.9-2.5c1.2-0.2,2.8,0,4,2.2
		c0.6-0.1,1.3,0.1,1.7,0.6c0.1,0.1,0.1,0.3-0.1,0.2c-0.7-0.3-1.6,0-2,0.7c-0.6,1.1-1.7,1.8-3,1.9l-1.2-0.9c1.2,0.4,2.6-0.1,3.3-1.2
		c0.5-0.8,0.3-1.8-0.4-2.3c-1.7-1.4-3.2-0.3-3.3,1c0,0.6,0.4,1.1,1,1.3c0.6,0.2,1.2,0,1.6-0.5c0.3-0.4,0.2-0.8-0.2-1.1
		c-0.5-0.4-0.9-0.3-1.2,0S98.5,120.9,98.7,121"/>
	<path id="path126" class="st3" d="M92.8,115.6c-0.2,0-0.2,0.1-0.4,0.2c-0.2,0-0.4-0.1-0.4-0.3c0,0,0,0,0,0c0-0.2,0.2-0.5,0.6-0.6
		c0.5-0.1,0.9,0.2,1.1,0.6c0.2,0.6-0.2,1.3-0.8,1.5c-0.7,0.2-1.5-0.1-1.9-0.7c-0.5-0.7-0.2-1.7,0.5-2.1c0.1-0.1,0.2-0.1,0.4-0.2
		c0.9-0.3,1.9-0.2,2.7,0.4c0.7,0.4,1.2,1.2,1.4,2c0.7,0,1.3,0.3,1.7,0.8c0.1,0.2,0,0.3-0.1,0.2c-0.7-0.4-1.6-0.2-2.1,0.4
		c-0.8,1-2,1.5-3.2,1.5l-1.2-1c1.2,0.5,2.6,0.2,3.5-0.7c0.4-0.5,0.6-1.1,0.5-1.7c-0.1,1.2-1,2.1-2.2,2.2c-1.2,0.1-2.7-0.4-3.6-2.7
		c-0.7,0-1.3-0.3-1.6-0.8c-0.1-0.1,0-0.3,0.2-0.2c0.7,0.4,1.6,0.2,2.1-0.4c0.8-1,2-1.6,3.2-1.5c0.2,0.1,1.2,1,1.2,1
		c-1.2-0.6-2.6-0.3-3.5,0.7c-0.6,0.7-0.6,1.7,0.1,2.4c1.5,1.6,3.1,0.8,3.4-0.5c0.1-0.6-0.3-1.2-0.8-1.4c-0.5-0.3-1.2-0.2-1.6,0.2
		c-0.3,0.3-0.3,0.8,0,1.1c0,0,0,0,0,0c0.5,0.4,0.9,0.4,1.2,0.1S93,115.6,92.8,115.6"/>
	<path id="path128" class="st3" d="M86.6,110.6c0.2,0,0.2-0.1,0.5-0.1c0.2,0,0.3,0.2,0.3,0.3c0,0,0,0,0,0c0,0.2-0.3,0.5-0.7,0.5
		c-0.5,0-0.9-0.3-1-0.8c-0.1-0.6,0.4-1.2,1-1.3c0.7-0.1,1.5,0.3,1.8,1c0.3,0.8,0,1.7-0.8,2c-0.1,0.1-0.3,0.1-0.4,0.1
		c-0.9,0.2-1.9-0.1-2.5-0.8c-0.6-0.5-1-1.3-1.1-2.2c-0.7-0.1-1.2-0.5-1.5-1.1c-0.1-0.2,0.1-0.3,0.2-0.2c0.6,0.5,1.6,0.5,2.1-0.1
		c0.9-0.9,2.2-1.2,3.4-1l1,1.2c-1.1-0.7-2.5-0.6-3.5,0.1c-0.5,0.4-0.8,1-0.7,1.6c0.3-1.1,1.3-1.9,2.5-1.8c1.2,0.1,2.6,0.8,3.2,3.2
		c0.7,0.1,1.3,0.5,1.5,1.1c0.1,0.1,0,0.3-0.2,0.2c-0.6-0.5-1.5-0.4-2.1,0.1c-0.9,0.9-2.2,1.3-3.4,1l-1-1.2c1.1,0.7,2.5,0.7,3.6-0.2
		c0.7-0.6,0.8-1.6,0.3-2.3c-1.2-1.8-2.9-1.2-3.5,0c-0.2,0.6,0.1,1.2,0.6,1.5c0.5,0.4,1.1,0.4,1.6,0c0.3-0.3,0.4-0.7,0.2-1.1
		c-0.4-0.5-0.8-0.6-1.2-0.3C86.2,110.3,86.3,110.6,86.6,110.6"/>
	<path id="path130" class="st3" d="M82.4,103.7c-0.2-0.1-0.2,0.1-0.5,0.1c-0.2,0-0.3-0.2-0.3-0.4c0,0,0,0,0,0
		c0.1-0.3,0.5-0.4,0.8-0.4c0.5,0.1,0.8,0.4,0.9,0.9c0,0.6-0.5,1.2-1.2,1.2c-0.8,0-1.4-0.5-1.6-1.2c-0.2-0.8,0.2-1.7,1.1-1.9
		c0.1,0,0.3-0.1,0.4-0.1c1,0,1.9,0.4,2.4,1.2c0.6,0.6,0.8,1.5,0.8,2.3c0.6,0.2,1.2,0.6,1.4,1.3c0.1,0.2-0.1,0.3-0.2,0.2
		c-0.6-0.6-1.5-0.7-2.1-0.2c-1,0.7-2.3,0.9-3.5,0.5c0,0-0.4-0.7-0.8-1.3c1,0.8,2.4,1,3.5,0.3c0.5-0.3,0.9-0.9,1-1.5
		c-0.4,1.1-1.6,1.7-2.7,1.5c-1.2-0.2-2.5-1.2-2.7-3.6c-0.6-0.1-1.1-0.6-1.3-1.2c0-0.1,0.1-0.3,0.2-0.2c0.6,0.6,1.5,0.6,2.1,0.2
		c1-0.7,2.3-0.9,3.5-0.5c0.1,0.2,0.8,1.3,0.8,1.3c-1-0.9-2.5-1-3.6-0.3c-0.8,0.5-1.1,1.5-0.6,2.3c1,1.9,2.8,1.6,3.4,0.5
		c0.2-0.6,0.1-1.2-0.4-1.6c-0.4-0.4-1.1-0.5-1.6-0.2c-0.4,0.2-0.5,0.7-0.3,1.1c0.3,0.6,0.7,0.7,1.1,0.4S82.6,103.8,82.4,103.7"/>
	<path id="path132" class="st3" d="M77.8,97.2c0.2,0.1,0.2,0,0.5,0c0.2,0.1,0.3,0.3,0.2,0.4c0,0,0,0,0,0c-0.2,0.3-0.5,0.4-0.8,0.2
		c-0.4-0.1-0.8-0.5-0.7-1c0.1-0.6,0.7-1.1,1.3-1c0.7,0.1,1.3,0.7,1.4,1.4c0.2,0.9-0.5,1.8-1.8,1.7c-0.9-0.1-1.8-0.7-2.2-1.5
		c-0.5-0.7-0.6-1.6-0.4-2.4c-0.6-0.3-1-0.8-1.2-1.5c0-0.2,0.2-0.2,0.2-0.1c0.5,0.7,1.4,0.9,2.1,0.5c1.1-0.6,2.5-0.6,3.6,0l0.6,1.4
		c-0.9-1-2.2-1.3-3.4-0.9c-0.6,0.2-1,0.8-1.2,1.4c0.6-1,1.8-1.5,2.9-1.1c1.1,0.4,2.3,1.5,2.1,4c0.6,0.2,1,0.8,1.1,1.4
		c0,0.1-0.1,0.3-0.2,0.1c-0.5-0.6-1.3-0.8-2-0.5c-1.1,0.6-2.5,0.6-3.6,0c-0.1-0.2-0.6-1.4-0.6-1.4c0.9,1,2.3,1.3,3.5,0.8
		c0.8-0.4,1.3-1.3,0.9-2.2c-0.7-2.1-2.5-2-3.3-1c-0.3,0.5-0.3,1.2,0.1,1.6c0.3,0.5,1,0.7,1.6,0.4c0.4-0.2,0.6-0.6,0.5-1
		c-0.2-0.6-0.6-0.8-1-0.6S77.7,97.1,77.8,97.2"/>
	<path id="path134" class="st3" d="M75.8,89.4c-0.2-0.1-0.3,0-0.5-0.1c-0.2-0.1-0.2-0.3-0.2-0.5c0,0,0,0,0,0
		c0.2-0.3,0.6-0.3,0.8-0.1c0.4,0.2,0.7,0.6,0.6,1.1c-0.2,0.6-0.8,1-1.4,0.8c-0.7-0.2-1.2-0.9-1.2-1.6c0-0.9,0.7-1.6,1.6-1.5
		c0.1,0,0.3,0,0.4,0.1c0.9,0.2,1.7,0.9,2,1.8c0.4,0.8,0.4,1.6,0.1,2.4c0.6,0.3,1,0.9,1,1.6c0,0.2-0.2,0.2-0.2,0.1
		c-0.4-0.7-1.2-1.1-2-0.8c-1.2,0.4-2.5,0.2-3.5-0.5l-0.4-1.5c0.7,1,2,1.6,3.2,1.3c0.6-0.2,1.1-0.6,1.3-1.2c-0.7,0.9-2,1.2-3.1,0.7
		c-1-0.6-2.1-1.8-1.6-4.2c-0.6-0.3-0.9-0.9-0.9-1.6c0-0.1,0.2-0.2,0.2-0.1c0.4,0.7,1.2,1,2,0.8c1.2-0.4,2.5-0.2,3.5,0.5l0.4,1.5
		c-0.7-1.1-2.1-1.6-3.4-1.3c-0.9,0.2-1.4,1.1-1.2,2c0.4,2.1,2.2,2.3,3.2,1.4c0.4-0.5,0.4-1.1,0.1-1.7c-0.3-0.5-0.9-0.8-1.5-0.7
		c-0.4,0.1-0.7,0.5-0.6,0.9c0.2,0.6,0.5,0.8,1,0.8C76.1,89.8,76,89.5,75.8,89.4"/>
	<path id="path136" class="st3" d="M73.2,81.8c0.2,0.2,0.2,0,0.5,0.2c0.2,0.1,0.2,0.3,0.1,0.5c0,0,0,0,0,0c-0.2,0.2-0.6,0.2-0.8,0
		c-0.4-0.2-0.6-0.7-0.4-1.2c0.3-0.6,1-0.8,1.6-0.6c0.7,0.3,1.1,1.1,0.9,1.8c-0.2,0.9-1,1.4-1.8,1.3c-0.1,0-0.3-0.1-0.4-0.1
		c-0.9-0.4-1.5-1.2-1.7-2.1c-0.2-0.8-0.1-1.7,0.3-2.4c-0.5-0.4-0.8-1.1-0.7-1.7c0-0.2,0.2-0.2,0.2-0.1c0.2,0.8,1,1.3,1.8,1.1
		c1.2-0.2,2.5,0.2,3.4,1.1c0,0,0.1,0.7,0.2,1.5c-0.6-1.2-1.8-1.9-3.1-1.8c-0.6,0.1-1.2,0.4-1.5,0.9c0.8-0.8,2.2-0.9,3.1-0.2
		c0.9,0.7,1.8,2.1,0.9,4.4c0.5,0.4,0.8,1.1,0.7,1.7c0,0.1-0.2,0.2-0.3,0c-0.3-0.7-1.1-1.1-1.8-1c-1.2,0.2-2.5-0.2-3.4-1
		c0-0.2-0.2-1.5-0.2-1.5c0.5,1.2,1.8,1.9,3.1,1.8c0.9-0.1,1.6-0.9,1.5-1.8c0-2.2-1.8-2.6-2.9-1.9c-0.5,0.4-0.6,1.1-0.3,1.6
		c0.2,0.6,0.8,0.9,1.4,0.9c0.4,0,0.8-0.4,0.7-0.8c-0.1-0.6-0.4-0.9-0.8-0.9C73,81.4,73.1,81.7,73.2,81.8"/>
	<path id="path138" class="st3" d="M73.5,73.8c-0.2-0.2-0.2-0.1-0.4-0.2c-0.1-0.1-0.1-0.4,0-0.5c0,0,0,0,0,0
		c0.3-0.2,0.6-0.1,0.8,0.1c0.4,0.3,0.5,0.8,0.3,1.2c-0.3,0.5-1.1,0.7-1.6,0.4c-0.6-0.4-0.9-1.2-0.7-1.9c0.2-0.8,1.1-1.3,1.9-1
		c0.1,0,0.3,0.1,0.4,0.2c0.8,0.5,1.4,1.3,1.4,2.3c0.1,0.8-0.1,1.7-0.6,2.3c0.5,0.5,0.6,1.2,0.5,1.8c0,0.2-0.2,0.2-0.2,0.1
		c-0.1-0.8-0.9-1.4-1.7-1.3c-1.3,0-2.5-0.5-3.2-1.5c0,0,0-0.8,0-1.6c0.4,1.2,1.5,2.1,2.8,2.2c0.6,0,1.2-0.3,1.6-0.7
		c-1,0.7-2.3,0.6-3.1-0.2c-0.8-0.8-1.5-2.3-0.3-4.5c-0.5-0.5-0.6-1.1-0.5-1.8c0-0.1,0.2-0.2,0.3,0c0.2,0.8,0.9,1.3,1.7,1.3
		c1.3-0.1,2.5,0.5,3.2,1.5c0,0.2,0,1.6,0,1.6c-0.4-1.3-1.5-2.2-2.8-2.2c-0.9,0-1.7,0.7-1.8,1.6c-0.2,2.1,1.5,2.9,2.6,2.3
		c0.5-0.3,0.7-1,0.5-1.6c-0.1-0.6-0.6-1-1.2-1c-0.4,0-0.8,0.3-0.8,0.7c0,0.6,0.2,0.9,0.7,1C73.6,74.5,73.6,74.1,73.5,73.8"/>
	<path id="path140" class="st3" d="M73.1,65.9c0.1,0.2,0.2,0.1,0.4,0.3c0.1,0.1,0.1,0.4,0,0.5c0,0,0,0,0,0c-0.3,0.1-0.6,0-0.8-0.2
		c-0.3-0.3-0.4-0.9-0.1-1.3c0.4-0.5,1.2-0.5,1.7-0.1c0.5,0.5,0.7,1.3,0.4,1.9c-0.4,0.8-1.3,1.1-2.1,0.7c-0.1-0.1-0.2-0.1-0.4-0.2
		c-0.7-0.6-1.1-1.5-1.1-2.5c0-0.8,0.3-1.7,0.9-2.2c-0.3-0.5-0.4-1.2-0.2-1.8c0.1-0.2,0.2-0.1,0.3,0c0,0.3,0.1,1.2,1.5,1.5
		c1.2,0.2,2.4,0.9,3,2c0,0-0.1,0.8-0.3,1.5c-0.2-1.3-1.2-2.3-2.4-2.6c-0.6-0.1-1.2,0.1-1.7,0.5c1-0.5,2.3-0.3,3.1,0.7
		c0.7,0.9,1.1,2.5-0.3,4.5c0.4,0.5,0.5,1.2,0.2,1.8c-0.1,0.1-0.2,0.2-0.3,0c-0.1-0.8-0.7-1.4-1.5-1.5c-1.3-0.1-2.4-0.8-3-1.9
		l0.2-1.6c0.2,1.3,1.2,2.3,2.5,2.6c0.9,0.2,1.8-0.4,2-1.3c0.6-2.1-1-3-2.3-2.6c-0.5,0.3-0.9,0.9-0.8,1.5c0,0.6,0.5,1.1,1.1,1.2
		c0.4,0.1,0.8-0.2,0.9-0.6c0.1-0.6-0.1-1-0.5-1.1S73.1,65.7,73.1,65.9"/>
	<path id="path142" class="st3" d="M75.7,58.2c-0.1-0.2-0.2-0.1-0.4-0.3c-0.1-0.2-0.1-0.4,0.1-0.5c0,0,0,0,0,0
		c0.3-0.1,0.6,0,0.8,0.3c0.3,0.4,0.2,0.9-0.1,1.2c-0.5,0.4-1.2,0.4-1.7-0.1c-0.5-0.6-0.5-1.4-0.2-2c0.5-0.7,1.5-0.9,2.2-0.4
		c0.1,0.1,0.2,0.2,0.3,0.3c0.7,0.7,0.9,1.7,0.7,2.6c-0.1,0.8-0.5,1.6-1.2,2.1c0.3,0.6,0.3,1.3-0.1,1.9c-0.1,0.2-0.3,0.1-0.3,0
		c0-0.3,0.1-1.2-1.3-1.7c-1.2-0.3-2.2-1.2-2.7-2.3l0.5-1.5c0,1.3,0.9,2.4,2.1,2.9c0.6,0.2,1.2,0.1,1.8-0.3c-1.1,0.4-2.4,0-3-1
		c-0.6-1-0.8-2.6,1-4.4c-0.3-0.6-0.3-1.3,0-1.8c0.1-0.1,0.2-0.1,0.3,0.1c0,0.8,0.5,1.5,1.3,1.7c1.2,0.3,2.2,1.2,2.7,2.3L78,58.7
		c0-1.3-0.9-2.5-2.1-2.9c-0.9-0.3-1.8,0.2-2.1,1.1c-0.8,2,0.6,3.1,1.9,2.9c0.6-0.2,1-0.7,1-1.3c0.1-0.6-0.3-1.2-0.9-1.4
		c-0.4-0.1-0.9,0.1-1,0.5c-0.2,0.6,0,1,0.4,1.1S75.7,58.5,75.7,58.2"/>
	<path id="path144" class="st3" d="M77.6,50.5c0.1,0.2,0.2,0.2,0.3,0.4c0.1,0.2,0,0.4-0.1,0.4c0,0,0,0,0,0c-0.2,0.1-0.5-0.1-0.7-0.5
		c-0.2-0.4-0.1-0.9,0.3-1.2c0.5-0.4,1.2-0.2,1.6,0.3c0.4,0.6,0.3,1.5-0.2,2c-0.6,0.6-1.6,0.7-2.2,0.1c-0.1-0.1-0.2-0.2-0.3-0.3
		c-0.5-0.8-0.7-1.8-0.3-2.7c0.3-0.8,0.8-1.4,1.6-1.8c-0.2-0.6-0.1-1.3,0.4-1.8c0.1-0.2,0.3-0.1,0.2,0.1c-0.2,0.8,0.2,1.6,1,1.9
		c1.1,0.5,2,1.5,2.3,2.8l-0.7,1.4c0.2-1.3-0.5-2.5-1.6-3.2c-0.6-0.3-1.2-0.3-1.8,0c1.2-0.2,2.3,0.4,2.8,1.5c0.4,1.1,0.3,2.7-1.7,4.2
		c0.2,0.6,0.1,1.3-0.4,1.8c-0.1,0.1-0.3,0.1-0.2-0.1c0.2-0.8-0.3-1.6-1-1.9c-1.2-0.5-2-1.5-2.3-2.7l0.7-1.4
		c-0.2,1.3,0.4,2.6,1.7,3.2c0.8,0.4,1.8,0.1,2.3-0.7c1.1-1.8-0.1-3.2-1.4-3.2c-0.6,0.1-1.1,0.6-1.2,1.2c-0.1,0.6,0.1,1.2,0.7,1.5
		c0.4,0.2,0.8,0.1,1.1-0.3c0,0,0,0,0,0c0.3-0.6,0.2-1-0.2-1.2S77.5,50.3,77.6,50.5"/>
	<path id="path146" class="st3" d="M82.1,43.9c0-0.2-0.2-0.2-0.3-0.4c-0.1-0.2,0-0.4,0.2-0.4c0,0,0,0,0,0c0.3,0,0.6,0.2,0.7,0.5
		c0.1,0.4,0,0.9-0.5,1.2c-0.6,0.3-1.3,0-1.6-0.6c-0.3-0.7-0.1-1.5,0.4-2c0.7-0.6,1.7-0.5,2.2,0.2c0.1,0.1,0.2,0.2,0.2,0.3
		c0.4,0.9,0.4,1.9-0.1,2.7c-0.3,0.8-1,1.4-1.8,1.7c0.1,0.7-0.1,1.3-0.6,1.8c-0.2,0.1-0.3,0-0.2-0.1c0.3-0.8,0-1.6-0.7-2
		c-1.1-0.6-1.8-1.8-1.9-3l0.9-1.3c-0.3,1.2,0.1,2.6,1.2,3.4c0.5,0.3,1.2,0.4,1.8,0.2c-1.2,0.1-2.2-0.7-2.5-1.8c-0.2-1.2,0-2.8,2.2-4
		c-0.1-0.6,0.1-1.3,0.6-1.7c0.1-0.1,0.3,0,0.2,0.1c-0.3,0.8,0,1.6,0.7,2c1.1,0.6,1.8,1.7,1.9,3L84.3,45c0.4-1.3-0.1-2.6-1.2-3.4
		c-0.8-0.5-1.8-0.3-2.3,0.4c-1.4,1.7-0.3,3.2,1,3.3c0.6,0,1.1-0.4,1.3-1c0.2-0.6,0-1.2-0.5-1.5c-0.4-0.2-0.8-0.2-1.1,0.2
		c-0.4,0.5-0.3,0.9,0.1,1.2C81.9,44.5,82.1,44.2,82.1,43.9"/>
	<path id="path148" class="st3" d="M86.1,37.1c0,0.2,0.1,0.2,0.2,0.4c0,0.2-0.1,0.4-0.3,0.4c0,0,0,0,0,0c-0.2,0-0.5-0.2-0.6-0.6
		c-0.1-0.5,0.2-0.9,0.6-1.1c0.6-0.2,1.3,0.2,1.5,0.8c0.2,0.7-0.1,1.5-0.7,1.9c-0.7,0.5-1.7,0.2-2.1-0.5c-0.1-0.1-0.1-0.3-0.2-0.4
		c-0.3-0.9-0.1-1.9,0.5-2.7c0.5-0.7,1.2-1.2,2-1.4c0-0.7,0.3-1.3,0.9-1.7c0.2-0.1,0.3,0,0.2,0.1c-0.4,0.7-0.3,1.6,0.4,2.1
		c1,0.8,1.5,2,1.5,3.3l-1,1.1c0.5-1.2,0.3-2.6-0.7-3.5c-0.5-0.4-1.1-0.6-1.7-0.5c1.2,0.1,2.1,1,2.2,2.2c0.1,1.2-0.4,2.7-2.7,3.6
		c0,0.7-0.3,1.3-0.8,1.6c-0.1,0.1-0.3,0-0.2-0.2c0.4-0.7,0.2-1.6-0.4-2.1c-1-0.8-1.5-2-1.4-3.2c0.1-0.2,1-1.2,1-1.2
		c-0.6,1.2-0.3,2.6,0.7,3.5c0.7,0.6,1.7,0.6,2.4,0c1.6-1.5,0.8-3.1-0.5-3.4c-0.6-0.1-1.2,0.2-1.4,0.8c-0.3,0.5-0.2,1.2,0.2,1.6
		c0.3,0.3,0.8,0.3,1.1,0c0.4-0.5,0.4-0.9,0.1-1.2C86.3,36.6,86.1,36.9,86.1,37.1"/>
	<path id="path150" class="st3" d="M92.3,32c0-0.2-0.1-0.2-0.1-0.5c0-0.2,0.2-0.4,0.4-0.4l0,0c0.3,0.1,0.5,0.4,0.5,0.7
		c0,0.5-0.3,0.9-0.8,1c-0.6,0.1-1.2-0.3-1.3-1c0,0,0,0,0,0c-0.1-0.7,0.3-1.5,1-1.8c0.8-0.3,1.7,0,2.1,0.8c0.1,0.1,0.1,0.3,0.1,0.4
		c0.2,0.9-0.1,1.9-0.8,2.6c-0.5,0.7-1.3,1.1-2.2,1.1c-0.1,0.7-0.5,1.2-1.1,1.5c-0.2,0.1-0.3-0.1-0.2-0.2c0.5-0.6,0.5-1.6-0.1-2.1
		c-0.9-0.9-1.2-2.2-1-3.4l1.2-1c-0.7,1.1-0.6,2.5,0.2,3.5c0.4,0.5,1,0.7,1.6,0.7c-1.2-0.3-2-1.3-1.9-2.5c0.1-1.2,0.8-2.6,3.2-3.2
		c0-0.6,0.4-1.2,1-1.5c0.1-0.1,0.3,0,0.2,0.2c-0.5,0.6-0.4,1.5,0.1,2.1c0.9,0.9,1.3,2.2,1,3.4l-1.2,1c0.7-1.1,0.6-2.5-0.2-3.6
		c-0.6-0.7-1.6-0.8-2.3-0.3c-1.8,1.2-1.2,3,0,3.5c0.6,0.2,1.2-0.1,1.5-0.6c0.4-0.5,0.4-1.2,0-1.6c-0.3-0.3-0.8-0.4-1.1-0.1
		c-0.5,0.4-0.5,0.8-0.3,1.2C91.9,32.4,92.2,32.3,92.3,32"/>
	<path id="path152" class="st3" d="M98.1,26.6c-0.1,0.2,0.1,0.2,0.1,0.5c0,0.2-0.2,0.3-0.4,0.3c0,0,0,0,0,0
		c-0.3-0.1-0.4-0.5-0.4-0.8c0.1-0.5,0.4-0.8,0.9-0.9c0.6,0,1.2,0.5,1.2,1.2c0,0.8-0.5,1.4-1.2,1.6c-0.8,0.2-1.7-0.2-1.9-1.1
		c0-0.1-0.1-0.3-0.1-0.5c0-1,0.4-1.9,1.2-2.4c0.6-0.6,1.5-0.8,2.3-0.7c0.2-0.6,0.7-1.1,1.3-1.4c0.2,0,0.3,0.1,0.2,0.2
		c-0.6,0.5-0.7,1.5-0.2,2.1c0.7,1,0.9,2.4,0.5,3.5l-1.3,0.8c0.8-1,1-2.4,0.4-3.5c-0.3-0.5-0.9-0.9-1.5-1c1.1,0.4,1.7,1.6,1.5,2.7
		c-0.2,1.1-1.2,2.5-3.7,2.7c-0.1,0.6-0.6,1.1-1.2,1.3c-0.1,0-0.3-0.1-0.2-0.2c0.6-0.6,0.6-1.5,0.2-2.1c-0.7-1-0.9-2.3-0.4-3.5
		l1.3-0.8c-0.9,1-1,2.4-0.3,3.6c0.5,0.8,1.5,1,2.3,0.6c2-0.9,1.7-2.7,0.5-3.4c-0.6-0.2-1.2-0.1-1.6,0.4c-0.4,0.4-0.5,1.1-0.2,1.6
		c0.2,0.4,0.7,0.5,1.1,0.3c0,0,0,0,0,0c0.6-0.3,0.7-0.7,0.5-1.1S98.2,26.3,98.1,26.6"/>
	<path id="path154" class="st3" d="M105.5,23.4c0.1-0.2,0-0.2,0-0.5c0.1-0.2,0.3-0.3,0.4-0.2c0.3,0.2,0.4,0.5,0.3,0.8
		c-0.1,0.4-0.5,0.8-1,0.7c-0.6-0.1-1.1-0.7-1-1.3c0.1-0.7,0.7-1.3,1.4-1.4c0.9-0.2,1.8,0.5,1.8,1.8c-0.1,1-0.7,1.8-1.5,2.2
		c-0.7,0.5-1.6,0.6-2.4,0.4c-0.3,0.6-0.8,1-1.5,1.2c-0.2,0-0.2-0.1-0.2-0.2c0.7-0.5,0.9-1.4,0.5-2.1c-0.6-1.1-0.6-2.4,0-3.6l1.4-0.6
		c-1,0.9-1.3,2.2-0.8,3.5c0.2,0.6,0.7,1,1.3,1.1c-1-0.6-1.5-1.8-1.1-2.9c0.4-1.1,1.5-2.3,4-2.1c0.2-0.6,0.8-1,1.4-1.2
		c0.1,0,0.2,0.1,0.1,0.2c-0.6,0.5-0.8,1.3-0.5,2c0.6,1.1,0.6,2.4,0,3.6l-1.4,0.6c1-0.8,1.3-2.2,0.8-3.5c-0.4-0.8-1.3-1.2-2.2-0.9
		c-2,0.6-2,2.5-1,3.3c0.5,0.3,1.2,0.3,1.6-0.1c0.5-0.3,0.7-1,0.4-1.5c-0.2-0.4-0.6-0.6-1-0.5c-0.6,0.2-0.8,0.6-0.6,1
		S105.4,23.6,105.5,23.4"/>
	<path id="path156" class="st3" d="M112.6,19.8c-0.1,0.2,0,0.2-0.1,0.5c-0.1,0.2-0.3,0.2-0.5,0.2c0,0,0,0,0,0
		c-0.2-0.2-0.3-0.6-0.1-0.8c0.2-0.4,0.6-0.7,1.1-0.6c0.6,0.2,1,0.8,0.8,1.5c-0.2,0.7-0.9,1.2-1.7,1.2c-0.9,0-1.5-0.7-1.5-1.6
		c0-0.1,0-0.3,0.1-0.4c0.2-0.9,0.9-1.7,1.8-2c0.8-0.4,1.6-0.4,2.4,0c0.3-0.6,0.9-1,1.6-1c0.2,0,0.2,0.2,0.1,0.2
		c-0.8,0.4-1.1,1.2-0.8,2c0.4,1.2,0.2,2.5-0.6,3.5l-1.5,0.4c1.1-0.7,1.6-2,1.4-3.3c-0.2-0.6-0.6-1.1-1.2-1.3c0.9,0.7,1.2,2,0.7,3.1
		c-0.6,1-1.8,2-4.3,1.5c-0.3,0.6-0.9,0.9-1.6,0.9c-0.1,0-0.2-0.1-0.1-0.2c0.7-0.4,1-1.2,0.8-2c-0.4-1.1-0.2-2.4,0.5-3.4l1.5-0.4
		c-1.1,0.7-1.7,2-1.3,3.3c0.2,0.9,1.1,1.4,2,1.2c2.1-0.4,2.4-2.1,1.5-3.1c-0.5-0.4-1.1-0.4-1.7-0.1c-0.5,0.3-0.8,0.9-0.7,1.5
		c0.1,0.4,0.5,0.7,0.9,0.6c0.6-0.1,0.8-0.5,0.8-0.9S112.8,19.7,112.6,19.8"/>
	<path id="path158" class="st3" d="M120.6,18.9c0.2-0.2,0-0.3,0.1-0.5c0.1-0.2,0.3-0.2,0.5-0.1c0.2,0.3,0.2,0.6,0,0.9
		c-0.2,0.4-0.7,0.6-1.2,0.4c-0.6-0.3-0.9-0.9-0.6-1.5c0.3-0.7,1-1.1,1.8-1c0.9,0.1,1.4,0.9,1.3,1.8c0,0.1-0.1,0.3-0.1,0.4
		c-0.4,0.9-1.1,1.5-2,1.7c-0.8,0.3-1.7,0.2-2.4-0.3c-0.4,0.5-1.1,0.8-1.7,0.7c-0.2,0-0.2-0.2-0.1-0.2c0.3-0.1,1.2-0.4,1.1-1.9
		c-0.2-1.2,0.2-2.5,1-3.4l1.5-0.2c-1.2,0.6-1.9,1.8-1.8,3.1c0.1,0.6,0.4,1.2,1,1.5c-0.8-0.8-0.9-2.1-0.3-3.1c0.7-1,2.1-1.8,4.4-1
		c0.4-0.5,1-0.8,1.7-0.7c0.1,0,0.2,0.2,0,0.3c-0.7,0.3-1.1,1.1-1,1.8c0.2,1.2-0.1,2.5-1,3.4l-1.5,0.2c1.2-0.5,1.9-1.8,1.8-3.1
		c-0.1-0.9-0.9-1.6-1.8-1.5c-2.2,0.1-2.6,1.8-1.9,2.9c0.4,0.5,1.1,0.6,1.6,0.3c0.6-0.2,0.9-0.8,0.9-1.4c0-0.4-0.4-0.8-0.8-0.7
		c-0.6,0.1-0.9,0.4-0.9,0.8S120.4,19.1,120.6,18.9"/>
	<path id="path160" d="M127.7,77c0-0.1,0.2-0.1,0.3,0s0,0.6,0.5,0.6s0.4-0.3,0.4-0.6c0-0.1,0.1-0.1,0.2-0.1c0,0,0.1,0,0.1,0.1
		c0.2,0.4,0.1,1-0.2,1.3c0,0.2,0,0.6,0,0.6s-0.3,0.2-0.7,0.2c-0.1,0-0.2,0.2,0,0.2c0.2,0,0.5,0,0.7-0.1c0.3-0.2,0.4-0.1,0.8-0.1
		c1,0.3,1.7,1.2,1.7,2.2c0,0,0.3,2.5,0.4,3.6c0.1,0.8,0.4,1.5,1,2.1c0.8,0.6,1.3,1.5,1.5,2.4c-2.5-2.3-9.4-2.2-11.9,0
		c0.2-1,0.8-1.8,1.6-2.4c0.6-0.6,0.9-1.3,1-2.1c0,0,0.3-2.8,0.4-3.5c0.1-1,0.8-1.8,1.7-2.2c0.4-0.1,0.8-0.1,0.8-0.3s0-0.6,0-0.6
		C127.6,78.2,127.4,77.8,127.7,77"/>
	<path id="path162" class="st4" d="M125.8,88c2-0.4,4-0.3,6,0.2c0.9,0.2,1.8,0.7,2.6,1.3c0.1,0.4,0,0.9-0.2,1.2
		c-1,0.8-2.4,1.7-5.5,1.7c-3.6,0-4.9-0.8-5.9-1.7c-0.4-0.4-0.4-1,0-1.3c0,0,0,0,0,0C123.7,88.7,124.7,88.2,125.8,88"/>
	<path id="path164" d="M125.5,88.3c1.9-0.4,3.9-0.4,5.9,0c1,0.2,1.9,0.6,2.7,1.2c0.3,0.2,0.4,0.7,0.2,1c-0.1,0.1-0.1,0.2-0.2,0.2
		c-0.8,0.6-1.7,1.1-2.7,1.3c-1.9,0.4-3.9,0.4-5.9,0c-1-0.2-1.9-0.6-2.7-1.3c-0.4-0.4-0.5-0.8,0-1.3c0.1-0.1,0.3-0.2,0.4-0.3
		c0.1,0.1,0.2,0.2,0.3,0.3c-0.7,0.1-0.5,0.8,1.2,1.4c1.5,0.5,3,0.7,4.6,0.6c1.5,0,2.9-0.6,4.1-1.5c0.1-0.1,0-0.2-0.1-0.1
		c-0.3,0.2-0.7,0.5-1.1,0.6c-0.5,0.1-0.9,0.2-1.4,0.1c0.4-0.1,0.8-0.3,1.1-0.4c0.1-0.1,0.1-0.2-0.1-0.1c-0.6,0.1-1.2,0.1-1.7,0.1
		c-0.1,0-0.2-0.1-0.3-0.2c-0.1-0.3-0.1-0.6-0.1-0.9c-0.1-0.3-0.3-0.2-0.2-0.1c0.1,0.5,0.2,1.8-1.1,1.6c-0.3-0.1-0.4-0.2-0.2-0.4
		c0.5-0.3,0.5-1.7-0.5-1.6c-0.7,0.1-1.1,1.6,0.2,2.2c0.6,0.2,1.3,0.2,1.9,0.1c0.8-0.1,1.7-0.1,2.3-0.1c-1.1,0.5-2.3,0.7-3.6,0.6
		c-1.3,0-2.5-0.2-3.7-0.6c-1.1-0.4-1.8-1-1.2-1.2c0.6,0.5,1.2,0.8,1.9,0.9c0.4,0.1,0.9,0.1,1.3,0.1c0.1,0,0.2-0.2,0-0.2
		c-1-0.3-1.9-0.9-2.6-1.7C124.6,88.5,125.1,88.4,125.5,88.3"/>
	<path id="path166" class="st4" d="M129.2,80.9c0-0.2,0-0.7,0.4-0.7c0.4,0,0.7,0.4,0.7,0.7C129.9,80.9,129.5,80.9,129.2,80.9"/>
	<path id="path168" class="st4" d="M129.2,81.7c0.4,0,0.8,0,1.1,0c0,0,0.3,2.2,0.5,3.9c-0.5,0-1,0-1.5,0L129.2,81.7z"/>
	<path id="path170" class="st4" d="M129.6,86.2c0.1,0.2,0.2,0.9,0.3,1.2c0.9,0.1,1.7,0.3,2.6,0.6c-0.3-0.7-0.8-1.2-1.4-1.7
		C130.6,86.3,130.1,86.2,129.6,86.2"/>
	<path id="path172" class="st4" d="M127.2,81.2c-0.4,0.9-0.7,2-0.8,3c0,0.6-0.2,1.2-0.4,1.7c0.4-0.1,0.8-0.1,1.3-0.2
		C127.4,84.2,127.4,82.7,127.2,81.2"/>
	<path id="path174" class="st4" d="M123.7,87.4c0.6-0.5,1.3-0.8,2-0.9c0.9-0.1,1.2-0.2,1.9-0.2c0.2,0,0.4,0.1,0.4,0.3c0,0,0,0,0,0.1
		c0,0.3,0,1.1,0,1.1c-1.9,0-3.8,0.6-5.5,1.7C122.6,88.6,123,87.9,123.7,87.4"/>
	<path id="path176" d="M117.8,66.5c5.7-3.2,15.6-3.5,21.5,0v2l-0.7,0.5v1.3c0.3,0.2,0.5,0.4,0.7,0.6v2.8c-0.2,0.5-1.2,2.2-6.6,3.1
		c-2.8,0.4-5.7,0.4-8.6-0.1c-4.3-0.9-5.9-2.4-6.3-3v-2.9c0.2-0.2,0.4-0.4,0.7-0.6v-1.2l-0.7-0.5V66.5z"/>
	<path id="path178" class="st4" d="M138.6,70c-5.3-2.9-13.7-3-20.1-0.1v0.3c-0.3,0.2-0.5,0.4-0.7,0.6v2.8c0.2,0.4,0.5,0.7,0.9,0.9
		l8.6-2.7c-0.5,0-2.4-0.4-2.4-0.4c-0.6,0.2-6.6,2.1-6.6,2.1c0.5-0.9,1.4-1.6,2.4-1.8l1,0.2c0.6-0.2,4.4-1.3,4.4-1.3
		c2-0.2,6.4-0.7,10.2,1l-7.2,2c-0.3-0.2-0.7-0.2-0.9,0.1c0,0-0.1,0.1-0.1,0.1l-3.5,1l2.8,0.6l0.7-0.2c0,0.2,0,0.4,0,0.5l-3.5,1
		c0.6,0.1,1.2,0.1,1.8,0.2c0-0.1,0-0.3,0-0.3c0.4-0.1,1.7-0.5,1.7-0.5v0.3c-0.3,0.1-0.5,0.3-0.6,0.5h0.2c0-0.1,0.3-0.4,0.3,0
		c0,0,0.5,0,0.8,0c0-0.2,0.2-0.4,0.3,0c0.9,0,1.9-0.1,2.8-0.2l-0.7-0.1c0.2-0.1,4.9-1.6,5.2-1.7c-0.1,0-0.5-0.1-0.6-0.1l-6,2h-0.5
		c0-0.2-0.2-0.4-0.4-0.5V76c0.4-0.1,5.2-1.5,5.2-1.5l-0.9-0.2l-4.4,1.3c0-0.2,0-0.4,0-0.5l9-2.6c0.5,0.2,0.9,0.5,1.3,0.9
		c0-0.2,0-0.5,0-0.5c-1.1-0.8-2.3-1.4-3.6-1.9c0-0.4,0-2,0-2c-0.6-0.2-1.1-0.4-1.7-0.5c0,0.3,0,2.1,0,2.1s-0.8-0.2-1.5-0.2
		c0-0.5,0-2.1,0-2.1h-0.2v2.1l-0.4-0.1v-2.1c-0.7-0.1-1.4-0.1-2.1-0.1v2.1c-2.7,0-5.4,0.3-8,1V69c-0.3,0.1-0.6,0.1-0.9,0.2v2.1
		c-0.2,0.1-0.5,0.2-0.9,0.4v-2c5.3-2,12.9-2.6,18.7,0.6L138.6,70z"/>
	<path id="path180" class="st4" d="M120.8,65.2c0.3-0.1,0.5-0.2,0.8-0.2c0,0.4,0,2.1,0,2.1c2.7-0.7,5.4-1,8.2-0.9V64
		c0.6,0,1.4,0.1,2.1,0.2c0,0.5,0,2.1,0,2.1c0.1,0,0.2,0,0.3,0c0-0.4,0-2.1,0-2.1h0.4c0,0.4,0,2.1,0,2.1c0.3,0,1.2,0.2,1.4,0.2
		c0-0.5,0-2.1,0-2.1s1.2,0.3,1.7,0.5c0,0.3,0,2,0,2c1.2,0.4,2.4,0.9,3.5,1.5l-0.7,0.5c-5.1-2.7-13.4-3.1-20.1,0l-0.7-0.5
		c0-0.7,0-2,0-2c0.7-0.4,1.4-0.7,2.2-1c0,0.4,0,2,0,2c0.3-0.1,0.9-0.3,0.9-0.3C120.8,66.8,120.8,65.2,120.8,65.2"/>
	<path id="path182" d="M128.2,74.3c0-0.2,0.2-0.3,0.4-0.2c0.1,0,0.2,0.1,0.2,0.2v2.5c0,0.3-0.6,0.3-0.6,0
		C128.2,76.5,128.2,74.4,128.2,74.3"/>
	<path id="path184" d="M124.3,64c-0.3-2-1.1-11.4-9.7-11c-4.2,0.3-5.8,4.2-6,6.8L107.8,84c-0.2,0.4-0.4,0.8-0.5,1.2
		c0,0.4-0.5,17.1-0.5,17.1l1.4,1l0.4-17c0.1-0.5,0-1-0.3-1.5c-0.3-0.3,0.1-0.5,0.2-0.3c0.3,0.4,0.5,0.9,0.4,1.3
		c0,0.3-0.4,17.7-0.4,17.7l0.3,0.2c0-0.5,0.4-18.4,0.4-18.4c-0.1-0.4-0.2-0.9-0.4-1.3l0.8-23.8c0.1-1.9,1.1-5.6,4.7-5.9
		c2,0,7.5-0.1,8.4,10C123.6,64.2,123.8,64.1,124.3,64"/>
	<path id="path186" d="M133.3,64.2c0.3-2.1,1.1-11.5,9.7-11c4.2,0.3,5.8,4.2,6,6.7l0.8,24.2c0.2,0.4,0.4,0.8,0.5,1.2
		c0,0.4,0.5,17.1,0.5,17.1l-0.3,0.2l-0.6-16.3c0-0.7-0.1-1.3-0.5-1.6s-0.5,0.1-0.3,0.2s0.4,0.2,0.4,1c0,0.6,0.6,17,0.6,17l-1.4,0.9
		c0-0.5-0.4-18.4-0.4-18.4c0.1-0.4,0.2-0.9,0.4-1.3l-0.8-23.8c-0.1-1.9-1.1-5.6-4.7-5.9c-2,0-7.5-0.1-8.4,10
		C134.2,64.3,133.7,64.2,133.3,64.2"/>
	<path id="path188" d="M120.9,64.9c-0.2-2-1.9-3.4-3.9-3.3c-1.4,0.1-4.1,1.5-4.2,5.3l-0.7,26.9c-0.2,0.3-0.3,0.7-0.5,1l-0.2,9.8
		c0.2,0.1,1.6,0.5,1.6,0.5c0-0.3,0.2-9.6,0.2-9.6c0.1-0.4-0.1-0.8-0.4-1c-0.2-0.1,0-0.3,0.1-0.3c0.4,0.1,0.7,0.6,0.7,1
		c0,0.6-0.2,10-0.2,10c0.1,0,0.3,0,0.4,0.1c0-0.3,0.1-10.4,0.1-10.4c-0.1-0.2-0.4-1-0.4-1c0-0.4,0.6-26.6,0.6-26.6
		c0-0.7,0.2-4.2,3.2-4.4c1.3,0,2.4,1.1,2.5,2.4C120.1,65.2,120.9,64.9,120.9,64.9"/>
	<path id="path190" d="M136.5,65c0.2-2,1.9-3.5,3.9-3.3c1.4,0.1,4.1,1.5,4.2,5.4l0.7,26.9c0.2,0.3,0.5,1,0.5,1l0.2,10.2l-0.4,0.2
		c0-0.3-0.2-9.6-0.2-9.6c0-0.4-0.2-0.8-0.6-1c-0.3-0.1-0.3,0.1-0.2,0.3c0.2,0.2,0.4,0.1,0.4,0.8c0,0.7,0.2,9.7,0.2,9.7l-1.5,0.4
		c0-0.3-0.1-10.9-0.1-10.9c0.1-0.2,0.4-1,0.4-1c0-0.4-0.6-26.6-0.6-26.6c0-0.7-0.2-4.2-3.2-4.4c-1.3,0.1-2.4,1.1-2.5,2.5L136.5,65"
		/>
	<path id="path192" class="st4" d="M108.3,84.7c-0.1-0.1,0.1-0.4,0.3-0.2c0.3,0.4,0.4,0.8,0.4,1.3c0,0.2-0.1,4.4-0.1,4.4h-0.4
		c0-0.2,0.1-4.3,0.1-4.3C108.7,85.4,108.6,85,108.3,84.7"/>
	<path id="path194" class="st4" d="M149.1,84.9c-0.2-0.1,0-0.4,0.2-0.2c0.2,0.2,0.6,0.4,0.6,1.5c0,0.4,0.1,4.2,0.1,4.2h-0.4
		c0-0.2-0.2-4.3-0.2-4.3C149.5,85.8,149.5,85.1,149.1,84.9"/>
</g>
<rect x="31.7" y="1" class="st9" width="200" height="200"/>
</svg>
